<svg width="907" height="375" viewBox="0 0 907 375" fill="none" xmlns="http://www.w3.org/2000/svg">
<g clip-path="url(#clip0_4126_36)">
<rect width="907" height="375" rx="16" fill="#FAFAFA"/>
<mask id="path-4-inside-1_4126_36" fill="white">
<path d="M0 0H907V64H0V0Z"/>
</mask>
<path d="M0 0H907V64H0V0Z" fill="#F5F5F5"/>
<path d="M907 63H0V65H907V63Z" fill="#D4D4D4" mask="url(#path-4-inside-1_4126_36)"/>
<g opacity="0.85">
<circle cx="40" cy="32" r="8" fill="#EF4444"/>
<circle cx="66" cy="32" r="8" fill="#FACC15"/>
<circle cx="92" cy="32" r="8" fill="#4ADE80"/>
</g>
<path d="M51.736 128C51.48 126.64 51.232 125.416 50.992 124.328H44.392C44.152 125.304 43.896 126.528 43.624 128H41.272C42.376 122.064 44.056 116.464 46.312 111.2H49.072C51.296 116.4 52.968 122 54.088 128H51.736ZM44.848 122.312H50.512C49.792 119.336 48.848 116.208 47.68 112.928C46.512 116.208 45.568 119.336 44.848 122.312ZM64.4476 114.56C66.0476 114.56 67.2796 115.144 68.1436 116.312C69.0236 117.48 69.4636 119.136 69.4636 121.28C69.4636 123.488 69.0236 125.2 68.1436 126.416C67.2796 127.632 66.0476 128.24 64.4476 128.24C62.6876 128.24 61.3836 127.544 60.5356 126.152V132.56H58.3756V114.8H60.0076L60.3676 117.056C61.2316 115.392 62.5916 114.56 64.4476 114.56ZM63.8716 126.32C65.0876 126.32 65.9516 125.96 66.4636 125.24C66.9756 124.504 67.2316 123.264 67.2316 121.52C67.2316 119.712 66.9756 118.424 66.4636 117.656C65.9516 116.872 65.0876 116.48 63.8716 116.48C62.6556 116.48 61.7916 116.848 61.2796 117.584C60.7836 118.304 60.5356 119.536 60.5356 121.28C60.5356 123.088 60.7916 124.384 61.3036 125.168C61.8156 125.936 62.6716 126.32 63.8716 126.32ZM80.5191 114.56C82.1191 114.56 83.3511 115.144 84.2151 116.312C85.0951 117.48 85.5351 119.136 85.5351 121.28C85.5351 123.488 85.0951 125.2 84.2151 126.416C83.3511 127.632 82.1191 128.24 80.5191 128.24C78.7591 128.24 77.4551 127.544 76.6071 126.152V132.56H74.4471V114.8H76.0791L76.4391 117.056C77.3031 115.392 78.6631 114.56 80.5191 114.56ZM79.9431 126.32C81.1591 126.32 82.0231 125.96 82.5351 125.24C83.0471 124.504 83.3031 123.264 83.3031 121.52C83.3031 119.712 83.0471 118.424 82.5351 117.656C82.0231 116.872 81.1591 116.48 79.9431 116.48C78.7271 116.48 77.8631 116.848 77.3511 117.584C76.8551 118.304 76.6071 119.536 76.6071 121.28C76.6071 123.088 76.8631 124.384 77.3751 125.168C77.8871 125.936 78.7431 126.32 79.9431 126.32ZM549.09 128L545.562 120.824H542.85V128H540.594V111.2H546.498C548.162 111.2 549.442 111.592 550.338 112.376C551.25 113.16 551.706 114.28 551.706 115.736C551.706 117.048 551.378 118.128 550.722 118.976C550.066 119.808 549.122 120.36 547.89 120.632L551.802 128H549.09ZM542.85 113.192V118.808H546.234C547.37 118.808 548.178 118.592 548.658 118.16C549.138 117.728 549.378 117.008 549.378 116C549.378 114.992 549.138 114.272 548.658 113.84C548.194 113.408 547.394 113.192 546.258 113.192H542.85ZM565.138 114.8H567.298V128H565.666L565.258 124.904C563.882 127.128 562.178 128.24 560.146 128.24C559.01 128.24 558.122 127.904 557.482 127.232C556.858 126.56 556.546 125.568 556.546 124.256V114.8H558.706V123.968C558.706 125.584 559.418 126.392 560.842 126.392C561.546 126.392 562.21 126.168 562.834 125.72C563.474 125.272 564.242 124.488 565.138 123.368V114.8ZM579.866 114.56C581.002 114.56 581.882 114.896 582.506 115.568C583.146 116.24 583.466 117.232 583.466 118.544V128H581.33V118.832C581.33 117.216 580.61 116.408 579.17 116.408C578.466 116.408 577.794 116.632 577.154 117.08C576.53 117.528 575.77 118.32 574.874 119.456V128H572.738V114.8H574.346L574.754 117.896C576.13 115.672 577.834 114.56 579.866 114.56ZM759.965 148.72H754.205V155.56C754.205 156.472 754.421 157.152 754.853 157.6C755.285 158.032 756.013 158.248 757.037 158.248C758.061 158.248 759.037 158.04 759.965 157.624V159.688C758.909 160.056 757.861 160.24 756.821 160.24C755.237 160.24 754.045 159.848 753.245 159.064C752.445 158.264 752.045 157.192 752.045 155.848V148.72H748.997V147.328L752.045 146.8L752.549 143.848H754.205V146.8H759.965V148.72ZM777.068 148.672C774.556 148.672 772.46 149.344 770.78 150.688V158.08H775.772V160H765.212V158.08H768.62V148.72H765.932V146.8H770.252L770.66 149.416C771.396 148.456 772.348 147.696 773.516 147.136C774.7 146.576 775.884 146.296 777.068 146.296V148.672ZM790.14 146.8H792.3V160H790.668L790.26 156.904C788.884 159.128 787.18 160.24 785.148 160.24C784.012 160.24 783.124 159.904 782.484 159.232C781.86 158.56 781.548 157.568 781.548 156.256V146.8H783.708V155.968C783.708 157.584 784.42 158.392 785.844 158.392C786.548 158.392 787.212 158.168 787.836 157.72C788.476 157.272 789.244 156.488 790.14 155.368V146.8ZM808.899 153.016C808.899 153.544 808.891 153.944 808.875 154.216H799.491C799.587 155.656 799.947 156.688 800.571 157.312C801.211 157.936 802.147 158.248 803.379 158.248C804.947 158.248 806.451 157.8 807.891 156.904V158.968C806.435 159.816 804.859 160.24 803.163 160.24C801.307 160.24 799.851 159.688 798.795 158.584C797.755 157.48 797.235 155.888 797.235 153.808C797.235 151.584 797.779 149.824 798.867 148.528C799.955 147.216 801.475 146.56 803.427 146.56C805.203 146.56 806.555 147.12 807.483 148.24C808.427 149.344 808.899 150.936 808.899 153.016ZM803.259 148.552C802.043 148.552 801.139 148.848 800.547 149.44C799.955 150.016 799.611 150.992 799.515 152.368H806.643C806.563 150.976 806.267 149.992 805.755 149.416C805.259 148.84 804.427 148.552 803.259 148.552ZM679.607 180.72H673.847V187.56C673.847 188.472 674.063 189.152 674.495 189.6C674.927 190.032 675.655 190.248 676.679 190.248C677.703 190.248 678.679 190.04 679.607 189.624V191.688C678.551 192.056 677.503 192.24 676.463 192.24C674.879 192.24 673.687 191.848 672.887 191.064C672.087 190.264 671.687 189.192 671.687 187.848V180.72H668.639V179.328L671.687 178.8L672.191 175.848H673.847V178.8H679.607V180.72ZM696.71 180.672C694.198 180.672 692.102 181.344 690.422 182.688V190.08H695.414V192H684.854V190.08H688.262V180.72H685.574V178.8H689.894L690.302 181.416C691.038 180.456 691.99 179.696 693.158 179.136C694.342 178.576 695.526 178.296 696.71 178.296V180.672ZM709.782 178.8H711.942V192H710.31L709.902 188.904C708.526 191.128 706.822 192.24 704.79 192.24C703.654 192.24 702.766 191.904 702.126 191.232C701.502 190.56 701.19 189.568 701.19 188.256V178.8H703.35V187.968C703.35 189.584 704.062 190.392 705.486 190.392C706.19 190.392 706.854 190.168 707.478 189.72C708.118 189.272 708.886 188.488 709.782 187.368V178.8ZM728.542 185.016C728.542 185.544 728.534 185.944 728.518 186.216H719.134C719.23 187.656 719.59 188.688 720.214 189.312C720.854 189.936 721.79 190.248 723.022 190.248C724.59 190.248 726.094 189.8 727.534 188.904V190.968C726.078 191.816 724.502 192.24 722.806 192.24C720.95 192.24 719.494 191.688 718.438 190.584C717.398 189.48 716.878 187.888 716.878 185.808C716.878 183.584 717.422 181.824 718.51 180.528C719.598 179.216 721.118 178.56 723.07 178.56C724.846 178.56 726.198 179.12 727.126 180.24C728.07 181.344 728.542 182.936 728.542 185.016ZM722.902 180.552C721.686 180.552 720.782 180.848 720.19 181.44C719.598 182.016 719.254 182.992 719.158 184.368H726.286C726.206 182.976 725.91 181.992 725.398 181.416C724.902 180.84 724.07 180.552 722.902 180.552Z" fill="#0550AE"/>
<path d="M95.8467 114.8H99.1587V118.352H95.8467V114.8ZM107.991 114.8H111.303V118.352H107.991V114.8ZM95.8467 124.448H99.1587V128H95.8467V124.448ZM107.991 124.448H111.303V128H107.991V124.448ZM484.516 111.848C482.484 111.848 481.468 112.632 481.468 114.2V114.896H487.588V116.72H481.468V128H479.308V116.72H475.876V114.896H479.308V114.368C479.308 112.976 479.74 111.904 480.604 111.152C481.484 110.384 482.708 110 484.276 110C485.396 110 486.5 110.168 487.588 110.504V112.4C486.58 112.032 485.556 111.848 484.516 111.848ZM499.508 114.56C500.644 114.56 501.524 114.896 502.148 115.568C502.788 116.24 503.108 117.232 503.108 118.544V128H500.972V118.832C500.972 117.216 500.252 116.408 498.812 116.408C498.108 116.408 497.436 116.632 496.796 117.08C496.172 117.528 495.412 118.32 494.516 119.456V128H492.38V114.8H493.988L494.396 117.896C495.772 115.672 497.476 114.56 499.508 114.56ZM125.574 145.96L132.15 152.536L125.574 159.112L124.206 157.744L127.998 154.048L128.622 153.496H107.406V151.576H128.646L127.998 151L124.206 147.328L125.574 145.96ZM720.222 145.96L726.798 152.536L720.222 159.112L718.854 157.744L720.846 155.8H702.054V153.88H722.838L724.206 152.536L722.838 151.192H702.054V149.272H720.846L718.854 147.328L720.222 145.96ZM125.574 177.96L132.15 184.536L125.574 191.112L124.206 189.744L127.998 186.048L128.622 185.496H107.406V183.576H128.646L127.998 183L124.206 179.328L125.574 177.96ZM639.864 177.96L646.44 184.536L639.864 191.112L638.496 189.744L640.488 187.8H621.696V185.88H642.48L643.848 184.536L642.48 183.192H621.696V181.272H640.488L638.496 179.328L639.864 177.96ZM125.574 209.96L132.15 216.536L125.574 223.112L124.206 221.744L127.998 218.048L128.622 217.496H107.406V215.576H128.646L127.998 215L124.206 211.328L125.574 209.96ZM125.574 241.96L132.15 248.536L125.574 255.112L124.206 253.744L127.998 250.048L128.622 249.496H107.406V247.576H128.646L127.998 247L124.206 243.328L125.574 241.96ZM125.574 273.96L132.15 280.536L125.574 287.112L124.206 285.744L127.998 282.048L128.622 281.496H107.406V279.576H128.646L127.998 279L124.206 275.328L125.574 273.96Z" fill="#CF222E"/>
<path d="M130.27 109.256V112.472H127.366V109.256H130.27ZM129.886 126.08H133.534V128H122.974V126.08H127.726V116.72H123.694V114.8H129.886V126.08ZM145.933 114.56C147.069 114.56 147.949 114.896 148.573 115.568C149.213 116.24 149.533 117.232 149.533 118.544V128H147.397V118.832C147.397 117.216 146.677 116.408 145.237 116.408C144.533 116.408 143.861 116.632 143.221 117.08C142.597 117.528 141.837 118.32 140.941 119.456V128H138.805V114.8H140.413L140.821 117.896C142.197 115.672 143.901 114.56 145.933 114.56ZM155.213 125.192C156.733 125.896 158.261 126.248 159.797 126.248C161.909 126.248 162.965 125.664 162.965 124.496C162.965 123.936 162.693 123.496 162.149 123.176C161.621 122.856 160.973 122.616 160.205 122.456C159.453 122.296 158.693 122.112 157.925 121.904C157.173 121.696 156.525 121.312 155.981 120.752C155.453 120.192 155.189 119.456 155.189 118.544C155.189 117.344 155.613 116.384 156.461 115.664C157.325 114.928 158.557 114.56 160.157 114.56C161.709 114.56 163.197 114.848 164.621 115.424V117.464C163.229 116.856 161.845 116.552 160.469 116.552C158.405 116.552 157.373 117.152 157.373 118.352C157.373 118.96 157.637 119.432 158.165 119.768C158.709 120.088 159.365 120.328 160.133 120.488C160.901 120.648 161.669 120.832 162.437 121.04C163.205 121.248 163.853 121.624 164.381 122.168C164.925 122.712 165.197 123.44 165.197 124.352C165.197 125.52 164.749 126.464 163.853 127.184C162.973 127.888 161.685 128.24 159.989 128.24C158.165 128.24 156.573 127.912 155.213 127.256V125.192ZM181.388 116.72H175.628V123.56C175.628 124.472 175.844 125.152 176.276 125.6C176.708 126.032 177.436 126.248 178.46 126.248C179.484 126.248 180.46 126.04 181.388 125.624V127.688C180.332 128.056 179.284 128.24 178.244 128.24C176.66 128.24 175.468 127.848 174.668 127.064C173.868 126.264 173.468 125.192 173.468 123.848V116.72H170.42V115.328L173.468 114.8L173.972 111.848H175.628V114.8H181.388V116.72ZM197.964 128H195.828L195.348 125.384C194.452 127.288 192.924 128.24 190.764 128.24C189.5 128.24 188.516 127.928 187.812 127.304C187.108 126.664 186.756 125.776 186.756 124.64C186.756 123.152 187.404 122.032 188.7 121.28C189.996 120.512 192.116 120.12 195.06 120.104V118.976C195.06 117.36 194.156 116.552 192.348 116.552C190.908 116.552 189.436 116.928 187.932 117.68V115.616C189.564 114.912 191.124 114.56 192.612 114.56C194.068 114.56 195.196 114.936 195.996 115.688C196.812 116.424 197.22 117.448 197.22 118.76V123.944L197.964 128ZM191.268 126.248C192.388 126.248 193.3 125.904 194.004 125.216C194.708 124.528 195.06 123.656 195.06 122.6V121.544C192.884 121.56 191.324 121.776 190.38 122.192C189.452 122.592 188.988 123.28 188.988 124.256C188.988 125.584 189.748 126.248 191.268 126.248ZM211.732 126.248C212.788 126.248 213.804 125.944 214.78 125.336V127.352C213.676 127.944 212.532 128.24 211.348 128.24C209.844 128.24 208.692 127.784 207.892 126.872C207.092 125.944 206.692 124.568 206.692 122.744V112.16H202.012V110.24H208.852V122.552C208.852 125.016 209.812 126.248 211.732 126.248ZM227.803 126.248C228.859 126.248 229.875 125.944 230.851 125.336V127.352C229.747 127.944 228.603 128.24 227.419 128.24C225.915 128.24 224.763 127.784 223.963 126.872C223.163 125.944 222.763 124.568 222.763 122.744V112.16H218.083V110.24H224.923V122.552C224.923 125.016 225.883 126.248 227.803 126.248ZM147.685 151.576C147.685 150.472 147.437 149.68 146.941 149.2C146.445 148.72 145.637 148.48 144.517 148.48C143.125 148.48 142.149 148.856 141.589 149.608C141.029 150.36 140.749 151.632 140.749 153.424C140.749 155.168 141.045 156.408 141.637 157.144C142.245 157.88 143.277 158.248 144.733 158.248C146.285 158.248 147.765 157.776 149.173 156.832V158.92C147.733 159.8 146.157 160.24 144.445 160.24C142.589 160.24 141.133 159.672 140.077 158.536C139.037 157.4 138.517 155.808 138.517 153.76C138.517 151.472 139.045 149.704 140.101 148.456C141.173 147.192 142.661 146.56 144.565 146.56C146.149 146.56 147.437 147.016 148.429 147.928C149.421 148.84 149.917 150.056 149.917 151.576H147.685ZM159.941 160.24C158.165 160.24 156.797 159.68 155.837 158.56C154.877 157.424 154.397 155.824 154.397 153.76C154.397 151.472 154.925 149.704 155.981 148.456C157.037 147.192 158.517 146.56 160.421 146.56C162.197 146.56 163.565 147.12 164.525 148.24C165.501 149.36 165.989 150.952 165.989 153.016C165.989 155.32 165.461 157.104 164.405 158.368C163.349 159.616 161.861 160.24 159.941 160.24ZM157.421 157.168C157.965 157.888 158.885 158.248 160.181 158.248C161.477 158.248 162.389 157.88 162.917 157.144C163.461 156.392 163.733 155.128 163.733 153.352C163.733 151.592 163.461 150.352 162.917 149.632C162.389 148.912 161.477 148.552 160.181 148.552C158.901 148.552 157.989 148.92 157.445 149.656C156.901 150.392 156.629 151.648 156.629 153.424C156.629 155.184 156.893 156.432 157.421 157.168ZM180.02 146.56C181.78 146.56 182.66 147.912 182.66 150.616V160H180.62V150.88C180.62 150.032 180.516 149.408 180.308 149.008C180.1 148.608 179.732 148.408 179.204 148.408C178.436 148.408 177.796 148.936 177.284 149.992C177.3 150.12 177.308 150.328 177.308 150.616V160H175.268V150.88C175.268 149.312 174.836 148.528 173.972 148.528C173.204 148.528 172.532 149.152 171.956 150.4V160H169.916V146.8H171.452L171.86 149.08C172.628 147.4 173.644 146.56 174.908 146.56C176.012 146.56 176.732 147.224 177.068 148.552C177.772 147.224 178.756 146.56 180.02 146.56ZM196.092 146.56C197.852 146.56 198.732 147.912 198.732 150.616V160H196.692V150.88C196.692 150.032 196.588 149.408 196.38 149.008C196.172 148.608 195.804 148.408 195.276 148.408C194.508 148.408 193.868 148.936 193.356 149.992C193.372 150.12 193.38 150.328 193.38 150.616V160H191.34V150.88C191.34 149.312 190.908 148.528 190.044 148.528C189.276 148.528 188.604 149.152 188.028 150.4V160H185.988V146.8H187.524L187.932 149.08C188.7 147.4 189.716 146.56 190.98 146.56C192.084 146.56 192.804 147.224 193.14 148.552C193.844 147.224 194.828 146.56 196.092 146.56ZM214.036 160H211.9L211.42 157.384C210.524 159.288 208.996 160.24 206.836 160.24C205.572 160.24 204.588 159.928 203.884 159.304C203.18 158.664 202.828 157.776 202.828 156.64C202.828 155.152 203.476 154.032 204.772 153.28C206.068 152.512 208.188 152.12 211.132 152.104V150.976C211.132 149.36 210.228 148.552 208.42 148.552C206.98 148.552 205.508 148.928 204.004 149.68V147.616C205.636 146.912 207.196 146.56 208.684 146.56C210.14 146.56 211.268 146.936 212.068 147.688C212.884 148.424 213.292 149.448 213.292 150.76V155.944L214.036 160ZM207.34 158.248C208.46 158.248 209.372 157.904 210.076 157.216C210.78 156.528 211.132 155.656 211.132 154.6V153.544C208.956 153.56 207.396 153.776 206.452 154.192C205.524 154.592 205.06 155.28 205.06 156.256C205.06 157.584 205.82 158.248 207.34 158.248ZM226.291 146.56C227.427 146.56 228.307 146.896 228.931 147.568C229.571 148.24 229.891 149.232 229.891 150.544V160H227.755V150.832C227.755 149.216 227.035 148.408 225.595 148.408C224.891 148.408 224.219 148.632 223.579 149.08C222.955 149.528 222.195 150.32 221.299 151.456V160H219.163V146.8H220.771L221.179 149.896C222.555 147.672 224.259 146.56 226.291 146.56ZM243.779 142.24H245.915V160H244.307L243.947 157.744C243.067 159.408 241.699 160.24 239.843 160.24C238.243 160.24 237.003 159.656 236.123 158.488C235.259 157.32 234.827 155.664 234.827 153.52C234.827 151.312 235.259 149.6 236.123 148.384C237.003 147.168 238.243 146.56 239.843 146.56C241.571 146.56 242.883 147.256 243.779 148.648V142.24ZM240.419 158.32C241.635 158.32 242.499 157.96 243.011 157.24C243.523 156.504 243.779 155.264 243.779 153.52C243.779 151.712 243.523 150.424 243.011 149.656C242.499 148.872 241.635 148.48 240.419 148.48C239.203 148.48 238.339 148.848 237.827 149.584C237.331 150.304 237.083 151.536 237.083 153.28C237.083 155.088 237.339 156.384 237.851 157.168C238.363 157.936 239.219 158.32 240.419 158.32ZM147.685 183.576C147.685 182.472 147.437 181.68 146.941 181.2C146.445 180.72 145.637 180.48 144.517 180.48C143.125 180.48 142.149 180.856 141.589 181.608C141.029 182.36 140.749 183.632 140.749 185.424C140.749 187.168 141.045 188.408 141.637 189.144C142.245 189.88 143.277 190.248 144.733 190.248C146.285 190.248 147.765 189.776 149.173 188.832V190.92C147.733 191.8 146.157 192.24 144.445 192.24C142.589 192.24 141.133 191.672 140.077 190.536C139.037 189.4 138.517 187.808 138.517 185.76C138.517 183.472 139.045 181.704 140.101 180.456C141.173 179.192 142.661 178.56 144.565 178.56C146.149 178.56 147.437 179.016 148.429 179.928C149.421 180.84 149.917 182.056 149.917 183.576H147.685ZM159.941 192.24C158.165 192.24 156.797 191.68 155.837 190.56C154.877 189.424 154.397 187.824 154.397 185.76C154.397 183.472 154.925 181.704 155.981 180.456C157.037 179.192 158.517 178.56 160.421 178.56C162.197 178.56 163.565 179.12 164.525 180.24C165.501 181.36 165.989 182.952 165.989 185.016C165.989 187.32 165.461 189.104 164.405 190.368C163.349 191.616 161.861 192.24 159.941 192.24ZM157.421 189.168C157.965 189.888 158.885 190.248 160.181 190.248C161.477 190.248 162.389 189.88 162.917 189.144C163.461 188.392 163.733 187.128 163.733 185.352C163.733 183.592 163.461 182.352 162.917 181.632C162.389 180.912 161.477 180.552 160.181 180.552C158.901 180.552 157.989 180.92 157.445 181.656C156.901 182.392 156.629 183.648 156.629 185.424C156.629 187.184 156.893 188.432 157.421 189.168ZM180.02 178.56C181.78 178.56 182.66 179.912 182.66 182.616V192H180.62V182.88C180.62 182.032 180.516 181.408 180.308 181.008C180.1 180.608 179.732 180.408 179.204 180.408C178.436 180.408 177.796 180.936 177.284 181.992C177.3 182.12 177.308 182.328 177.308 182.616V192H175.268V182.88C175.268 181.312 174.836 180.528 173.972 180.528C173.204 180.528 172.532 181.152 171.956 182.4V192H169.916V178.8H171.452L171.86 181.08C172.628 179.4 173.644 178.56 174.908 178.56C176.012 178.56 176.732 179.224 177.068 180.552C177.772 179.224 178.756 178.56 180.02 178.56ZM196.092 178.56C197.852 178.56 198.732 179.912 198.732 182.616V192H196.692V182.88C196.692 182.032 196.588 181.408 196.38 181.008C196.172 180.608 195.804 180.408 195.276 180.408C194.508 180.408 193.868 180.936 193.356 181.992C193.372 182.12 193.38 182.328 193.38 182.616V192H191.34V182.88C191.34 181.312 190.908 180.528 190.044 180.528C189.276 180.528 188.604 181.152 188.028 182.4V192H185.988V178.8H187.524L187.932 181.08C188.7 179.4 189.716 178.56 190.98 178.56C192.084 178.56 192.804 179.224 193.14 180.552C193.844 179.224 194.828 178.56 196.092 178.56ZM214.036 192H211.9L211.42 189.384C210.524 191.288 208.996 192.24 206.836 192.24C205.572 192.24 204.588 191.928 203.884 191.304C203.18 190.664 202.828 189.776 202.828 188.64C202.828 187.152 203.476 186.032 204.772 185.28C206.068 184.512 208.188 184.12 211.132 184.104V182.976C211.132 181.36 210.228 180.552 208.42 180.552C206.98 180.552 205.508 180.928 204.004 181.68V179.616C205.636 178.912 207.196 178.56 208.684 178.56C210.14 178.56 211.268 178.936 212.068 179.688C212.884 180.424 213.292 181.448 213.292 182.76V187.944L214.036 192ZM207.34 190.248C208.46 190.248 209.372 189.904 210.076 189.216C210.78 188.528 211.132 187.656 211.132 186.6V185.544C208.956 185.56 207.396 185.776 206.452 186.192C205.524 186.592 205.06 187.28 205.06 188.256C205.06 189.584 205.82 190.248 207.34 190.248ZM226.291 178.56C227.427 178.56 228.307 178.896 228.931 179.568C229.571 180.24 229.891 181.232 229.891 182.544V192H227.755V182.832C227.755 181.216 227.035 180.408 225.595 180.408C224.891 180.408 224.219 180.632 223.579 181.08C222.955 181.528 222.195 182.32 221.299 183.456V192H219.163V178.8H220.771L221.179 181.896C222.555 179.672 224.259 178.56 226.291 178.56ZM243.779 174.24H245.915V192H244.307L243.947 189.744C243.067 191.408 241.699 192.24 239.843 192.24C238.243 192.24 237.003 191.656 236.123 190.488C235.259 189.32 234.827 187.664 234.827 185.52C234.827 183.312 235.259 181.6 236.123 180.384C237.003 179.168 238.243 178.56 239.843 178.56C241.571 178.56 242.883 179.256 243.779 180.648V174.24ZM240.419 190.32C241.635 190.32 242.499 189.96 243.011 189.24C243.523 188.504 243.779 187.264 243.779 185.52C243.779 183.712 243.523 182.424 243.011 181.656C242.499 180.872 241.635 180.48 240.419 180.48C239.203 180.48 238.339 180.848 237.827 181.584C237.331 182.304 237.083 183.536 237.083 185.28C237.083 187.088 237.339 188.384 237.851 189.168C238.363 189.936 239.219 190.32 240.419 190.32ZM147.685 215.576C147.685 214.472 147.437 213.68 146.941 213.2C146.445 212.72 145.637 212.48 144.517 212.48C143.125 212.48 142.149 212.856 141.589 213.608C141.029 214.36 140.749 215.632 140.749 217.424C140.749 219.168 141.045 220.408 141.637 221.144C142.245 221.88 143.277 222.248 144.733 222.248C146.285 222.248 147.765 221.776 149.173 220.832V222.92C147.733 223.8 146.157 224.24 144.445 224.24C142.589 224.24 141.133 223.672 140.077 222.536C139.037 221.4 138.517 219.808 138.517 217.76C138.517 215.472 139.045 213.704 140.101 212.456C141.173 211.192 142.661 210.56 144.565 210.56C146.149 210.56 147.437 211.016 148.429 211.928C149.421 212.84 149.917 214.056 149.917 215.576H147.685ZM159.941 224.24C158.165 224.24 156.797 223.68 155.837 222.56C154.877 221.424 154.397 219.824 154.397 217.76C154.397 215.472 154.925 213.704 155.981 212.456C157.037 211.192 158.517 210.56 160.421 210.56C162.197 210.56 163.565 211.12 164.525 212.24C165.501 213.36 165.989 214.952 165.989 217.016C165.989 219.32 165.461 221.104 164.405 222.368C163.349 223.616 161.861 224.24 159.941 224.24ZM157.421 221.168C157.965 221.888 158.885 222.248 160.181 222.248C161.477 222.248 162.389 221.88 162.917 221.144C163.461 220.392 163.733 219.128 163.733 217.352C163.733 215.592 163.461 214.352 162.917 213.632C162.389 212.912 161.477 212.552 160.181 212.552C158.901 212.552 157.989 212.92 157.445 213.656C156.901 214.392 156.629 215.648 156.629 217.424C156.629 219.184 156.893 220.432 157.421 221.168ZM180.02 210.56C181.78 210.56 182.66 211.912 182.66 214.616V224H180.62V214.88C180.62 214.032 180.516 213.408 180.308 213.008C180.1 212.608 179.732 212.408 179.204 212.408C178.436 212.408 177.796 212.936 177.284 213.992C177.3 214.12 177.308 214.328 177.308 214.616V224H175.268V214.88C175.268 213.312 174.836 212.528 173.972 212.528C173.204 212.528 172.532 213.152 171.956 214.4V224H169.916V210.8H171.452L171.86 213.08C172.628 211.4 173.644 210.56 174.908 210.56C176.012 210.56 176.732 211.224 177.068 212.552C177.772 211.224 178.756 210.56 180.02 210.56ZM196.092 210.56C197.852 210.56 198.732 211.912 198.732 214.616V224H196.692V214.88C196.692 214.032 196.588 213.408 196.38 213.008C196.172 212.608 195.804 212.408 195.276 212.408C194.508 212.408 193.868 212.936 193.356 213.992C193.372 214.12 193.38 214.328 193.38 214.616V224H191.34V214.88C191.34 213.312 190.908 212.528 190.044 212.528C189.276 212.528 188.604 213.152 188.028 214.4V224H185.988V210.8H187.524L187.932 213.08C188.7 211.4 189.716 210.56 190.98 210.56C192.084 210.56 192.804 211.224 193.14 212.552C193.844 211.224 194.828 210.56 196.092 210.56ZM214.036 224H211.9L211.42 221.384C210.524 223.288 208.996 224.24 206.836 224.24C205.572 224.24 204.588 223.928 203.884 223.304C203.18 222.664 202.828 221.776 202.828 220.64C202.828 219.152 203.476 218.032 204.772 217.28C206.068 216.512 208.188 216.12 211.132 216.104V214.976C211.132 213.36 210.228 212.552 208.42 212.552C206.98 212.552 205.508 212.928 204.004 213.68V211.616C205.636 210.912 207.196 210.56 208.684 210.56C210.14 210.56 211.268 210.936 212.068 211.688C212.884 212.424 213.292 213.448 213.292 214.76V219.944L214.036 224ZM207.34 222.248C208.46 222.248 209.372 221.904 210.076 221.216C210.78 220.528 211.132 219.656 211.132 218.6V217.544C208.956 217.56 207.396 217.776 206.452 218.192C205.524 218.592 205.06 219.28 205.06 220.256C205.06 221.584 205.82 222.248 207.34 222.248ZM226.291 210.56C227.427 210.56 228.307 210.896 228.931 211.568C229.571 212.24 229.891 213.232 229.891 214.544V224H227.755V214.832C227.755 213.216 227.035 212.408 225.595 212.408C224.891 212.408 224.219 212.632 223.579 213.08C222.955 213.528 222.195 214.32 221.299 215.456V224H219.163V210.8H220.771L221.179 213.896C222.555 211.672 224.259 210.56 226.291 210.56ZM243.779 206.24H245.915V224H244.307L243.947 221.744C243.067 223.408 241.699 224.24 239.843 224.24C238.243 224.24 237.003 223.656 236.123 222.488C235.259 221.32 234.827 219.664 234.827 217.52C234.827 215.312 235.259 213.6 236.123 212.384C237.003 211.168 238.243 210.56 239.843 210.56C241.571 210.56 242.883 211.256 243.779 212.648V206.24ZM240.419 222.32C241.635 222.32 242.499 221.96 243.011 221.24C243.523 220.504 243.779 219.264 243.779 217.52C243.779 215.712 243.523 214.424 243.011 213.656C242.499 212.872 241.635 212.48 240.419 212.48C239.203 212.48 238.339 212.848 237.827 213.584C237.331 214.304 237.083 215.536 237.083 217.28C237.083 219.088 237.339 220.384 237.851 221.168C238.363 221.936 239.219 222.32 240.419 222.32ZM139.141 253.192C140.661 253.896 142.189 254.248 143.725 254.248C145.837 254.248 146.893 253.664 146.893 252.496C146.893 251.936 146.621 251.496 146.077 251.176C145.549 250.856 144.901 250.616 144.133 250.456C143.381 250.296 142.621 250.112 141.853 249.904C141.101 249.696 140.453 249.312 139.909 248.752C139.381 248.192 139.117 247.456 139.117 246.544C139.117 245.344 139.541 244.384 140.389 243.664C141.253 242.928 142.485 242.56 144.085 242.56C145.637 242.56 147.125 242.848 148.549 243.424V245.464C147.157 244.856 145.773 244.552 144.397 244.552C142.333 244.552 141.301 245.152 141.301 246.352C141.301 246.96 141.565 247.432 142.093 247.768C142.637 248.088 143.293 248.328 144.061 248.488C144.829 248.648 145.597 248.832 146.365 249.04C147.133 249.248 147.781 249.624 148.309 250.168C148.853 250.712 149.125 251.44 149.125 252.352C149.125 253.52 148.677 254.464 147.781 255.184C146.901 255.888 145.613 256.24 143.917 256.24C142.093 256.24 140.501 255.912 139.141 255.256V253.192ZM163.757 247.576C163.757 246.472 163.509 245.68 163.013 245.2C162.517 244.72 161.709 244.48 160.589 244.48C159.197 244.48 158.221 244.856 157.661 245.608C157.101 246.36 156.821 247.632 156.821 249.424C156.821 251.168 157.117 252.408 157.709 253.144C158.317 253.88 159.349 254.248 160.805 254.248C162.357 254.248 163.837 253.776 165.245 252.832V254.92C163.805 255.8 162.229 256.24 160.517 256.24C158.661 256.24 157.205 255.672 156.149 254.536C155.109 253.4 154.589 251.808 154.589 249.76C154.589 247.472 155.117 245.704 156.173 244.456C157.245 243.192 158.733 242.56 160.637 242.56C162.221 242.56 163.509 243.016 164.501 243.928C165.493 244.84 165.989 246.056 165.989 247.576H163.757ZM182.42 244.672C179.908 244.672 177.812 245.344 176.132 246.688V254.08H181.124V256H170.564V254.08H173.972V244.72H171.284V242.8H175.604L176.012 245.416C176.748 244.456 177.7 243.696 178.868 243.136C180.052 242.576 181.236 242.296 182.42 242.296V244.672ZM194.556 237.256V240.472H191.652V237.256H194.556ZM194.172 254.08H197.82V256H187.26V254.08H192.012V244.72H187.98V242.8H194.172V254.08ZM209.092 242.56C210.692 242.56 211.924 243.144 212.788 244.312C213.668 245.48 214.108 247.136 214.108 249.28C214.108 251.488 213.668 253.2 212.788 254.416C211.924 255.632 210.692 256.24 209.092 256.24C207.332 256.24 206.028 255.544 205.18 254.152V260.56H203.02V242.8H204.652L205.012 245.056C205.876 243.392 207.236 242.56 209.092 242.56ZM208.516 254.32C209.732 254.32 210.596 253.96 211.108 253.24C211.62 252.504 211.876 251.264 211.876 249.52C211.876 247.712 211.62 246.424 211.108 245.656C210.596 244.872 209.732 244.48 208.516 244.48C207.3 244.48 206.436 244.848 205.924 245.584C205.428 246.304 205.18 247.536 205.18 249.28C205.18 251.088 205.436 252.384 205.948 253.168C206.46 253.936 207.316 254.32 208.516 254.32ZM229.603 244.72H223.843V251.56C223.843 252.472 224.059 253.152 224.491 253.6C224.923 254.032 225.651 254.248 226.675 254.248C227.699 254.248 228.675 254.04 229.603 253.624V255.688C228.547 256.056 227.499 256.24 226.459 256.24C224.875 256.24 223.683 255.848 222.883 255.064C222.083 254.264 221.683 253.192 221.683 251.848V244.72H218.635V243.328L221.683 242.8L222.187 239.848H223.843V242.8H229.603V244.72ZM139.141 285.192C140.661 285.896 142.189 286.248 143.725 286.248C145.837 286.248 146.893 285.664 146.893 284.496C146.893 283.936 146.621 283.496 146.077 283.176C145.549 282.856 144.901 282.616 144.133 282.456C143.381 282.296 142.621 282.112 141.853 281.904C141.101 281.696 140.453 281.312 139.909 280.752C139.381 280.192 139.117 279.456 139.117 278.544C139.117 277.344 139.541 276.384 140.389 275.664C141.253 274.928 142.485 274.56 144.085 274.56C145.637 274.56 147.125 274.848 148.549 275.424V277.464C147.157 276.856 145.773 276.552 144.397 276.552C142.333 276.552 141.301 277.152 141.301 278.352C141.301 278.96 141.565 279.432 142.093 279.768C142.637 280.088 143.293 280.328 144.061 280.488C144.829 280.648 145.597 280.832 146.365 281.04C147.133 281.248 147.781 281.624 148.309 282.168C148.853 282.712 149.125 283.44 149.125 284.352C149.125 285.52 148.677 286.464 147.781 287.184C146.901 287.888 145.613 288.24 143.917 288.24C142.093 288.24 140.501 287.912 139.141 287.256V285.192ZM163.757 279.576C163.757 278.472 163.509 277.68 163.013 277.2C162.517 276.72 161.709 276.48 160.589 276.48C159.197 276.48 158.221 276.856 157.661 277.608C157.101 278.36 156.821 279.632 156.821 281.424C156.821 283.168 157.117 284.408 157.709 285.144C158.317 285.88 159.349 286.248 160.805 286.248C162.357 286.248 163.837 285.776 165.245 284.832V286.92C163.805 287.8 162.229 288.24 160.517 288.24C158.661 288.24 157.205 287.672 156.149 286.536C155.109 285.4 154.589 283.808 154.589 281.76C154.589 279.472 155.117 277.704 156.173 276.456C157.245 275.192 158.733 274.56 160.637 274.56C162.221 274.56 163.509 275.016 164.501 275.928C165.493 276.84 165.989 278.056 165.989 279.576H163.757ZM182.42 276.672C179.908 276.672 177.812 277.344 176.132 278.688V286.08H181.124V288H170.564V286.08H173.972V276.72H171.284V274.8H175.604L176.012 277.416C176.748 276.456 177.7 275.696 178.868 275.136C180.052 274.576 181.236 274.296 182.42 274.296V276.672ZM194.556 269.256V272.472H191.652V269.256H194.556ZM194.172 286.08H197.82V288H187.26V286.08H192.012V276.72H187.98V274.8H194.172V286.08ZM209.092 274.56C210.692 274.56 211.924 275.144 212.788 276.312C213.668 277.48 214.108 279.136 214.108 281.28C214.108 283.488 213.668 285.2 212.788 286.416C211.924 287.632 210.692 288.24 209.092 288.24C207.332 288.24 206.028 287.544 205.18 286.152V292.56H203.02V274.8H204.652L205.012 277.056C205.876 275.392 207.236 274.56 209.092 274.56ZM208.516 286.32C209.732 286.32 210.596 285.96 211.108 285.24C211.62 284.504 211.876 283.264 211.876 281.52C211.876 279.712 211.62 278.424 211.108 277.656C210.596 276.872 209.732 276.48 208.516 276.48C207.3 276.48 206.436 276.848 205.924 277.584C205.428 278.304 205.18 279.536 205.18 281.28C205.18 283.088 205.436 284.384 205.948 285.168C206.46 285.936 207.316 286.32 208.516 286.32ZM229.603 276.72H223.843V283.56C223.843 284.472 224.059 285.152 224.491 285.6C224.923 286.032 225.651 286.248 226.675 286.248C227.699 286.248 228.675 286.04 229.603 285.624V287.688C228.547 288.056 227.499 288.24 226.459 288.24C224.875 288.24 223.683 287.848 222.883 287.064C222.083 286.264 221.683 285.192 221.683 283.848V276.72H218.635V275.328L221.683 274.8L222.187 271.848H223.843V274.8H229.603V276.72Z" fill="#8250DF"/>
<path d="M240.491 120.608C240.491 124.832 241.755 128.416 244.283 131.36H242.003C240.659 129.632 239.675 127.944 239.051 126.296C238.443 124.648 238.139 122.88 238.139 120.992C238.139 118.976 238.443 117.112 239.051 115.4C239.675 113.688 240.659 111.968 242.003 110.24H244.283C241.755 113.184 240.491 116.64 240.491 120.608ZM447.813 124.448H451.125V128L449.325 132.56H446.757L449.661 128H447.813V124.448ZM615.633 123.416C615.633 124.76 615.225 125.84 614.409 126.656C613.609 127.456 612.473 127.952 611.001 128.144V130.4H608.841V128.216C607.673 128.152 606.417 127.912 605.073 127.496V125.24C606.721 125.88 608.193 126.2 609.489 126.2C612.033 126.2 613.305 125.376 613.305 123.728C613.305 123.152 613.145 122.664 612.825 122.264C612.521 121.848 612.113 121.528 611.601 121.304C611.105 121.08 610.553 120.88 609.945 120.704C609.337 120.512 608.729 120.304 608.121 120.08C607.513 119.856 606.953 119.592 606.441 119.288C605.945 118.968 605.537 118.52 605.217 117.944C604.913 117.352 604.761 116.656 604.761 115.856C604.761 114.48 605.161 113.376 605.961 112.544C606.777 111.712 607.913 111.208 609.369 111.032V108.8H611.529V111.008C612.617 111.104 613.737 111.392 614.889 111.872V114.152C613.209 113.4 611.729 113.024 610.449 113.024C608.209 113.024 607.089 113.872 607.089 115.568C607.089 116.192 607.241 116.72 607.545 117.152C607.865 117.568 608.273 117.888 608.769 118.112C609.281 118.336 609.841 118.536 610.449 118.712C611.057 118.888 611.665 119.08 612.273 119.288C612.881 119.496 613.433 119.752 613.929 120.056C614.441 120.36 614.849 120.8 615.153 121.376C615.473 121.936 615.633 122.616 615.633 123.416ZM632.424 116.672C629.912 116.672 627.816 117.344 626.136 118.688V126.08H631.128V128H620.568V126.08H623.976V116.72H621.288V114.8H625.608L626.016 117.416C626.752 116.456 627.704 115.696 628.872 115.136C630.056 114.576 631.24 114.296 632.424 114.296V116.672ZM645.496 114.8H647.656V128H646.024L645.616 124.904C644.24 127.128 642.536 128.24 640.504 128.24C639.368 128.24 638.48 127.904 637.84 127.232C637.216 126.56 636.904 125.568 636.904 124.256V114.8H639.064V123.968C639.064 125.584 639.776 126.392 641.2 126.392C641.904 126.392 642.568 126.168 643.192 125.72C643.832 125.272 644.6 124.488 645.496 123.368V114.8ZM660.223 114.56C661.359 114.56 662.239 114.896 662.863 115.568C663.503 116.24 663.823 117.232 663.823 118.544V128H661.687V118.832C661.687 117.216 660.967 116.408 659.527 116.408C658.823 116.408 658.151 116.632 657.511 117.08C656.887 117.528 656.127 118.32 655.231 119.456V128H653.095V114.8H654.703L655.111 117.896C656.487 115.672 658.191 114.56 660.223 114.56ZM674.519 120.992C674.519 116.768 673.255 113.184 670.727 110.24H673.007C674.351 111.968 675.327 113.656 675.935 115.304C676.559 116.952 676.871 118.72 676.871 120.608C676.871 122.624 676.559 124.488 675.935 126.2C675.327 127.912 674.351 129.632 673.007 131.36H670.727C673.255 128.416 674.519 124.96 674.519 120.992ZM720.222 113.96L726.798 120.536L720.222 127.112L718.854 125.744L720.846 123.8H702.054V121.88H722.838L724.206 120.536L722.838 119.192H702.054V117.272H720.846L718.854 115.328L720.222 113.96ZM760.277 123.416C760.277 124.76 759.869 125.84 759.053 126.656C758.253 127.456 757.117 127.952 755.645 128.144V130.4H753.485V128.216C752.317 128.152 751.061 127.912 749.717 127.496V125.24C751.365 125.88 752.837 126.2 754.133 126.2C756.677 126.2 757.949 125.376 757.949 123.728C757.949 123.152 757.789 122.664 757.469 122.264C757.165 121.848 756.757 121.528 756.245 121.304C755.749 121.08 755.197 120.88 754.589 120.704C753.981 120.512 753.373 120.304 752.765 120.08C752.157 119.856 751.597 119.592 751.085 119.288C750.589 118.968 750.181 118.52 749.861 117.944C749.557 117.352 749.405 116.656 749.405 115.856C749.405 114.48 749.805 113.376 750.605 112.544C751.421 111.712 752.557 111.208 754.013 111.032V108.8H756.173V111.008C757.261 111.104 758.381 111.392 759.533 111.872V114.152C757.853 113.4 756.373 113.024 755.093 113.024C752.853 113.024 751.733 113.872 751.733 115.568C751.733 116.192 751.885 116.72 752.189 117.152C752.509 117.568 752.917 117.888 753.413 118.112C753.925 118.336 754.485 118.536 755.093 118.712C755.701 118.888 756.309 119.08 756.917 119.288C757.525 119.496 758.077 119.752 758.573 120.056C759.085 120.36 759.493 120.8 759.797 121.376C760.117 121.936 760.277 122.616 760.277 123.416ZM777.068 116.672C774.556 116.672 772.46 117.344 770.78 118.688V126.08H775.772V128H765.212V126.08H768.62V116.72H765.932V114.8H770.252L770.66 117.416C771.396 116.456 772.348 115.696 773.516 115.136C774.7 114.576 775.884 114.296 777.068 114.296V116.672ZM790.14 114.8H792.3V128H790.668L790.26 124.904C788.884 127.128 787.18 128.24 785.148 128.24C784.012 128.24 783.124 127.904 782.484 127.232C781.86 126.56 781.548 125.568 781.548 124.256V114.8H783.708V123.968C783.708 125.584 784.42 126.392 785.844 126.392C786.548 126.392 787.212 126.168 787.836 125.72C788.476 125.272 789.244 124.488 790.14 123.368V114.8ZM804.867 114.56C806.003 114.56 806.883 114.896 807.507 115.568C808.147 116.24 808.467 117.232 808.467 118.544V128H806.331V118.832C806.331 117.216 805.611 116.408 804.171 116.408C803.467 116.408 802.795 116.632 802.155 117.08C801.531 117.528 800.771 118.32 799.875 119.456V128H797.739V114.8H799.347L799.755 117.896C801.131 115.672 802.835 114.56 804.867 114.56ZM256.562 152.608C256.562 156.832 257.826 160.416 260.354 163.36H258.074C256.73 161.632 255.746 159.944 255.122 158.296C254.514 156.648 254.21 154.88 254.21 152.992C254.21 150.976 254.514 149.112 255.122 147.4C255.746 145.688 256.73 143.968 258.074 142.24H260.354C257.826 145.184 256.562 148.64 256.562 152.608ZM496.028 156.448H499.34V160L497.54 164.56H494.972L497.876 160H496.028V156.448ZM533.523 144.16H529.707V161.44H533.523V163.36H527.547V142.24H533.523V144.16ZM815.443 142.24H821.395V163.36H815.443V161.44H819.235V144.16H815.443V142.24ZM835.235 152.992C835.235 148.768 833.971 145.184 831.443 142.24H833.723C835.067 143.968 836.043 145.656 836.651 147.304C837.275 148.952 837.587 150.72 837.587 152.608C837.587 154.624 837.275 156.488 836.651 158.2C836.043 159.912 835.067 161.632 833.723 163.36H831.443C833.971 160.416 835.235 156.96 835.235 152.992ZM256.562 184.608C256.562 188.832 257.826 192.416 260.354 195.36H258.074C256.73 193.632 255.746 191.944 255.122 190.296C254.514 188.648 254.21 186.88 254.21 184.992C254.21 182.976 254.514 181.112 255.122 179.4C255.746 177.688 256.73 175.968 258.074 174.24H260.354C257.826 177.184 256.562 180.64 256.562 184.608ZM415.67 188.448H418.982V192L417.182 196.56H414.614L417.518 192H415.67V188.448ZM453.165 176.16H449.349V193.44H453.165V195.36H447.189V174.24H453.165V176.16ZM735.085 174.24H741.037V195.36H735.085V193.44H738.877V176.16H735.085V174.24ZM754.877 184.992C754.877 180.768 753.613 177.184 751.085 174.24H753.365C754.709 175.968 755.685 177.656 756.293 179.304C756.917 180.952 757.229 182.72 757.229 184.608C757.229 186.624 756.917 188.488 756.293 190.2C755.685 191.912 754.709 193.632 753.365 195.36H751.085C753.613 192.416 754.877 188.96 754.877 184.992ZM256.562 216.608C256.562 220.832 257.826 224.416 260.354 227.36H258.074C256.73 225.632 255.746 223.944 255.122 222.296C254.514 220.648 254.21 218.88 254.21 216.992C254.21 214.976 254.514 213.112 255.122 211.4C255.746 209.688 256.73 207.968 258.074 206.24H260.354C257.826 209.184 256.562 212.64 256.562 216.608ZM497.732 216.992C497.732 212.768 496.468 209.184 493.94 206.24H496.22C497.564 207.968 498.54 209.656 499.148 211.304C499.772 212.952 500.084 214.72 500.084 216.608C500.084 218.624 499.772 220.488 499.148 222.2C498.54 223.912 497.564 225.632 496.22 227.36H493.94C496.468 224.416 497.732 220.96 497.732 216.992ZM240.491 248.608C240.491 252.832 241.755 256.416 244.283 259.36H242.003C240.659 257.632 239.675 255.944 239.051 254.296C238.443 252.648 238.139 250.88 238.139 248.992C238.139 246.976 238.443 245.112 239.051 243.4C239.675 241.688 240.659 239.968 242.003 238.24H244.283C241.755 241.184 240.491 244.64 240.491 248.608ZM369.159 248.992C369.159 244.768 367.895 241.184 365.367 238.24H367.647C368.991 239.968 369.967 241.656 370.575 243.304C371.199 244.952 371.511 246.72 371.511 248.608C371.511 250.624 371.199 252.488 370.575 254.2C369.967 255.912 368.991 257.632 367.647 259.36H365.367C367.895 256.416 369.159 252.96 369.159 248.992ZM240.491 280.608C240.491 284.832 241.755 288.416 244.283 291.36H242.003C240.659 289.632 239.675 287.944 239.051 286.296C238.443 284.648 238.139 282.88 238.139 280.992C238.139 278.976 238.443 277.112 239.051 275.4C239.675 273.688 240.659 271.968 242.003 270.24H244.283C241.755 273.184 240.491 276.64 240.491 280.608ZM369.159 280.992C369.159 276.768 367.895 273.184 365.367 270.24H367.647C368.991 271.968 369.967 273.656 370.575 275.304C371.199 276.952 371.511 278.72 371.511 280.608C371.511 282.624 371.199 284.488 370.575 286.2C369.967 287.912 368.991 289.632 367.647 291.36H365.367C367.895 288.416 369.159 284.96 369.159 280.992Z" fill="#24292F"/>
<path d="M257.618 116.912H255.626L255.074 108.8H258.146L257.618 116.912ZM273.378 114.56C274.978 114.56 276.21 115.144 277.074 116.312C277.954 117.48 278.394 119.136 278.394 121.28C278.394 123.488 277.954 125.2 277.074 126.416C276.21 127.632 274.978 128.24 273.378 128.24C271.618 128.24 270.314 127.544 269.466 126.152V132.56H267.306V114.8H268.938L269.298 117.056C270.162 115.392 271.522 114.56 273.378 114.56ZM272.802 126.32C274.018 126.32 274.882 125.96 275.394 125.24C275.906 124.504 276.162 123.264 276.162 121.52C276.162 119.712 275.906 118.424 275.394 117.656C274.882 116.872 274.018 116.48 272.802 116.48C271.586 116.48 270.722 116.848 270.21 117.584C269.714 118.304 269.466 119.536 269.466 121.28C269.466 123.088 269.722 124.384 270.234 125.168C270.746 125.936 271.602 126.32 272.802 126.32ZM294.921 116.672C292.409 116.672 290.313 117.344 288.633 118.688V126.08H293.625V128H283.065V126.08H286.473V116.72H283.785V114.8H288.105L288.513 117.416C289.249 116.456 290.201 115.696 291.369 115.136C292.553 114.576 293.737 114.296 294.921 114.296V116.672ZM304.585 128.24C302.809 128.24 301.441 127.68 300.481 126.56C299.521 125.424 299.041 123.824 299.041 121.76C299.041 119.472 299.569 117.704 300.625 116.456C301.681 115.192 303.161 114.56 305.065 114.56C306.841 114.56 308.209 115.12 309.169 116.24C310.145 117.36 310.633 118.952 310.633 121.016C310.633 123.32 310.105 125.104 309.049 126.368C307.993 127.616 306.505 128.24 304.585 128.24ZM302.065 125.168C302.609 125.888 303.529 126.248 304.825 126.248C306.121 126.248 307.033 125.88 307.561 125.144C308.105 124.392 308.377 123.128 308.377 121.352C308.377 119.592 308.105 118.352 307.561 117.632C307.033 116.912 306.121 116.552 304.825 116.552C303.545 116.552 302.633 116.92 302.089 117.656C301.545 118.392 301.273 119.648 301.273 121.424C301.273 123.184 301.537 124.432 302.065 125.168ZM324.137 110.24H326.273V128H324.665L324.305 125.744C323.425 127.408 322.057 128.24 320.201 128.24C318.601 128.24 317.361 127.656 316.481 126.488C315.617 125.32 315.185 123.664 315.185 121.52C315.185 119.312 315.617 117.6 316.481 116.384C317.361 115.168 318.601 114.56 320.201 114.56C321.929 114.56 323.241 115.256 324.137 116.648V110.24ZM320.777 126.32C321.993 126.32 322.857 125.96 323.369 125.24C323.881 124.504 324.137 123.264 324.137 121.52C324.137 119.712 323.881 118.424 323.369 117.656C322.857 116.872 321.993 116.48 320.777 116.48C319.561 116.48 318.697 116.848 318.185 117.584C317.689 118.304 317.441 119.536 317.441 121.28C317.441 123.088 317.697 124.384 318.209 125.168C318.721 125.936 319.577 126.32 320.777 126.32ZM340.136 114.8H342.296V128H340.664L340.256 124.904C338.88 127.128 337.176 128.24 335.144 128.24C334.008 128.24 333.12 127.904 332.48 127.232C331.856 126.56 331.544 125.568 331.544 124.256V114.8H333.704V123.968C333.704 125.584 334.416 126.392 335.84 126.392C336.544 126.392 337.208 126.168 337.832 125.72C338.472 125.272 339.24 124.488 340.136 123.368V114.8ZM356.616 119.576C356.616 118.472 356.368 117.68 355.872 117.2C355.376 116.72 354.568 116.48 353.448 116.48C352.056 116.48 351.08 116.856 350.52 117.608C349.96 118.36 349.68 119.632 349.68 121.424C349.68 123.168 349.976 124.408 350.568 125.144C351.176 125.88 352.208 126.248 353.664 126.248C355.216 126.248 356.696 125.776 358.104 124.832V126.92C356.664 127.8 355.088 128.24 353.376 128.24C351.52 128.24 350.064 127.672 349.008 126.536C347.968 125.4 347.448 123.808 347.448 121.76C347.448 119.472 347.976 117.704 349.032 116.456C350.104 115.192 351.592 114.56 353.496 114.56C355.08 114.56 356.368 115.016 357.36 115.928C358.352 116.84 358.848 118.056 358.848 119.576H356.616ZM374.247 116.72H368.487V123.56C368.487 124.472 368.703 125.152 369.135 125.6C369.567 126.032 370.295 126.248 371.319 126.248C372.343 126.248 373.319 126.04 374.247 125.624V127.688C373.191 128.056 372.143 128.24 371.103 128.24C369.519 128.24 368.327 127.848 367.527 127.064C366.727 126.264 366.327 125.192 366.327 123.848V116.72H363.279V115.328L366.327 114.8L366.831 111.848H368.487V114.8H374.247V116.72ZM387.415 109.256V112.472H384.511V109.256H387.415ZM387.031 126.08H390.679V128H380.119V126.08H384.871V116.72H380.839V114.8H387.031V126.08ZM401.014 128.24C399.238 128.24 397.87 127.68 396.91 126.56C395.95 125.424 395.47 123.824 395.47 121.76C395.47 119.472 395.998 117.704 397.054 116.456C398.11 115.192 399.59 114.56 401.494 114.56C403.27 114.56 404.638 115.12 405.598 116.24C406.574 117.36 407.062 118.952 407.062 121.016C407.062 123.32 406.534 125.104 405.478 126.368C404.422 127.616 402.934 128.24 401.014 128.24ZM398.494 125.168C399.038 125.888 399.958 126.248 401.254 126.248C402.55 126.248 403.462 125.88 403.99 125.144C404.534 124.392 404.806 123.128 404.806 121.352C404.806 119.592 404.534 118.352 403.99 117.632C403.462 116.912 402.55 116.552 401.254 116.552C399.974 116.552 399.062 116.92 398.518 117.656C397.974 118.392 397.702 119.648 397.702 121.424C397.702 123.184 397.966 124.432 398.494 125.168ZM419.15 114.56C420.286 114.56 421.166 114.896 421.79 115.568C422.43 116.24 422.75 117.232 422.75 118.544V128H420.614V118.832C420.614 117.216 419.894 116.408 418.454 116.408C417.75 116.408 417.078 116.632 416.438 117.08C415.814 117.528 415.054 118.32 414.158 119.456V128H412.022V114.8H413.63L414.038 117.896C415.414 115.672 417.118 114.56 419.15 114.56ZM434.405 116.912H432.413L431.861 108.8H434.933L434.405 116.912ZM273.69 148.912H271.698L271.146 140.8H274.218L273.69 148.912ZM292.569 160L288.297 154.12H285.921V160H283.761V142.24H285.921V152.2H288.273L292.377 146.8H295.017L289.953 153.184L295.209 160H292.569ZM310.681 153.016C310.681 153.544 310.673 153.944 310.657 154.216H301.273C301.369 155.656 301.729 156.688 302.353 157.312C302.993 157.936 303.929 158.248 305.161 158.248C306.729 158.248 308.233 157.8 309.673 156.904V158.968C308.217 159.816 306.641 160.24 304.945 160.24C303.089 160.24 301.633 159.688 300.577 158.584C299.537 157.48 299.017 155.888 299.017 153.808C299.017 151.584 299.561 149.824 300.649 148.528C301.737 147.216 303.257 146.56 305.209 146.56C306.985 146.56 308.337 147.12 309.265 148.24C310.209 149.344 310.681 150.936 310.681 153.016ZM305.041 148.552C303.825 148.552 302.921 148.848 302.329 149.44C301.737 150.016 301.393 150.992 301.297 152.368H308.425C308.345 150.976 308.049 149.992 307.537 149.416C307.041 148.84 306.209 148.552 305.041 148.552ZM324.689 146.8H327.041L322.433 160.288C321.409 163.296 319.121 164.8 315.569 164.8V162.784C316.929 162.784 317.993 162.552 318.761 162.088C319.529 161.64 320.081 160.944 320.417 160H319.265L314.753 146.8H317.105L320.897 158.752L324.689 146.8ZM335.312 146.8H338.624V150.352H335.312V146.8ZM335.312 156.448H338.624V160H335.312V156.448ZM350.856 156.904C353.8 156.936 355.984 157.232 357.408 157.792C358.848 158.336 359.568 159.248 359.568 160.528C359.568 161.984 358.592 163.056 356.64 163.744C354.688 164.448 351.576 164.8 347.304 164.8V162.784C349.816 162.784 351.824 162.688 353.328 162.496C354.832 162.32 355.872 162.08 356.448 161.776C357.024 161.472 357.312 161.088 357.312 160.624C357.312 159.344 354.872 158.704 349.992 158.704L348.744 157.432L349.92 154.024C348.4 153.4 347.64 152.312 347.64 150.76C347.64 149.432 348.128 148.4 349.104 147.664C350.096 146.928 351.472 146.56 353.232 146.56C354.224 146.56 355.104 146.696 355.872 146.968L356.808 144.328H359.304L357.048 147.592C357.928 148.28 358.368 149.208 358.368 150.376C358.368 151.672 357.872 152.688 356.88 153.424C355.904 154.144 354.544 154.504 352.8 154.504C352.288 154.504 351.776 154.464 351.264 154.384L350.856 156.904ZM355.392 149.032C354.896 148.712 354.104 148.552 353.016 148.552C351.928 148.552 351.136 148.712 350.64 149.032C350.144 149.336 349.896 149.832 349.896 150.52C349.896 151.208 350.144 151.712 350.64 152.032C351.136 152.336 351.928 152.488 353.016 152.488C354.104 152.488 354.896 152.336 355.392 152.032C355.888 151.712 356.136 151.208 356.136 150.52C356.136 149.832 355.888 149.336 355.392 149.032ZM374.967 153.016C374.967 153.544 374.959 153.944 374.943 154.216H365.559C365.655 155.656 366.015 156.688 366.639 157.312C367.279 157.936 368.215 158.248 369.447 158.248C371.015 158.248 372.519 157.8 373.959 156.904V158.968C372.503 159.816 370.927 160.24 369.231 160.24C367.375 160.24 365.919 159.688 364.863 158.584C363.823 157.48 363.303 155.888 363.303 153.808C363.303 151.584 363.847 149.824 364.935 148.528C366.023 147.216 367.543 146.56 369.495 146.56C371.271 146.56 372.623 147.12 373.551 148.24C374.495 149.344 374.967 150.936 374.967 153.016ZM369.327 148.552C368.111 148.552 367.207 148.848 366.615 149.44C366.023 150.016 365.679 150.992 365.583 152.368H372.711C372.631 150.976 372.335 149.992 371.823 149.416C371.327 148.84 370.495 148.552 369.327 148.552ZM387.007 146.56C388.143 146.56 389.023 146.896 389.647 147.568C390.287 148.24 390.607 149.232 390.607 150.544V160H388.471V150.832C388.471 149.216 387.751 148.408 386.311 148.408C385.607 148.408 384.935 148.632 384.295 149.08C383.671 149.528 382.911 150.32 382.015 151.456V160H379.879V146.8H381.487L381.895 149.896C383.271 147.672 384.975 146.56 387.007 146.56ZM407.11 153.016C407.11 153.544 407.102 153.944 407.086 154.216H397.702C397.798 155.656 398.158 156.688 398.782 157.312C399.422 157.936 400.358 158.248 401.59 158.248C403.158 158.248 404.662 157.8 406.102 156.904V158.968C404.646 159.816 403.07 160.24 401.374 160.24C399.518 160.24 398.062 159.688 397.006 158.584C395.966 157.48 395.446 155.888 395.446 153.808C395.446 151.584 395.99 149.824 397.078 148.528C398.166 147.216 399.686 146.56 401.638 146.56C403.414 146.56 404.766 147.12 405.694 148.24C406.638 149.344 407.11 150.936 407.11 153.016ZM401.47 148.552C400.254 148.552 399.35 148.848 398.758 149.44C398.166 150.016 397.822 150.992 397.726 152.368H404.854C404.774 150.976 404.478 149.992 403.966 149.416C403.47 148.84 402.638 148.552 401.47 148.552ZM423.494 148.672C420.982 148.672 418.886 149.344 417.206 150.688V158.08H422.198V160H411.638V158.08H415.046V148.72H412.358V146.8H416.678L417.086 149.416C417.822 148.456 418.774 147.696 419.942 147.136C421.126 146.576 422.31 146.296 423.494 146.296V148.672ZM439.037 160H436.901L436.421 157.384C435.525 159.288 433.997 160.24 431.837 160.24C430.573 160.24 429.589 159.928 428.885 159.304C428.181 158.664 427.829 157.776 427.829 156.64C427.829 155.152 428.477 154.032 429.773 153.28C431.069 152.512 433.189 152.12 436.133 152.104V150.976C436.133 149.36 435.229 148.552 433.421 148.552C431.981 148.552 430.509 148.928 429.005 149.68V147.616C430.637 146.912 432.197 146.56 433.685 146.56C435.141 146.56 436.269 146.936 437.069 147.688C437.885 148.424 438.293 149.448 438.293 150.76V155.944L439.037 160ZM432.341 158.248C433.461 158.248 434.373 157.904 435.077 157.216C435.781 156.528 436.133 155.656 436.133 154.6V153.544C433.957 153.56 432.397 153.776 431.453 154.192C430.525 154.592 430.061 155.28 430.061 156.256C430.061 157.584 430.821 158.248 432.341 158.248ZM454.605 148.72H448.845V155.56C448.845 156.472 449.061 157.152 449.493 157.6C449.925 158.032 450.653 158.248 451.677 158.248C452.701 158.248 453.677 158.04 454.605 157.624V159.688C453.549 160.056 452.501 160.24 451.461 160.24C449.877 160.24 448.685 159.848 447.885 159.064C447.085 158.264 446.685 157.192 446.685 155.848V148.72H443.637V147.328L446.685 146.8L447.189 143.848H448.845V146.8H454.605V148.72ZM471.397 153.016C471.397 153.544 471.389 153.944 471.373 154.216H461.989C462.085 155.656 462.445 156.688 463.069 157.312C463.709 157.936 464.645 158.248 465.877 158.248C467.445 158.248 468.949 157.8 470.389 156.904V158.968C468.933 159.816 467.357 160.24 465.661 160.24C463.805 160.24 462.349 159.688 461.293 158.584C460.253 157.48 459.733 155.888 459.733 153.808C459.733 151.584 460.277 149.824 461.365 148.528C462.453 147.216 463.973 146.56 465.925 146.56C467.701 146.56 469.053 147.12 469.981 148.24C470.925 149.344 471.397 150.936 471.397 153.016ZM465.757 148.552C464.541 148.552 463.637 148.848 463.045 149.44C462.453 150.016 462.109 150.992 462.013 152.368H469.141C469.061 150.976 468.765 149.992 468.253 149.416C467.757 148.84 466.925 148.552 465.757 148.552ZM482.62 148.912H480.628L480.076 140.8H483.148L482.62 148.912ZM546.906 148.912H544.914L544.362 140.8H547.434L546.906 148.912ZM556.21 151.576H567.73V153.496H556.21V151.576ZM572.282 151.576H583.802V153.496H572.282V151.576ZM597.017 143.848C594.985 143.848 593.969 144.632 593.969 146.2V146.896H600.089V148.72H593.969V160H591.809V148.72H588.377V146.896H591.809V146.368C591.809 144.976 592.241 143.904 593.105 143.152C593.985 142.384 595.209 142 596.777 142C597.897 142 599.001 142.168 600.089 142.504V144.4C599.081 144.032 598.057 143.848 597.017 143.848ZM609.945 160.24C608.169 160.24 606.801 159.68 605.841 158.56C604.881 157.424 604.401 155.824 604.401 153.76C604.401 151.472 604.929 149.704 605.985 148.456C607.041 147.192 608.521 146.56 610.425 146.56C612.201 146.56 613.569 147.12 614.529 148.24C615.505 149.36 615.993 150.952 615.993 153.016C615.993 155.32 615.465 157.104 614.409 158.368C613.353 159.616 611.865 160.24 609.945 160.24ZM607.425 157.168C607.969 157.888 608.889 158.248 610.185 158.248C611.481 158.248 612.393 157.88 612.921 157.144C613.465 156.392 613.737 155.128 613.737 153.352C613.737 151.592 613.465 150.352 612.921 149.632C612.393 148.912 611.481 148.552 610.185 148.552C608.905 148.552 607.993 148.92 607.449 149.656C606.905 150.392 606.633 151.648 606.633 153.424C606.633 155.184 606.897 156.432 607.425 157.168ZM632.424 148.672C629.912 148.672 627.816 149.344 626.136 150.688V158.08H631.128V160H620.568V158.08H623.976V148.72H621.288V146.8H625.608L626.016 149.416C626.752 148.456 627.704 147.696 628.872 147.136C630.056 146.576 631.24 146.296 632.424 146.296V148.672ZM645.904 151.576C645.904 150.472 645.656 149.68 645.16 149.2C644.664 148.72 643.856 148.48 642.736 148.48C641.344 148.48 640.368 148.856 639.808 149.608C639.248 150.36 638.968 151.632 638.968 153.424C638.968 155.168 639.264 156.408 639.856 157.144C640.464 157.88 641.496 158.248 642.952 158.248C644.504 158.248 645.984 157.776 647.392 156.832V158.92C645.952 159.8 644.376 160.24 642.664 160.24C640.808 160.24 639.352 159.672 638.296 158.536C637.256 157.4 636.736 155.808 636.736 153.76C636.736 151.472 637.264 149.704 638.32 148.456C639.392 147.192 640.88 146.56 642.784 146.56C644.368 146.56 645.656 147.016 646.648 147.928C647.64 148.84 648.136 150.056 648.136 151.576H645.904ZM664.255 153.016C664.255 153.544 664.247 153.944 664.231 154.216H654.847C654.943 155.656 655.303 156.688 655.927 157.312C656.567 157.936 657.503 158.248 658.735 158.248C660.303 158.248 661.807 157.8 663.247 156.904V158.968C661.791 159.816 660.215 160.24 658.519 160.24C656.663 160.24 655.207 159.688 654.151 158.584C653.111 157.48 652.591 155.888 652.591 153.808C652.591 151.584 653.135 149.824 654.223 148.528C655.311 147.216 656.831 146.56 658.783 146.56C660.559 146.56 661.911 147.12 662.839 148.24C663.783 149.344 664.255 150.936 664.255 153.016ZM658.615 148.552C657.399 148.552 656.495 148.848 655.903 149.44C655.311 150.016 654.967 150.992 654.871 152.368H661.999C661.919 150.976 661.623 149.992 661.111 149.416C660.615 148.84 659.783 148.552 658.615 148.552ZM675.479 148.912H673.487L672.935 140.8H676.007L675.479 148.912ZM273.69 180.912H271.698L271.146 172.8H274.218L273.69 180.912ZM292.521 178.56C294.281 178.56 295.161 179.912 295.161 182.616V192H293.121V182.88C293.121 182.032 293.017 181.408 292.809 181.008C292.601 180.608 292.233 180.408 291.705 180.408C290.937 180.408 290.297 180.936 289.785 181.992C289.801 182.12 289.809 182.328 289.809 182.616V192H287.769V182.88C287.769 181.312 287.337 180.528 286.473 180.528C285.705 180.528 285.033 181.152 284.457 182.4V192H282.417V178.8H283.953L284.361 181.08C285.129 179.4 286.145 178.56 287.409 178.56C288.513 178.56 289.233 179.224 289.569 180.552C290.273 179.224 291.257 178.56 292.521 178.56ZM307.057 173.256V176.472H304.153V173.256H307.057ZM306.673 190.08H310.321V192H299.761V190.08H304.513V180.72H300.481V178.8H306.673V190.08ZM318.713 188.904C321.657 188.936 323.841 189.232 325.265 189.792C326.705 190.336 327.425 191.248 327.425 192.528C327.425 193.984 326.449 195.056 324.497 195.744C322.545 196.448 319.433 196.8 315.161 196.8V194.784C317.673 194.784 319.681 194.688 321.185 194.496C322.689 194.32 323.729 194.08 324.305 193.776C324.881 193.472 325.169 193.088 325.169 192.624C325.169 191.344 322.729 190.704 317.849 190.704L316.601 189.432L317.777 186.024C316.257 185.4 315.497 184.312 315.497 182.76C315.497 181.432 315.985 180.4 316.961 179.664C317.953 178.928 319.329 178.56 321.089 178.56C322.081 178.56 322.961 178.696 323.729 178.968L324.665 176.328H327.161L324.905 179.592C325.785 180.28 326.225 181.208 326.225 182.376C326.225 183.672 325.729 184.688 324.737 185.424C323.761 186.144 322.401 186.504 320.657 186.504C320.145 186.504 319.633 186.464 319.121 186.384L318.713 188.904ZM323.249 181.032C322.753 180.712 321.961 180.552 320.873 180.552C319.785 180.552 318.993 180.712 318.497 181.032C318.001 181.336 317.753 181.832 317.753 182.52C317.753 183.208 318.001 183.712 318.497 184.032C318.993 184.336 319.785 184.488 320.873 184.488C321.961 184.488 322.753 184.336 323.249 184.032C323.745 183.712 323.993 183.208 323.993 182.52C323.993 181.832 323.745 181.336 323.249 181.032ZM343.136 180.672C340.624 180.672 338.528 181.344 336.848 182.688V190.08H341.84V192H331.28V190.08H334.688V180.72H332V178.8H336.32L336.728 181.416C337.464 180.456 338.416 179.696 339.584 179.136C340.768 178.576 341.952 178.296 343.136 178.296V180.672ZM358.68 192H356.544L356.064 189.384C355.168 191.288 353.64 192.24 351.48 192.24C350.216 192.24 349.232 191.928 348.528 191.304C347.824 190.664 347.472 189.776 347.472 188.64C347.472 187.152 348.12 186.032 349.416 185.28C350.712 184.512 352.832 184.12 355.776 184.104V182.976C355.776 181.36 354.872 180.552 353.064 180.552C351.624 180.552 350.152 180.928 348.648 181.68V179.616C350.28 178.912 351.84 178.56 353.328 178.56C354.784 178.56 355.912 178.936 356.712 179.688C357.528 180.424 357.936 181.448 357.936 182.76V187.944L358.68 192ZM351.984 190.248C353.104 190.248 354.016 189.904 354.72 189.216C355.424 188.528 355.776 187.656 355.776 186.6V185.544C353.6 185.56 352.04 185.776 351.096 186.192C350.168 186.592 349.704 187.28 349.704 188.256C349.704 189.584 350.464 190.248 351.984 190.248ZM374.247 180.72H368.487V187.56C368.487 188.472 368.703 189.152 369.135 189.6C369.567 190.032 370.295 190.248 371.319 190.248C372.343 190.248 373.319 190.04 374.247 189.624V191.688C373.191 192.056 372.143 192.24 371.103 192.24C369.519 192.24 368.327 191.848 367.527 191.064C366.727 190.264 366.327 189.192 366.327 187.848V180.72H363.279V179.328L366.327 178.8L366.831 175.848H368.487V178.8H374.247V180.72ZM391.039 185.016C391.039 185.544 391.031 185.944 391.015 186.216H381.631C381.727 187.656 382.087 188.688 382.711 189.312C383.351 189.936 384.287 190.248 385.519 190.248C387.087 190.248 388.591 189.8 390.031 188.904V190.968C388.575 191.816 386.999 192.24 385.303 192.24C383.447 192.24 381.991 191.688 380.935 190.584C379.895 189.48 379.375 187.888 379.375 185.808C379.375 183.584 379.919 181.824 381.007 180.528C382.095 179.216 383.615 178.56 385.567 178.56C387.343 178.56 388.695 179.12 389.623 180.24C390.567 181.344 391.039 182.936 391.039 185.016ZM385.399 180.552C384.183 180.552 383.279 180.848 382.687 181.44C382.095 182.016 381.751 182.992 381.655 184.368H388.783C388.703 182.976 388.407 181.992 387.895 181.416C387.399 180.84 386.567 180.552 385.399 180.552ZM402.262 180.912H400.27L399.718 172.8H402.79L402.262 180.912ZM466.549 180.912H464.557L464.005 172.8H467.077L466.549 180.912ZM475.852 183.576H487.372V185.496H475.852V183.576ZM491.924 183.576H503.444V185.496H491.924V183.576ZM516.659 175.848C514.627 175.848 513.611 176.632 513.611 178.2V178.896H519.731V180.72H513.611V192H511.451V180.72H508.019V178.896H511.451V178.368C511.451 176.976 511.883 175.904 512.747 175.152C513.627 174.384 514.851 174 516.419 174C517.539 174 518.643 174.168 519.731 174.504V176.4C518.723 176.032 517.699 175.848 516.659 175.848ZM529.587 192.24C527.811 192.24 526.443 191.68 525.483 190.56C524.523 189.424 524.043 187.824 524.043 185.76C524.043 183.472 524.571 181.704 525.627 180.456C526.683 179.192 528.163 178.56 530.067 178.56C531.843 178.56 533.211 179.12 534.171 180.24C535.147 181.36 535.635 182.952 535.635 185.016C535.635 187.32 535.107 189.104 534.051 190.368C532.995 191.616 531.507 192.24 529.587 192.24ZM527.067 189.168C527.611 189.888 528.531 190.248 529.827 190.248C531.123 190.248 532.035 189.88 532.563 189.144C533.107 188.392 533.379 187.128 533.379 185.352C533.379 183.592 533.107 182.352 532.563 181.632C532.035 180.912 531.123 180.552 529.827 180.552C528.547 180.552 527.635 180.92 527.091 181.656C526.547 182.392 526.275 183.648 526.275 185.424C526.275 187.184 526.539 188.432 527.067 189.168ZM552.066 180.672C549.554 180.672 547.458 181.344 545.778 182.688V190.08H550.77V192H540.21V190.08H543.618V180.72H540.93V178.8H545.25L545.658 181.416C546.394 180.456 547.346 179.696 548.514 179.136C549.698 178.576 550.882 178.296 552.066 178.296V180.672ZM565.546 183.576C565.546 182.472 565.298 181.68 564.802 181.2C564.306 180.72 563.498 180.48 562.378 180.48C560.986 180.48 560.01 180.856 559.45 181.608C558.89 182.36 558.61 183.632 558.61 185.424C558.61 187.168 558.906 188.408 559.498 189.144C560.106 189.88 561.138 190.248 562.594 190.248C564.146 190.248 565.626 189.776 567.034 188.832V190.92C565.594 191.8 564.018 192.24 562.306 192.24C560.45 192.24 558.994 191.672 557.938 190.536C556.898 189.4 556.378 187.808 556.378 185.76C556.378 183.472 556.906 181.704 557.962 180.456C559.034 179.192 560.522 178.56 562.426 178.56C564.01 178.56 565.298 179.016 566.29 179.928C567.282 180.84 567.778 182.056 567.778 183.576H565.546ZM583.898 185.016C583.898 185.544 583.89 185.944 583.874 186.216H574.49C574.586 187.656 574.946 188.688 575.57 189.312C576.21 189.936 577.146 190.248 578.378 190.248C579.946 190.248 581.45 189.8 582.89 188.904V190.968C581.434 191.816 579.858 192.24 578.162 192.24C576.306 192.24 574.85 191.688 573.794 190.584C572.754 189.48 572.234 187.888 572.234 185.808C572.234 183.584 572.778 181.824 573.866 180.528C574.954 179.216 576.474 178.56 578.426 178.56C580.202 178.56 581.554 179.12 582.482 180.24C583.426 181.344 583.898 182.936 583.898 185.016ZM578.258 180.552C577.042 180.552 576.138 180.848 575.546 181.44C574.954 182.016 574.61 182.992 574.514 184.368H581.642C581.562 182.976 581.266 181.992 580.754 181.416C580.258 180.84 579.426 180.552 578.258 180.552ZM595.121 180.912H593.129L592.577 172.8H595.649L595.121 180.912ZM273.69 212.912H271.698L271.146 204.8H274.218L273.69 212.912ZM283.785 221.192C285.305 221.896 286.833 222.248 288.369 222.248C290.481 222.248 291.537 221.664 291.537 220.496C291.537 219.936 291.265 219.496 290.721 219.176C290.193 218.856 289.545 218.616 288.777 218.456C288.025 218.296 287.265 218.112 286.497 217.904C285.745 217.696 285.097 217.312 284.553 216.752C284.025 216.192 283.761 215.456 283.761 214.544C283.761 213.344 284.185 212.384 285.033 211.664C285.897 210.928 287.129 210.56 288.729 210.56C290.281 210.56 291.769 210.848 293.193 211.424V213.464C291.801 212.856 290.417 212.552 289.041 212.552C286.977 212.552 285.945 213.152 285.945 214.352C285.945 214.96 286.209 215.432 286.737 215.768C287.281 216.088 287.937 216.328 288.705 216.488C289.473 216.648 290.241 216.832 291.009 217.04C291.777 217.248 292.425 217.624 292.953 218.168C293.497 218.712 293.769 219.44 293.769 220.352C293.769 221.52 293.321 222.464 292.425 223.184C291.545 223.888 290.257 224.24 288.561 224.24C286.737 224.24 285.145 223.912 283.785 223.256V221.192ZM309.961 212.72H304.201V219.56C304.201 220.472 304.417 221.152 304.849 221.6C305.281 222.032 306.009 222.248 307.033 222.248C308.057 222.248 309.033 222.04 309.961 221.624V223.688C308.905 224.056 307.857 224.24 306.817 224.24C305.233 224.24 304.041 223.848 303.241 223.064C302.441 222.264 302.041 221.192 302.041 219.848V212.72H298.993V211.328L302.041 210.8L302.545 207.848H304.201V210.8H309.961V212.72ZM320.657 224.24C318.881 224.24 317.513 223.68 316.553 222.56C315.593 221.424 315.113 219.824 315.113 217.76C315.113 215.472 315.641 213.704 316.697 212.456C317.753 211.192 319.233 210.56 321.137 210.56C322.913 210.56 324.281 211.12 325.241 212.24C326.217 213.36 326.705 214.952 326.705 217.016C326.705 219.32 326.177 221.104 325.121 222.368C324.065 223.616 322.577 224.24 320.657 224.24ZM318.137 221.168C318.681 221.888 319.601 222.248 320.897 222.248C322.193 222.248 323.105 221.88 323.633 221.144C324.177 220.392 324.449 219.128 324.449 217.352C324.449 215.592 324.177 214.352 323.633 213.632C323.105 212.912 322.193 212.552 320.897 212.552C319.617 212.552 318.705 212.92 318.161 213.656C317.617 214.392 317.345 215.648 317.345 217.424C317.345 219.184 317.609 220.432 318.137 221.168ZM343.136 212.672C340.624 212.672 338.528 213.344 336.848 214.688V222.08H341.84V224H331.28V222.08H334.688V212.72H332V210.8H336.32L336.728 213.416C337.464 212.456 338.416 211.696 339.584 211.136C340.768 210.576 341.952 210.296 343.136 210.296V212.672ZM358.68 224H356.544L356.064 221.384C355.168 223.288 353.64 224.24 351.48 224.24C350.216 224.24 349.232 223.928 348.528 223.304C347.824 222.664 347.472 221.776 347.472 220.64C347.472 219.152 348.12 218.032 349.416 217.28C350.712 216.512 352.832 216.12 355.776 216.104V214.976C355.776 213.36 354.872 212.552 353.064 212.552C351.624 212.552 350.152 212.928 348.648 213.68V211.616C350.28 210.912 351.84 210.56 353.328 210.56C354.784 210.56 355.912 210.936 356.712 211.688C357.528 212.424 357.936 213.448 357.936 214.76V219.944L358.68 224ZM351.984 222.248C353.104 222.248 354.016 221.904 354.72 221.216C355.424 220.528 355.776 219.656 355.776 218.6V217.544C353.6 217.56 352.04 217.776 351.096 218.192C350.168 218.592 349.704 219.28 349.704 220.256C349.704 221.584 350.464 222.248 351.984 222.248ZM366.927 220.904C369.871 220.936 372.055 221.232 373.479 221.792C374.919 222.336 375.639 223.248 375.639 224.528C375.639 225.984 374.663 227.056 372.711 227.744C370.759 228.448 367.647 228.8 363.375 228.8V226.784C365.887 226.784 367.895 226.688 369.399 226.496C370.903 226.32 371.943 226.08 372.519 225.776C373.095 225.472 373.383 225.088 373.383 224.624C373.383 223.344 370.943 222.704 366.063 222.704L364.815 221.432L365.991 218.024C364.471 217.4 363.711 216.312 363.711 214.76C363.711 213.432 364.199 212.4 365.175 211.664C366.167 210.928 367.543 210.56 369.303 210.56C370.295 210.56 371.175 210.696 371.943 210.968L372.879 208.328H375.375L373.119 211.592C373.999 212.28 374.439 213.208 374.439 214.376C374.439 215.672 373.943 216.688 372.951 217.424C371.975 218.144 370.615 218.504 368.871 218.504C368.359 218.504 367.847 218.464 367.335 218.384L366.927 220.904ZM371.463 213.032C370.967 212.712 370.175 212.552 369.087 212.552C367.999 212.552 367.207 212.712 366.711 213.032C366.215 213.336 365.967 213.832 365.967 214.52C365.967 215.208 366.215 215.712 366.711 216.032C367.207 216.336 367.999 216.488 369.087 216.488C370.175 216.488 370.967 216.336 371.463 216.032C371.959 215.712 372.207 215.208 372.207 214.52C372.207 213.832 371.959 213.336 371.463 213.032ZM391.039 217.016C391.039 217.544 391.031 217.944 391.015 218.216H381.631C381.727 219.656 382.087 220.688 382.711 221.312C383.351 221.936 384.287 222.248 385.519 222.248C387.087 222.248 388.591 221.8 390.031 220.904V222.968C388.575 223.816 386.999 224.24 385.303 224.24C383.447 224.24 381.991 223.688 380.935 222.584C379.895 221.48 379.375 219.888 379.375 217.808C379.375 215.584 379.919 213.824 381.007 212.528C382.095 211.216 383.615 210.56 385.567 210.56C387.343 210.56 388.695 211.12 389.623 212.24C390.567 213.344 391.039 214.936 391.039 217.016ZM385.399 212.552C384.183 212.552 383.279 212.848 382.687 213.44C382.095 214.016 381.751 214.992 381.655 216.368H388.783C388.703 214.976 388.407 213.992 387.895 213.416C387.399 212.84 386.567 212.552 385.399 212.552ZM399.598 210.8H402.91V214.352H399.598V210.8ZM399.598 220.448H402.91V224H399.598V220.448ZM420.662 222.248C421.718 222.248 422.734 221.944 423.71 221.336V223.352C422.606 223.944 421.462 224.24 420.278 224.24C418.774 224.24 417.622 223.784 416.822 222.872C416.022 221.944 415.622 220.568 415.622 218.744V208.16H410.942V206.24H417.782V218.552C417.782 221.016 418.742 222.248 420.662 222.248ZM435.629 205.256V208.472H432.725V205.256H435.629ZM435.245 222.08H438.893V224H428.333V222.08H433.085V212.72H429.053V210.8H435.245V222.08ZM451.293 210.56C452.429 210.56 453.309 210.896 453.933 211.568C454.573 212.24 454.893 213.232 454.893 214.544V224H452.757V214.832C452.757 213.216 452.037 212.408 450.597 212.408C449.893 212.408 449.221 212.632 448.581 213.08C447.957 213.528 447.197 214.32 446.301 215.456V224H444.165V210.8H445.773L446.181 213.896C447.557 211.672 449.261 210.56 451.293 210.56ZM469.357 224L465.085 218.12H462.709V224H460.549V206.24H462.709V216.2H465.061L469.165 210.8H471.805L466.741 217.184L471.997 224H469.357ZM482.62 212.912H480.628L480.076 204.8H483.148L482.62 212.912ZM257.618 244.912H255.626L255.074 236.8H258.146L257.618 244.912ZM276.258 247.576C276.258 246.472 276.01 245.68 275.514 245.2C275.018 244.72 274.21 244.48 273.09 244.48C271.698 244.48 270.722 244.856 270.162 245.608C269.602 246.36 269.322 247.632 269.322 249.424C269.322 251.168 269.618 252.408 270.21 253.144C270.818 253.88 271.85 254.248 273.306 254.248C274.858 254.248 276.338 253.776 277.746 252.832V254.92C276.306 255.8 274.73 256.24 273.018 256.24C271.162 256.24 269.706 255.672 268.65 254.536C267.61 253.4 267.09 251.808 267.09 249.76C267.09 247.472 267.618 245.704 268.674 244.456C269.746 243.192 271.234 242.56 273.138 242.56C274.722 242.56 276.01 243.016 277.002 243.928C277.994 244.84 278.49 246.056 278.49 247.576H276.258ZM294.393 256H292.257L291.777 253.384C290.881 255.288 289.353 256.24 287.193 256.24C285.929 256.24 284.945 255.928 284.241 255.304C283.537 254.664 283.185 253.776 283.185 252.64C283.185 251.152 283.833 250.032 285.129 249.28C286.425 248.512 288.545 248.12 291.489 248.104V246.976C291.489 245.36 290.585 244.552 288.777 244.552C287.337 244.552 285.865 244.928 284.361 245.68V243.616C285.993 242.912 287.553 242.56 289.041 242.56C290.497 242.56 291.625 242.936 292.425 243.688C293.241 244.424 293.649 245.448 293.649 246.76V251.944L294.393 256ZM287.697 254.248C288.817 254.248 289.729 253.904 290.433 253.216C291.137 252.528 291.489 251.656 291.489 250.6V249.544C289.313 249.56 287.753 249.776 286.809 250.192C285.881 250.592 285.417 251.28 285.417 252.256C285.417 253.584 286.177 254.248 287.697 254.248ZM308.401 247.576C308.401 246.472 308.153 245.68 307.657 245.2C307.161 244.72 306.353 244.48 305.233 244.48C303.841 244.48 302.865 244.856 302.305 245.608C301.745 246.36 301.465 247.632 301.465 249.424C301.465 251.168 301.761 252.408 302.353 253.144C302.961 253.88 303.993 254.248 305.449 254.248C307.001 254.248 308.481 253.776 309.889 252.832V254.92C308.449 255.8 306.873 256.24 305.161 256.24C303.305 256.24 301.849 255.672 300.793 254.536C299.753 253.4 299.233 251.808 299.233 249.76C299.233 247.472 299.761 245.704 300.817 244.456C301.889 243.192 303.377 242.56 305.281 242.56C306.865 242.56 308.153 243.016 309.145 243.928C310.137 244.84 310.633 246.056 310.633 247.576H308.401ZM322.697 242.56C323.769 242.56 324.593 242.896 325.169 243.568C325.761 244.24 326.057 245.232 326.057 246.544V256H323.897V246.832C323.897 245.216 323.265 244.408 322.001 244.408C321.329 244.408 320.697 244.632 320.105 245.08C319.513 245.512 318.793 246.288 317.945 247.408V256H315.785V238.24H317.945V245.656C319.241 243.592 320.825 242.56 322.697 242.56ZM342.824 249.016C342.824 249.544 342.816 249.944 342.8 250.216H333.416C333.512 251.656 333.872 252.688 334.496 253.312C335.136 253.936 336.072 254.248 337.304 254.248C338.872 254.248 340.376 253.8 341.816 252.904V254.968C340.36 255.816 338.784 256.24 337.088 256.24C335.232 256.24 333.776 255.688 332.72 254.584C331.68 253.48 331.16 251.888 331.16 249.808C331.16 247.584 331.704 245.824 332.792 244.528C333.88 243.216 335.4 242.56 337.352 242.56C339.128 242.56 340.48 243.12 341.408 244.24C342.352 245.344 342.824 246.936 342.824 249.016ZM337.184 244.552C335.968 244.552 335.064 244.848 334.472 245.44C333.88 246.016 333.536 246.992 333.44 248.368H340.568C340.488 246.976 340.192 245.992 339.68 245.416C339.184 244.84 338.352 244.552 337.184 244.552ZM354.048 244.912H352.056L351.504 236.8H354.576L354.048 244.912ZM257.618 276.912H255.626L255.074 268.8H258.146L257.618 276.912ZM273.45 274.56C274.986 274.56 276.17 275.136 277.002 276.288C277.85 277.424 278.274 279.04 278.274 281.136C278.274 283.408 277.682 285.16 276.498 286.392C275.33 287.624 273.618 288.24 271.362 288.24C270.034 288.24 268.706 288.08 267.378 287.76V270.24H269.538V276.792C270.402 275.304 271.706 274.56 273.45 274.56ZM271.386 286.368C273.05 286.368 274.242 285.976 274.962 285.192C275.682 284.392 276.042 283.088 276.042 281.28C276.042 279.536 275.794 278.304 275.298 277.584C274.818 276.848 274.002 276.48 272.85 276.48C271.698 276.48 270.858 276.872 270.33 277.656C269.802 278.424 269.538 279.648 269.538 281.328V286.2C270.098 286.312 270.714 286.368 271.386 286.368ZM291.921 274.8H294.081V288H292.449L292.041 284.904C290.665 287.128 288.961 288.24 286.929 288.24C285.793 288.24 284.905 287.904 284.265 287.232C283.641 286.56 283.329 285.568 283.329 284.256V274.8H285.489V283.968C285.489 285.584 286.201 286.392 287.625 286.392C288.329 286.392 288.993 286.168 289.617 285.72C290.257 285.272 291.025 284.488 291.921 283.368V274.8ZM307.057 269.256V272.472H304.153V269.256H307.057ZM306.673 286.08H310.321V288H299.761V286.08H304.513V276.72H300.481V274.8H306.673V286.08ZM324.233 286.248C325.289 286.248 326.305 285.944 327.281 285.336V287.352C326.177 287.944 325.033 288.24 323.849 288.24C322.345 288.24 321.193 287.784 320.393 286.872C319.593 285.944 319.193 284.568 319.193 282.744V272.16H314.513V270.24H321.353V282.552C321.353 285.016 322.313 286.248 324.233 286.248ZM340.208 270.24H342.344V288H340.736L340.376 285.744C339.496 287.408 338.128 288.24 336.272 288.24C334.672 288.24 333.432 287.656 332.552 286.488C331.688 285.32 331.256 283.664 331.256 281.52C331.256 279.312 331.688 277.6 332.552 276.384C333.432 275.168 334.672 274.56 336.272 274.56C338 274.56 339.312 275.256 340.208 276.648V270.24ZM336.848 286.32C338.064 286.32 338.928 285.96 339.44 285.24C339.952 284.504 340.208 283.264 340.208 281.52C340.208 279.712 339.952 278.424 339.44 277.656C338.928 276.872 338.064 276.48 336.848 276.48C335.632 276.48 334.768 276.848 334.256 277.584C333.76 278.304 333.512 279.536 333.512 281.28C333.512 283.088 333.768 284.384 334.28 285.168C334.792 285.936 335.648 286.32 336.848 286.32ZM354.048 276.912H352.056L351.504 268.8H354.576L354.048 276.912ZM47.728 312.992C47.728 308.768 46.464 305.184 43.936 302.24H46.216C47.56 303.968 48.536 305.656 49.144 307.304C49.768 308.952 50.08 310.72 50.08 312.608C50.08 314.624 49.768 316.488 49.144 318.2C48.536 319.912 47.56 321.632 46.216 323.36H43.936C46.464 320.416 47.728 316.96 47.728 312.992ZM62.0956 306.8H65.4076V310.352H62.0956V306.8ZM62.0956 320V316.448H65.4076V320L63.6076 324.56H61.0396L63.9436 320H62.0956Z" fill="#0A3069"/>
<path d="M529.779 120.608C529.779 124.832 531.043 128.416 533.571 131.36H531.291C529.947 129.632 528.963 127.944 528.339 126.296C527.731 124.648 527.427 122.88 527.427 120.992C527.427 118.976 527.731 117.112 528.339 115.4C528.963 113.688 529.947 111.968 531.291 110.24H533.571C531.043 113.184 529.779 116.64 529.779 120.608Z" fill="black"/>
<line x1="-8.74228e-08" y1="65" x2="907" y2="64.9999" stroke="white" stroke-width="2"/>
<rect x="1" y="1" width="905" height="373" rx="15" stroke="white" stroke-width="2"/>
</g>
<rect x="0.5" y="0.5" width="906" height="374" rx="15.5" stroke="#D4D4D4"/>
<defs>
<clipPath id="clip0_4126_36">
<rect width="907" height="375" rx="16" fill="white"/>
</clipPath>
</defs>
</svg>
