<svg width="470" height="100" viewBox="0 0 470 100" fill="none" xmlns="http://www.w3.org/2000/svg">
<path d="M245.972 70.378C243.92 70.378 242.318 69.838 241.166 68.758C240.014 67.642 239.438 66.148 239.438 64.276V41.056C239.438 40.048 239.294 39.094 239.006 38.194C238.718 37.294 238.214 36.556 237.494 35.98C236.774 35.404 235.73 35.116 234.362 35.116C233.138 35.116 232.148 35.404 231.392 35.98C230.636 36.556 230.078 37.348 229.718 38.356C229.358 39.328 229.16 40.462 229.124 41.758V42.46H234.308V47.05H229.124V70H223.184V47.05H219.404V42.46H223.184V40.84C223.184 38.572 223.616 36.646 224.48 35.062C225.344 33.442 226.604 32.2 228.26 31.336C229.916 30.472 231.914 30.04 234.254 30.04C238.034 30.04 240.824 30.958 242.624 32.794C244.46 34.594 245.378 36.934 245.378 39.814V61.738C245.378 63.106 245.576 64.006 245.972 64.438C246.404 64.87 246.944 65.086 247.592 65.086C248.312 65.086 249.014 64.996 249.698 64.816C250.418 64.636 250.958 64.474 251.318 64.33L252.182 69.136C251.786 69.316 251.228 69.496 250.508 69.676C249.788 69.856 249.032 70.018 248.24 70.162C247.448 70.306 246.692 70.378 245.972 70.378ZM268.268 70.54C266.036 70.54 264.038 70.162 262.274 69.406C260.51 68.614 258.98 67.534 257.684 66.166C256.424 64.798 255.452 63.25 254.768 61.522C254.084 59.758 253.742 57.886 253.742 55.906C253.742 53.926 254.084 52.054 254.768 50.29C255.452 48.526 256.424 46.978 257.684 45.646C258.98 44.278 260.51 43.216 262.274 42.46C264.074 41.668 266.072 41.272 268.268 41.272C270.464 41.272 272.444 41.668 274.208 42.46C276.008 43.216 277.538 44.278 278.798 45.646C280.094 46.978 281.084 48.526 281.768 50.29C282.452 52.054 282.794 53.926 282.794 55.906C282.794 57.886 282.452 59.758 281.768 61.522C281.084 63.25 280.094 64.798 278.798 66.166C277.538 67.534 276.008 68.614 274.208 69.406C272.444 70.162 270.464 70.54 268.268 70.54ZM259.844 55.96C259.844 57.76 260.222 59.38 260.978 60.82C261.734 62.26 262.742 63.394 264.002 64.222C265.262 65.05 266.684 65.464 268.268 65.464C269.816 65.464 271.22 65.05 272.48 64.222C273.776 63.358 274.802 62.206 275.558 60.766C276.314 59.29 276.692 57.67 276.692 55.906C276.692 54.106 276.314 52.486 275.558 51.046C274.802 49.606 273.776 48.472 272.48 47.644C271.22 46.78 269.816 46.348 268.268 46.348C266.684 46.348 265.262 46.78 264.002 47.644C262.742 48.508 261.734 49.66 260.978 51.1C260.222 52.504 259.844 54.124 259.844 55.96ZM303.938 46.888C301.634 46.924 299.582 47.446 297.782 48.454C296.018 49.462 294.758 50.884 294.002 52.72V70H288.062V41.758H293.57V48.076C294.542 46.132 295.82 44.584 297.404 43.432C298.988 42.244 300.662 41.596 302.426 41.488C302.786 41.488 303.074 41.488 303.29 41.488C303.542 41.488 303.758 41.506 303.938 41.542V46.888ZM306.155 61.738C306.155 59.938 306.659 58.372 307.667 57.04C308.711 55.672 310.133 54.628 311.933 53.908C313.733 53.152 315.821 52.774 318.197 52.774C319.457 52.774 320.735 52.864 322.031 53.044C323.363 53.224 324.533 53.512 325.541 53.908V52.126C325.541 50.146 324.947 48.598 323.759 47.482C322.571 46.366 320.861 45.808 318.629 45.808C317.045 45.808 315.551 46.096 314.147 46.672C312.743 47.212 311.249 47.986 309.665 48.994L307.667 44.998C309.539 43.738 311.411 42.802 313.283 42.19C315.191 41.578 317.189 41.272 319.277 41.272C323.057 41.272 326.027 42.28 328.187 44.296C330.383 46.276 331.481 49.102 331.481 52.774V63.304C331.481 63.988 331.589 64.474 331.805 64.762C332.057 65.05 332.471 65.212 333.047 65.248V70C332.507 70.108 332.021 70.18 331.589 70.216C331.157 70.252 330.797 70.27 330.509 70.27C329.249 70.27 328.295 69.964 327.647 69.352C326.999 68.74 326.621 68.02 326.513 67.192L326.351 65.572C325.127 67.156 323.561 68.38 321.653 69.244C319.745 70.108 317.819 70.54 315.875 70.54C314.003 70.54 312.329 70.162 310.853 69.406C309.377 68.614 308.225 67.552 307.397 66.22C306.569 64.888 306.155 63.394 306.155 61.738ZM324.137 63.466C324.569 62.998 324.911 62.53 325.163 62.062C325.415 61.594 325.541 61.18 325.541 60.82V57.58C324.533 57.184 323.471 56.896 322.355 56.716C321.239 56.5 320.141 56.392 319.061 56.392C316.901 56.392 315.137 56.824 313.769 57.688C312.437 58.552 311.771 59.74 311.771 61.252C311.771 62.08 311.987 62.872 312.419 63.628C312.887 64.384 313.535 64.996 314.363 65.464C315.227 65.932 316.289 66.166 317.549 66.166C318.845 66.166 320.087 65.914 321.275 65.41C322.463 64.906 323.417 64.258 324.137 63.466Z" fill="black"/>
<g filter="url(#filter0_ddii_3740_26942)">
<rect x="134" y="14" width="72" height="72" rx="36" fill="url(#paint0_linear_3740_26942)"/>
<path d="M171.052 51.7663C170.527 52.3606 169.473 52.3606 168.948 51.7663C168.724 51.5141 168.486 51.2756 168.234 51.0525C167.639 50.5268 167.639 49.4733 168.234 48.9476C168.486 48.7245 168.724 48.486 168.948 48.2338C169.473 47.6395 170.527 47.6395 171.052 48.2338C171.276 48.486 171.514 48.7245 171.766 48.9476C172.361 49.4733 172.361 50.5268 171.766 51.0525C171.514 51.2756 171.276 51.5141 171.052 51.7663Z" fill="white"/>
<path fill-rule="evenodd" clip-rule="evenodd" d="M188.641 50.5562C188.441 50.2129 188.441 49.7872 188.641 49.4439C189.777 47.4915 190.428 45.2218 190.428 42.8001C190.428 35.4945 184.506 29.5721 177.2 29.5721C174.778 29.5721 172.509 30.2229 170.556 31.3592C170.213 31.5589 169.787 31.5589 169.444 31.3592C167.491 30.2229 165.222 29.5721 162.8 29.5721C155.494 29.5721 149.572 35.4945 149.572 42.8001C149.572 45.2218 150.223 47.4915 151.359 49.4439C151.559 49.7872 151.559 50.2129 151.359 50.5562C150.223 52.5086 149.572 54.7783 149.572 57.2001C149.572 64.5056 155.494 70.428 162.8 70.428C165.222 70.428 167.491 69.7772 169.444 68.6409C169.787 68.4412 170.213 68.4412 170.556 68.6409C172.509 69.7772 174.778 70.428 177.2 70.428C184.506 70.428 190.428 64.5056 190.428 57.2001C190.428 54.7783 189.777 52.5086 188.641 50.5562ZM171.052 62.6338C170.527 62.0395 169.473 62.0395 168.948 62.6338C168.204 63.4743 167.291 64.1612 166.262 64.6408C165.21 65.131 164.037 65.4047 162.8 65.4047C158.269 65.4047 154.595 61.7314 154.595 57.2001C154.595 55.9631 154.869 54.7901 155.359 53.7384C155.839 52.7091 156.526 51.796 157.366 51.0525C157.961 50.5268 157.961 49.4733 157.366 48.9476C156.526 48.2041 155.839 47.291 155.359 46.2617C154.869 45.21 154.595 44.037 154.595 42.8001C154.595 38.2687 158.269 34.5954 162.8 34.5954C164.037 34.5954 165.21 34.8691 166.262 35.3593C167.291 35.8389 168.204 36.5258 168.948 37.3663C169.473 37.9606 170.527 37.9606 171.052 37.3663C171.796 36.5258 172.709 35.8389 173.738 35.3593C174.79 34.8691 175.963 34.5954 177.2 34.5954C181.731 34.5954 185.405 38.2687 185.405 42.8001C185.405 44.037 185.131 45.21 184.641 46.2617C184.161 47.291 183.474 48.2041 182.634 48.9476C182.039 49.4733 182.039 50.5268 182.634 51.0525C183.474 51.796 184.161 52.7091 184.641 53.7384C185.131 54.7901 185.405 55.9631 185.405 57.2001C185.405 61.7314 181.731 65.4047 177.2 65.4047C175.963 65.4047 174.79 65.131 173.738 64.6408C172.709 64.1612 171.796 63.4743 171.052 62.6338Z" fill="white"/>
<circle cx="170" cy="50" r="5.69302" fill="white"/>
</g>
<path d="M372 53L364 49L356 53M372 53L364 57M372 53V63L364 67M364 57L356 53M364 57V67M356 53V63L364 67" stroke="#FF2D20" stroke-width="1.5" stroke-linejoin="round"/>
<path d="M384.474 55.8636V56.858H380.358V55.8636H384.474ZM381.591 63.5V54.8097C381.591 54.3722 381.694 54.0076 381.899 53.7159C382.105 53.4242 382.371 53.2055 382.7 53.0597C383.028 52.9138 383.374 52.8409 383.739 52.8409C384.027 52.8409 384.262 52.8641 384.445 52.9105C384.627 52.9569 384.763 53 384.852 53.0398L384.514 54.054C384.455 54.0341 384.372 54.0092 384.266 53.9794C384.163 53.9496 384.027 53.9347 383.858 53.9347C383.47 53.9347 383.19 54.0324 383.018 54.228C382.849 54.4235 382.764 54.7102 382.764 55.0881V63.5H381.591ZM388.907 63.6591C388.217 63.6591 387.612 63.495 387.092 63.1669C386.575 62.8388 386.171 62.3797 385.879 61.7898C385.591 61.1998 385.446 60.5104 385.446 59.7216C385.446 58.9261 385.591 58.2318 385.879 57.6385C386.171 57.0452 386.575 56.5845 387.092 56.2564C387.612 55.9283 388.217 55.7642 388.907 55.7642C389.596 55.7642 390.199 55.9283 390.716 56.2564C391.237 56.5845 391.641 57.0452 391.929 57.6385C392.221 58.2318 392.367 58.9261 392.367 59.7216C392.367 60.5104 392.221 61.1998 391.929 61.7898C391.641 62.3797 391.237 62.8388 390.716 63.1669C390.199 63.495 389.596 63.6591 388.907 63.6591ZM388.907 62.6051C389.43 62.6051 389.861 62.4709 390.199 62.2024C390.537 61.9339 390.788 61.581 390.95 61.1435C391.112 60.706 391.194 60.232 391.194 59.7216C391.194 59.2112 391.112 58.7356 390.95 58.2947C390.788 57.8539 390.537 57.4976 390.199 57.2259C389.861 56.9541 389.43 56.8182 388.907 56.8182C388.383 56.8182 387.952 56.9541 387.614 57.2259C387.276 57.4976 387.026 57.8539 386.863 58.2947C386.701 58.7356 386.62 59.2112 386.62 59.7216C386.62 60.232 386.701 60.706 386.863 61.1435C387.026 61.581 387.276 61.9339 387.614 62.2024C387.952 62.4709 388.383 62.6051 388.907 62.6051ZM394.158 63.5V55.8636H395.291V57.017H395.371C395.51 56.6392 395.762 56.3326 396.127 56.0973C396.491 55.862 396.902 55.7443 397.36 55.7443C397.446 55.7443 397.553 55.746 397.683 55.7493C397.812 55.7526 397.91 55.7576 397.976 55.7642V56.9574C397.936 56.9474 397.845 56.9325 397.703 56.9126C397.563 56.8894 397.416 56.8778 397.26 56.8778C396.889 56.8778 396.557 56.9557 396.266 57.1115C395.977 57.264 395.749 57.4761 395.58 57.7479C395.414 58.0163 395.331 58.3229 395.331 58.6676V63.5H394.158Z" fill="#FF2D20"/>
<path d="M404.939 51.8711H403V63.6689H408.582V61.9329H404.939V51.8711Z" fill="#FF2D20"/>
<path d="M415.459 57.1352C415.212 56.7419 414.86 56.433 414.405 56.2082C413.95 55.9835 413.492 55.8711 413.031 55.8711C412.435 55.8711 411.889 55.9807 411.395 56.1997C410.9 56.4188 410.476 56.7196 410.121 57.1015C409.767 57.4836 409.492 57.9246 409.295 58.4244C409.098 58.9245 409 59.45 409 60.0004C409 60.5623 409.098 61.0904 409.295 61.5846C409.492 62.0792 409.767 62.5174 410.121 62.8993C410.476 63.2814 410.9 63.5819 411.395 63.8009C411.889 64.02 412.435 64.1296 413.031 64.1296C413.492 64.1296 413.95 64.0171 414.405 63.7926C414.86 63.568 415.212 63.259 415.459 62.8656V63.9274H417.297V56.0734H415.459V57.1352ZM415.29 60.961C415.178 61.2644 415.021 61.5285 414.818 61.7532C414.616 61.978 414.371 62.1577 414.085 62.2925C413.798 62.4274 413.48 62.4947 413.132 62.4947C412.783 62.4947 412.468 62.4274 412.187 62.2925C411.906 62.1576 411.665 61.978 411.462 61.7532C411.26 61.5285 411.105 61.2644 410.998 60.961C410.891 60.6577 410.838 60.3374 410.838 60.0004C410.838 59.6633 410.891 59.343 410.998 59.0397C411.105 58.7363 411.26 58.4724 411.462 58.2476C411.665 58.023 411.906 57.843 412.187 57.7083C412.468 57.5734 412.783 57.506 413.132 57.506C413.48 57.506 413.798 57.5734 414.085 57.7083C414.371 57.8432 414.616 58.023 414.818 58.2476C415.021 58.4724 415.178 58.7363 415.29 59.0397C415.403 59.343 415.459 59.6633 415.459 60.0004C415.459 60.3374 415.403 60.6577 415.29 60.961Z" fill="#FF2D20"/>
<path d="M430.37 56.8765C430.123 56.4832 429.771 56.1744 429.316 55.9495C428.861 55.7248 428.403 55.6124 427.942 55.6124C427.346 55.6124 426.8 55.722 426.306 55.9411C425.811 56.1601 425.387 56.461 425.033 56.8428C424.678 57.2249 424.403 57.6659 424.206 58.1657C424.009 58.6659 423.911 59.1913 423.911 59.7417C423.911 60.3036 424.009 60.8317 424.206 61.3259C424.403 61.8205 424.678 62.2588 425.033 62.6406C425.387 63.0227 425.811 63.3232 426.306 63.5422C426.8 63.7613 427.346 63.8709 427.942 63.8709C428.403 63.8709 428.861 63.7585 429.316 63.5339C429.771 63.3093 430.123 63.0003 430.37 62.6069V63.6688H432.208V55.8148H430.37V56.8765ZM430.201 60.7023C430.089 61.0058 429.932 61.2698 429.729 61.4945C429.527 61.7193 429.282 61.8991 428.996 62.0338C428.709 62.1687 428.391 62.236 428.043 62.236C427.694 62.236 427.379 62.1687 427.098 62.0338C426.817 61.8989 426.576 61.7193 426.373 61.4945C426.171 61.2698 426.016 61.0058 425.909 60.7023C425.802 60.399 425.749 60.0787 425.749 59.7417C425.749 59.4046 425.802 59.0843 425.909 58.781C426.016 58.4777 426.171 58.2138 426.373 57.9889C426.576 57.7644 426.817 57.5844 427.098 57.4496C427.379 57.3147 427.694 57.2474 428.043 57.2474C428.391 57.2474 428.709 57.3147 428.996 57.4496C429.282 57.5845 429.527 57.7644 429.729 57.9889C429.932 58.2138 430.089 58.4777 430.201 58.781C430.314 59.0843 430.37 59.4046 430.37 59.7417C430.37 60.0787 430.314 60.399 430.201 60.7023Z" fill="#FF2D20"/>
<path d="M452.373 51.8711H450.535V63.6689H452.373V51.8711Z" fill="#FF2D20"/>
<path d="M418.717 63.6686H420.555V57.6222H423.709V55.8147H418.717V63.6686Z" fill="#FF2D20"/>
<path d="M439.578 55.8147L437.267 61.8291L434.957 55.8147H433.095L436.112 63.6686H438.422L441.44 55.8147H439.578Z" fill="#FF2D20"/>
<path d="M445.448 55.6124C443.197 55.6124 441.416 57.4611 441.416 59.7415C441.416 62.2623 443.14 63.8705 445.684 63.8705C447.108 63.8705 448.017 63.3265 449.127 62.1416L447.885 61.1814C447.885 61.1823 446.948 62.4113 445.549 62.4113C443.924 62.4113 443.24 61.1016 443.24 60.4239H449.338C449.658 57.8293 447.951 55.6124 445.448 55.6124ZM443.244 59.0589C443.259 58.9078 443.47 57.0715 445.434 57.0715C447.397 57.0715 447.636 58.9075 447.65 59.0589H443.244Z" fill="#FF2D20"/>
<defs>
<filter id="filter0_ddii_3740_26942" x="132" y="12" width="78" height="78" filterUnits="userSpaceOnUse" color-interpolation-filters="sRGB">
<feFlood flood-opacity="0" result="BackgroundImageFix"/>
<feColorMatrix in="SourceAlpha" type="matrix" values="0 0 0 0 0 0 0 0 0 0 0 0 0 0 0 0 0 0 127 0" result="hardAlpha"/>
<feOffset dx="1" dy="1"/>
<feGaussianBlur stdDeviation="1"/>
<feColorMatrix type="matrix" values="0 0 0 0 0.101961 0 0 0 0 0.74902 0 0 0 0 0.529412 0 0 0 0.1 0"/>
<feBlend mode="normal" in2="BackgroundImageFix" result="effect1_dropShadow_3740_26942"/>
<feColorMatrix in="SourceAlpha" type="matrix" values="0 0 0 0 0 0 0 0 0 0 0 0 0 0 0 0 0 0 127 0" result="hardAlpha"/>
<feOffset dx="1" dy="1"/>
<feGaussianBlur stdDeviation="1.5"/>
<feColorMatrix type="matrix" values="0 0 0 0 0.0941176 0 0 0 0 0.741176 0 0 0 0 0.52549 0 0 0 0.2 0"/>
<feBlend mode="normal" in2="effect1_dropShadow_3740_26942" result="effect2_dropShadow_3740_26942"/>
<feBlend mode="normal" in="SourceGraphic" in2="effect2_dropShadow_3740_26942" result="shape"/>
<feColorMatrix in="SourceAlpha" type="matrix" values="0 0 0 0 0 0 0 0 0 0 0 0 0 0 0 0 0 0 127 0" result="hardAlpha"/>
<feOffset dx="1" dy="2"/>
<feGaussianBlur stdDeviation="1"/>
<feComposite in2="hardAlpha" operator="arithmetic" k2="-1" k3="1"/>
<feColorMatrix type="matrix" values="0 0 0 0 0.459201 0 0 0 0 0.958333 0 0 0 0 0.760331 0 0 0 1 0"/>
<feBlend mode="normal" in2="shape" result="effect3_innerShadow_3740_26942"/>
<feColorMatrix in="SourceAlpha" type="matrix" values="0 0 0 0 0 0 0 0 0 0 0 0 0 0 0 0 0 0 127 0" result="hardAlpha"/>
<feOffset dx="-1" dy="-2"/>
<feGaussianBlur stdDeviation="1"/>
<feComposite in2="hardAlpha" operator="arithmetic" k2="-1" k3="1"/>
<feColorMatrix type="matrix" values="0 0 0 0 0.05125 0 0 0 0 0.683333 0 0 0 0 0.4701 0 0 0 1 0"/>
<feBlend mode="normal" in2="effect3_innerShadow_3740_26942" result="effect4_innerShadow_3740_26942"/>
</filter>
<linearGradient id="paint0_linear_3740_26942" x1="200.5" y1="70.5" x2="128" y2="6.5" gradientUnits="userSpaceOnUse">
<stop stop-color="#10B981"/>
<stop offset="1" stop-color="#6EE7B7"/>
</linearGradient>
</defs>
</svg>
