<svg width="470" height="100" viewBox="0 0 470 100" fill="none" xmlns="http://www.w3.org/2000/svg">
<path d="M245.972 70.378C243.92 70.378 242.318 69.838 241.166 68.758C240.014 67.642 239.438 66.148 239.438 64.276V41.056C239.438 40.048 239.294 39.094 239.006 38.194C238.718 37.294 238.214 36.556 237.494 35.98C236.774 35.404 235.73 35.116 234.362 35.116C233.138 35.116 232.148 35.404 231.392 35.98C230.636 36.556 230.078 37.348 229.718 38.356C229.358 39.328 229.16 40.462 229.124 41.758V42.46H234.308V47.05H229.124V70H223.184V47.05H219.404V42.46H223.184V40.84C223.184 38.572 223.616 36.646 224.48 35.062C225.344 33.442 226.604 32.2 228.26 31.336C229.916 30.472 231.914 30.04 234.254 30.04C238.034 30.04 240.824 30.958 242.624 32.794C244.46 34.594 245.378 36.934 245.378 39.814V61.738C245.378 63.106 245.576 64.006 245.972 64.438C246.404 64.87 246.944 65.086 247.592 65.086C248.312 65.086 249.014 64.996 249.698 64.816C250.418 64.636 250.958 64.474 251.318 64.33L252.182 69.136C251.786 69.316 251.228 69.496 250.508 69.676C249.788 69.856 249.032 70.018 248.24 70.162C247.448 70.306 246.692 70.378 245.972 70.378ZM268.268 70.54C266.036 70.54 264.038 70.162 262.274 69.406C260.51 68.614 258.98 67.534 257.684 66.166C256.424 64.798 255.452 63.25 254.768 61.522C254.084 59.758 253.742 57.886 253.742 55.906C253.742 53.926 254.084 52.054 254.768 50.29C255.452 48.526 256.424 46.978 257.684 45.646C258.98 44.278 260.51 43.216 262.274 42.46C264.074 41.668 266.072 41.272 268.268 41.272C270.464 41.272 272.444 41.668 274.208 42.46C276.008 43.216 277.538 44.278 278.798 45.646C280.094 46.978 281.084 48.526 281.768 50.29C282.452 52.054 282.794 53.926 282.794 55.906C282.794 57.886 282.452 59.758 281.768 61.522C281.084 63.25 280.094 64.798 278.798 66.166C277.538 67.534 276.008 68.614 274.208 69.406C272.444 70.162 270.464 70.54 268.268 70.54ZM259.844 55.96C259.844 57.76 260.222 59.38 260.978 60.82C261.734 62.26 262.742 63.394 264.002 64.222C265.262 65.05 266.684 65.464 268.268 65.464C269.816 65.464 271.22 65.05 272.48 64.222C273.776 63.358 274.802 62.206 275.558 60.766C276.314 59.29 276.692 57.67 276.692 55.906C276.692 54.106 276.314 52.486 275.558 51.046C274.802 49.606 273.776 48.472 272.48 47.644C271.22 46.78 269.816 46.348 268.268 46.348C266.684 46.348 265.262 46.78 264.002 47.644C262.742 48.508 261.734 49.66 260.978 51.1C260.222 52.504 259.844 54.124 259.844 55.96ZM303.938 46.888C301.634 46.924 299.582 47.446 297.782 48.454C296.018 49.462 294.758 50.884 294.002 52.72V70H288.062V41.758H293.57V48.076C294.542 46.132 295.82 44.584 297.404 43.432C298.988 42.244 300.662 41.596 302.426 41.488C302.786 41.488 303.074 41.488 303.29 41.488C303.542 41.488 303.758 41.506 303.938 41.542V46.888ZM306.155 61.738C306.155 59.938 306.659 58.372 307.667 57.04C308.711 55.672 310.133 54.628 311.933 53.908C313.733 53.152 315.821 52.774 318.197 52.774C319.457 52.774 320.735 52.864 322.031 53.044C323.363 53.224 324.533 53.512 325.541 53.908V52.126C325.541 50.146 324.947 48.598 323.759 47.482C322.571 46.366 320.861 45.808 318.629 45.808C317.045 45.808 315.551 46.096 314.147 46.672C312.743 47.212 311.249 47.986 309.665 48.994L307.667 44.998C309.539 43.738 311.411 42.802 313.283 42.19C315.191 41.578 317.189 41.272 319.277 41.272C323.057 41.272 326.027 42.28 328.187 44.296C330.383 46.276 331.481 49.102 331.481 52.774V63.304C331.481 63.988 331.589 64.474 331.805 64.762C332.057 65.05 332.471 65.212 333.047 65.248V70C332.507 70.108 332.021 70.18 331.589 70.216C331.157 70.252 330.797 70.27 330.509 70.27C329.249 70.27 328.295 69.964 327.647 69.352C326.999 68.74 326.621 68.02 326.513 67.192L326.351 65.572C325.127 67.156 323.561 68.38 321.653 69.244C319.745 70.108 317.819 70.54 315.875 70.54C314.003 70.54 312.329 70.162 310.853 69.406C309.377 68.614 308.225 67.552 307.397 66.22C306.569 64.888 306.155 63.394 306.155 61.738ZM324.137 63.466C324.569 62.998 324.911 62.53 325.163 62.062C325.415 61.594 325.541 61.18 325.541 60.82V57.58C324.533 57.184 323.471 56.896 322.355 56.716C321.239 56.5 320.141 56.392 319.061 56.392C316.901 56.392 315.137 56.824 313.769 57.688C312.437 58.552 311.771 59.74 311.771 61.252C311.771 62.08 311.987 62.872 312.419 63.628C312.887 64.384 313.535 64.996 314.363 65.464C315.227 65.932 316.289 66.166 317.549 66.166C318.845 66.166 320.087 65.914 321.275 65.41C322.463 64.906 323.417 64.258 324.137 63.466Z" fill="white"/>
<g filter="url(#filter0_dii_3740_26963)">
<rect x="134" y="14" width="72" height="72" rx="36" fill="url(#paint0_linear_3740_26963)"/>
<path d="M171.053 51.7663C170.527 52.3606 169.473 52.3606 168.948 51.7663C168.724 51.5141 168.486 51.2756 168.234 51.0525C167.64 50.5268 167.64 49.4733 168.234 48.9476C168.486 48.7245 168.724 48.486 168.948 48.2338C169.473 47.6395 170.527 47.6395 171.053 48.2338C171.276 48.486 171.514 48.7245 171.766 48.9476C172.361 49.4733 172.361 50.5268 171.766 51.0525C171.514 51.2756 171.276 51.5141 171.053 51.7663Z" fill="white"/>
<path fill-rule="evenodd" clip-rule="evenodd" d="M188.641 50.5562C188.441 50.2129 188.441 49.7872 188.641 49.4439C189.777 47.4915 190.428 45.2218 190.428 42.8001C190.428 35.4945 184.506 29.5721 177.2 29.5721C174.778 29.5721 172.509 30.2229 170.556 31.3592C170.213 31.5589 169.787 31.5589 169.444 31.3592C167.492 30.2229 165.222 29.5721 162.8 29.5721C155.494 29.5721 149.572 35.4945 149.572 42.8001C149.572 45.2218 150.223 47.4915 151.359 49.4439C151.559 49.7872 151.559 50.2129 151.359 50.5562C150.223 52.5086 149.572 54.7783 149.572 57.2001C149.572 64.5056 155.494 70.428 162.8 70.428C165.222 70.428 167.492 69.7772 169.444 68.6409C169.787 68.4412 170.213 68.4412 170.556 68.6409C172.509 69.7772 174.778 70.428 177.2 70.428C184.506 70.428 190.428 64.5056 190.428 57.2001C190.428 54.7783 189.777 52.5086 188.641 50.5562ZM171.053 62.6338C170.527 62.0395 169.473 62.0395 168.948 62.6338C168.204 63.4743 167.291 64.1612 166.262 64.6408C165.21 65.131 164.037 65.4047 162.8 65.4047C158.269 65.4047 154.595 61.7314 154.595 57.2001C154.595 55.9631 154.869 54.7901 155.359 53.7384C155.839 52.7091 156.526 51.796 157.366 51.0525C157.961 50.5268 157.961 49.4733 157.366 48.9476C156.526 48.2041 155.839 47.291 155.359 46.2617C154.869 45.21 154.595 44.037 154.595 42.8001C154.595 38.2687 158.269 34.5954 162.8 34.5954C164.037 34.5954 165.21 34.8691 166.262 35.3593C167.291 35.8389 168.204 36.5258 168.948 37.3663C169.473 37.9606 170.527 37.9606 171.053 37.3663C171.796 36.5258 172.709 35.8389 173.738 35.3593C174.79 34.8691 175.963 34.5954 177.2 34.5954C181.731 34.5954 185.405 38.2687 185.405 42.8001C185.405 44.037 185.131 45.21 184.641 46.2617C184.161 47.291 183.474 48.2041 182.634 48.9476C182.04 49.4733 182.04 50.5268 182.634 51.0525C183.474 51.796 184.161 52.7091 184.641 53.7384C185.131 54.7901 185.405 55.9631 185.405 57.2001C185.405 61.7314 181.731 65.4047 177.2 65.4047C175.963 65.4047 174.79 65.131 173.738 64.6408C172.709 64.1612 171.796 63.4743 171.053 62.6338Z" fill="white"/>
<circle cx="170" cy="50" r="5.69302" fill="white"/>
</g>
<path d="M372 53L364 49L356 53M372 53L364 57M372 53V63L364 67M364 57L356 53M364 57V67M356 53V63L364 67" stroke="#FF2D20" stroke-width="1.5" stroke-linejoin="round"/>
<path d="M384.634 56.3636V57.5568H380.318V56.3636H384.634ZM381.501 64V55.4787C381.501 55.0014 381.606 54.6053 381.815 54.2905C382.023 53.9723 382.3 53.7353 382.645 53.5795C382.99 53.4205 383.364 53.3409 383.768 53.3409C384.067 53.3409 384.322 53.3658 384.534 53.4155C384.746 53.4619 384.904 53.505 385.006 53.5447L384.658 54.7479C384.589 54.728 384.499 54.7048 384.39 54.6783C384.281 54.6484 384.148 54.6335 383.992 54.6335C383.631 54.6335 383.372 54.723 383.217 54.902C383.064 55.081 382.988 55.3395 382.988 55.6776V64H381.501ZM389.083 64.1541C388.367 64.1541 387.742 63.9901 387.209 63.6619C386.675 63.3338 386.261 62.8748 385.966 62.2848C385.671 61.6948 385.523 61.0054 385.523 60.2166C385.523 59.4245 385.671 58.7318 385.966 58.1385C386.261 57.5452 386.675 57.0845 387.209 56.7564C387.742 56.4283 388.367 56.2642 389.083 56.2642C389.799 56.2642 390.424 56.4283 390.957 56.7564C391.491 57.0845 391.905 57.5452 392.2 58.1385C392.495 58.7318 392.643 59.4245 392.643 60.2166C392.643 61.0054 392.495 61.6948 392.2 62.2848C391.905 62.8748 391.491 63.3338 390.957 63.6619C390.424 63.9901 389.799 64.1541 389.083 64.1541ZM389.088 62.9062C389.552 62.9062 389.937 62.7836 390.241 62.5384C390.546 62.2931 390.772 61.9666 390.918 61.5589C391.067 61.1513 391.141 60.7022 391.141 60.2116C391.141 59.7244 391.067 59.277 390.918 58.8693C390.772 58.4583 390.546 58.1286 390.241 57.88C389.937 57.6314 389.552 57.5071 389.088 57.5071C388.621 57.5071 388.233 57.6314 387.925 57.88C387.62 58.1286 387.393 58.4583 387.244 58.8693C387.098 59.277 387.025 59.7244 387.025 60.2116C387.025 60.7022 387.098 61.1513 387.244 61.5589C387.393 61.9666 387.62 62.2931 387.925 62.5384C388.233 62.7836 388.621 62.9062 389.088 62.9062ZM394.302 64V56.3636H395.739V57.5767H395.818C395.958 57.1657 396.203 56.8426 396.554 56.6072C396.909 56.3686 397.31 56.2493 397.757 56.2493C397.85 56.2493 397.959 56.2526 398.085 56.2592C398.215 56.2659 398.316 56.2741 398.389 56.2841V57.706C398.329 57.6894 398.223 57.6712 398.07 57.6513C397.918 57.6281 397.766 57.6165 397.613 57.6165C397.262 57.6165 396.949 57.6911 396.673 57.8402C396.402 57.986 396.186 58.1899 396.027 58.4517C395.868 58.7102 395.789 59.0052 395.789 59.3366V64H394.302Z" fill="#FF2D20"/>
<path d="M405.939 52H404V63.7978H409.582V62.0618H405.939V52Z" fill="#FF2D20"/>
<path d="M416.428 57.0054C416.181 56.6121 415.829 56.3033 415.374 56.0784C414.919 55.8537 414.461 55.7413 414 55.7413C413.404 55.7413 412.858 55.8509 412.364 56.07C411.869 56.289 411.445 56.5899 411.09 56.9717C410.736 57.3538 410.461 57.7949 410.264 58.2946C410.067 58.7948 409.969 59.3202 409.969 59.8706C409.969 60.4326 410.067 60.9606 410.264 61.4548C410.461 61.9494 410.736 62.3877 411.09 62.7695C411.445 63.1516 411.869 63.4521 412.364 63.6712C412.858 63.8902 413.404 63.9998 414 63.9998C414.461 63.9998 414.919 63.8874 415.374 63.6628C415.829 63.4382 416.181 63.1292 416.428 62.7358V63.7977H418.266V55.9437H416.428V57.0054ZM416.259 60.8312C416.147 61.1347 415.99 61.3987 415.787 61.6234C415.585 61.8482 415.34 62.028 415.054 62.1627C414.767 62.2976 414.449 62.365 414.101 62.365C413.752 62.365 413.437 62.2976 413.156 62.1627C412.875 62.0278 412.634 61.8482 412.431 61.6234C412.229 61.3987 412.074 61.1347 411.967 60.8312C411.86 60.5279 411.807 60.2076 411.807 59.8706C411.807 59.5335 411.86 59.2132 411.967 58.9099C412.074 58.6066 412.229 58.3427 412.431 58.1178C412.634 57.8933 412.875 57.7133 413.156 57.5785C413.437 57.4436 413.752 57.3763 414.101 57.3763C414.449 57.3763 414.767 57.4436 415.054 57.5785C415.34 57.7134 415.585 57.8933 415.787 58.1178C415.99 58.3427 416.147 58.6066 416.259 58.9099C416.372 59.2132 416.428 59.5335 416.428 59.8706C416.428 60.2076 416.372 60.5279 416.259 60.8312Z" fill="#FF2D20"/>
<path d="M431.37 57.0054C431.123 56.6121 430.771 56.3033 430.316 56.0784C429.861 55.8537 429.403 55.7413 428.942 55.7413C428.346 55.7413 427.8 55.8509 427.306 56.07C426.811 56.289 426.387 56.5899 426.032 56.9717C425.678 57.3538 425.403 57.7949 425.206 58.2946C425.009 58.7948 424.911 59.3202 424.911 59.8706C424.911 60.4326 425.009 60.9606 425.206 61.4548C425.403 61.9494 425.678 62.3877 426.032 62.7695C426.387 63.1516 426.811 63.4521 427.306 63.6712C427.8 63.8902 428.346 63.9998 428.942 63.9998C429.403 63.9998 429.861 63.8874 430.316 63.6628C430.771 63.4382 431.123 63.1292 431.37 62.7358V63.7977H433.208V55.9437H431.37V57.0054ZM431.201 60.8312C431.089 61.1347 430.932 61.3987 430.729 61.6234C430.527 61.8482 430.282 62.028 429.996 62.1627C429.709 62.2976 429.391 62.365 429.043 62.365C428.694 62.365 428.379 62.2976 428.098 62.1627C427.817 62.0278 427.575 61.8482 427.373 61.6234C427.171 61.3987 427.016 61.1347 426.909 60.8312C426.802 60.5279 426.749 60.2076 426.749 59.8706C426.749 59.5335 426.802 59.2132 426.909 58.9099C427.016 58.6066 427.171 58.3427 427.373 58.1178C427.575 57.8933 427.817 57.7133 428.098 57.5785C428.379 57.4436 428.694 57.3763 429.043 57.3763C429.391 57.3763 429.709 57.4436 429.996 57.5785C430.282 57.7134 430.527 57.8933 430.729 58.1178C430.932 58.3427 431.089 58.6066 431.201 58.9099C431.314 59.2132 431.37 59.5335 431.37 59.8706C431.37 60.2076 431.314 60.5279 431.201 60.8312Z" fill="#FF2D20"/>
<path d="M453.373 52H451.535V63.7978H453.373V52Z" fill="#FF2D20"/>
<path d="M419.717 63.7975H421.556V57.7511H424.709V55.9436H419.717V63.7975Z" fill="#FF2D20"/>
<path d="M440.578 55.9436L438.267 61.958L435.957 55.9436H434.095L437.112 63.7975H439.422L442.44 55.9436H440.578Z" fill="#FF2D20"/>
<path d="M446.448 55.7413C444.198 55.7413 442.416 57.59 442.416 59.8704C442.416 62.3912 444.14 63.9994 446.684 63.9994C448.108 63.9994 449.017 63.4554 450.127 62.2706L448.885 61.3103C448.885 61.3112 447.948 62.5402 446.55 62.5402C444.924 62.5402 444.24 61.2305 444.24 60.5529H450.338C450.658 57.9582 448.951 55.7413 446.448 55.7413ZM444.245 59.1878C444.259 59.0367 444.47 57.2004 446.434 57.2004C448.397 57.2004 448.636 59.0364 448.65 59.1878H444.245Z" fill="#FF2D20"/>
<defs>
<filter id="filter0_dii_3740_26963" x="133" y="12" width="76" height="77" filterUnits="userSpaceOnUse" color-interpolation-filters="sRGB">
<feFlood flood-opacity="0" result="BackgroundImageFix"/>
<feColorMatrix in="SourceAlpha" type="matrix" values="0 0 0 0 0 0 0 0 0 0 0 0 0 0 0 0 0 0 127 0" result="hardAlpha"/>
<feOffset dx="1" dy="1"/>
<feGaussianBlur stdDeviation="1"/>
<feColorMatrix type="matrix" values="0 0 0 0 0.0235294 0 0 0 0 0.305882 0 0 0 0 0.231373 0 0 0 0.2 0"/>
<feBlend mode="normal" in2="BackgroundImageFix" result="effect1_dropShadow_3740_26963"/>
<feBlend mode="normal" in="SourceGraphic" in2="effect1_dropShadow_3740_26963" result="shape"/>
<feColorMatrix in="SourceAlpha" type="matrix" values="0 0 0 0 0 0 0 0 0 0 0 0 0 0 0 0 0 0 127 0" result="hardAlpha"/>
<feOffset dx="1" dy="2"/>
<feGaussianBlur stdDeviation="1"/>
<feComposite in2="hardAlpha" operator="arithmetic" k2="-1" k3="1"/>
<feColorMatrix type="matrix" values="0 0 0 0 0.459201 0 0 0 0 0.958333 0 0 0 0 0.760331 0 0 0 1 0"/>
<feBlend mode="normal" in2="shape" result="effect2_innerShadow_3740_26963"/>
<feColorMatrix in="SourceAlpha" type="matrix" values="0 0 0 0 0 0 0 0 0 0 0 0 0 0 0 0 0 0 127 0" result="hardAlpha"/>
<feOffset dx="-1" dy="-2"/>
<feGaussianBlur stdDeviation="1"/>
<feComposite in2="hardAlpha" operator="arithmetic" k2="-1" k3="1"/>
<feColorMatrix type="matrix" values="0 0 0 0 0.0313498 0 0 0 0 0.537482 0 0 0 0 0.40392 0 0 0 1 0"/>
<feBlend mode="normal" in2="effect2_innerShadow_3740_26963" result="effect3_innerShadow_3740_26963"/>
</filter>
<linearGradient id="paint0_linear_3740_26963" x1="200.5" y1="70.5" x2="128" y2="6.5" gradientUnits="userSpaceOnUse">
<stop stop-color="#10B981"/>
<stop offset="1" stop-color="#6EE7B7"/>
</linearGradient>
</defs>
</svg>
