<svg width="400" height="135" viewBox="0 0 400 135" fill="none" xmlns="http://www.w3.org/2000/svg">
<rect y="23.6895" width="87.4095" height="87.6213" rx="43.7048" fill="#10B981"/>
<path fill-rule="evenodd" clip-rule="evenodd" d="M66.6251 62.926C65.8027 58.7817 63.8795 54.9452 61.0688 51.8165C60.6173 51.3139 59.8399 51.316 59.3628 51.7942L55.3371 55.8296C54.8617 56.3062 54.8658 57.0748 55.3019 57.5876C57.5712 60.2558 58.9409 63.7161 58.9409 67.4971C58.9409 75.9376 52.1151 82.7799 43.6951 82.7799C35.275 82.7799 28.4492 75.9376 28.4492 67.4971C28.4492 63.7151 29.8197 60.2539 32.0901 57.5854C32.5264 57.0726 32.5306 56.3039 32.0551 55.8272L28.0318 51.7942C27.5547 51.316 26.7772 51.3139 26.3258 51.8165C23.5151 54.9452 21.5919 58.7817 20.7695 62.926C19.8675 67.4717 20.3304 72.1834 22.0998 76.4653C23.8691 80.7472 26.8654 84.4071 30.7097 86.982C34.5541 89.5569 39.0738 90.9313 43.6973 90.9313C48.3208 90.9313 52.8405 89.5569 56.6848 86.982C60.5292 84.4071 63.5254 80.7473 65.2948 76.4653C67.0641 72.1834 67.5271 67.4717 66.6251 62.926Z" fill="white"/>
<rect x="40.043" y="44.0684" width="7.31801" height="7.33573" rx="3.659" fill="white"/>
<rect x="40.043" y="54.2578" width="7.31801" height="16.3016" rx="1.22114" fill="white"/>
<path d="M112.254 76.2181H125.688V81.4424H106.48V54.4569H112.254V76.2181ZM138.014 60.6632C139.769 60.6632 141.327 61.0167 142.689 61.7238C144.05 62.4308 145.098 63.439 145.831 64.7483C146.59 66.0315 146.97 67.5503 146.97 69.3048V81.4424H141.432V79.3998C140.725 80.1854 139.821 80.8008 138.721 81.246C137.648 81.6912 136.548 81.9137 135.422 81.9137C133.982 81.9137 132.685 81.6519 131.533 81.1281C130.381 80.5782 129.464 79.8188 128.783 78.8499C128.129 77.8548 127.801 76.7157 127.801 75.4325C127.801 74.1232 128.168 72.9579 128.901 71.9366C129.661 70.9153 130.682 70.1166 131.965 69.5405C133.248 68.9644 134.662 68.6763 136.207 68.6763C137.962 68.6763 139.703 69.0299 141.432 69.7369V69.3048C141.432 68.1264 141.039 67.1575 140.253 66.3981C139.468 65.6387 138.289 65.259 136.718 65.259C135.094 65.259 133.34 65.7434 131.454 66.7123L129.53 62.9022C132.463 61.4095 135.291 60.6632 138.014 60.6632ZM136.718 77.9465C137.87 77.9465 138.892 77.6977 139.782 77.2001C140.672 76.6764 141.222 75.9563 141.432 75.0397V73.1936C140.096 72.6698 138.63 72.408 137.032 72.408C135.985 72.408 135.094 72.6829 134.361 73.2328C133.628 73.7828 133.261 74.4636 133.261 75.2754C133.261 76.0872 133.589 76.7419 134.243 77.2394C134.898 77.7108 135.723 77.9465 136.718 77.9465ZM156.66 64.9447C157.341 63.6092 158.284 62.5617 159.488 61.8023C160.719 61.0429 162.094 60.6632 163.613 60.6632V65.4946C161.492 65.4946 159.802 66.0577 158.545 67.1837C157.289 68.3097 156.66 69.8286 156.66 71.7402V81.4424H150.925V61.1346H156.66V64.9447ZM173.689 60.6632C175.443 60.6632 177.001 61.0167 178.363 61.7238C179.725 62.4308 180.772 63.439 181.505 64.7483C182.265 66.0315 182.644 67.5503 182.644 69.3048V81.4424H177.106V79.3998C176.399 80.1854 175.495 80.8008 174.396 81.246C173.322 81.6912 172.222 81.9137 171.096 81.9137C169.656 81.9137 168.36 81.6519 167.207 81.1281C166.055 80.5782 165.139 79.8188 164.458 78.8499C163.803 77.8548 163.476 76.7157 163.476 75.4325C163.476 74.1232 163.842 72.9579 164.576 71.9366C165.335 70.9153 166.356 70.1166 167.639 69.5405C168.923 68.9644 170.337 68.6763 171.882 68.6763C173.636 68.6763 175.378 69.0299 177.106 69.7369V69.3048C177.106 68.1264 176.713 67.1575 175.928 66.3981C175.142 65.6387 173.964 65.259 172.392 65.259C170.769 65.259 169.014 65.7434 167.129 66.7123L165.204 62.9022C168.137 61.4095 170.965 60.6632 173.689 60.6632ZM172.392 77.9465C173.545 77.9465 174.566 77.6977 175.456 77.2001C176.347 76.6764 176.896 75.9563 177.106 75.0397V73.1936C175.77 72.6698 174.304 72.408 172.707 72.408C171.659 72.408 170.769 72.6829 170.036 73.2328C169.302 73.7828 168.936 74.4636 168.936 75.2754C168.936 76.0872 169.263 76.7419 169.918 77.2394C170.572 77.7108 171.397 77.9465 172.392 77.9465ZM184.259 61.1346H190.269L195.729 74.8433L201.071 61.1346H207.042L198.361 81.4424H193.058L184.259 61.1346ZM218.546 77.4751C219.462 77.4751 220.405 77.2918 221.374 76.9252C222.343 76.5586 223.154 76.0741 223.809 75.4718L227.03 78.7713C226.14 79.7141 224.909 80.4735 223.338 81.0496C221.793 81.6257 220.261 81.9137 218.742 81.9137C216.752 81.9137 214.919 81.4555 213.243 80.5389C211.593 79.6224 210.284 78.3523 209.315 76.7288C208.346 75.1052 207.861 73.2721 207.861 71.2295C207.861 69.2132 208.32 67.4063 209.236 65.8089C210.179 64.2115 211.449 62.9545 213.046 62.038C214.67 61.1215 216.464 60.6632 218.428 60.6632C220.523 60.6632 222.343 61.1476 223.888 62.1166C225.433 63.0855 226.611 64.4865 227.423 66.3195C228.235 68.1526 228.641 70.313 228.641 72.8008H213.321C213.583 74.2148 214.172 75.354 215.089 76.2181C216.032 77.0561 217.184 77.4751 218.546 77.4751ZM218.467 65.1018C217.21 65.1018 216.123 65.4946 215.207 66.2803C214.29 67.0397 213.675 68.074 213.361 69.3834H223.141C222.906 68.074 222.382 67.0397 221.57 66.2803C220.758 65.4946 219.724 65.1018 218.467 65.1018ZM231.908 53.9856H237.642V81.4424H231.908V53.9856Z" fill="#10B981"/>
<path d="M251.896 54.4569H254.96V81.4424H251.896V54.4569ZM269.901 60.6632C271.394 60.6632 272.716 60.9905 273.868 61.6452C275.02 62.2999 275.911 63.2295 276.539 64.4341C277.194 65.6125 277.521 66.9742 277.521 68.5192V81.4424H274.575V68.912C274.575 67.2361 274.104 65.8874 273.161 64.8662C272.218 63.8187 271.001 63.295 269.508 63.295C268.382 63.295 267.335 63.5306 266.366 64.002C265.397 64.4734 264.624 65.1149 264.048 65.9267C263.498 66.7123 263.223 67.5765 263.223 68.5192V81.4424H260.277V61.1346H263.223V64.3555C263.826 63.2557 264.729 62.3653 265.934 61.6845C267.138 61.0036 268.461 60.6632 269.901 60.6632ZM281.72 61.1346H284.666V81.4424H281.72V61.1346ZM283.213 57.4422C282.663 57.4422 282.192 57.2458 281.799 56.853C281.432 56.4602 281.249 56.0019 281.249 55.4782C281.249 54.9545 281.432 54.5093 281.799 54.1427C282.192 53.7499 282.663 53.5535 283.213 53.5535C283.737 53.5535 284.182 53.7499 284.548 54.1427C284.941 54.5093 285.138 54.9545 285.138 55.4782C285.138 56.0019 284.941 56.4602 284.548 56.853C284.182 57.2458 283.737 57.4422 283.213 57.4422ZM300.003 80.6175C298.903 81.4817 297.646 81.9137 296.232 81.9137C294.792 81.9137 293.601 81.4293 292.658 80.4604C291.741 79.4915 291.283 78.2476 291.283 76.7288V63.7663H288.101V61.1346H291.283V55.5568H294.229V61.1346H299.218V63.7663H294.229V76.7288C294.229 77.462 294.439 78.0774 294.858 78.5749C295.303 79.0463 295.827 79.282 296.429 79.282C296.874 79.282 297.28 79.2034 297.646 79.0463C298.013 78.8892 298.314 78.6928 298.55 78.4571L300.003 80.6175ZM303.393 61.1346H306.339V81.4424H303.393V61.1346ZM304.886 57.4422C304.336 57.4422 303.865 57.2458 303.472 56.853C303.105 56.4602 302.922 56.0019 302.922 55.4782C302.922 54.9545 303.105 54.5093 303.472 54.1427C303.865 53.7499 304.336 53.5535 304.886 53.5535C305.41 53.5535 305.855 53.7499 306.222 54.1427C306.614 54.5093 306.811 54.9545 306.811 55.4782C306.811 56.0019 306.614 56.4602 306.222 56.853C305.855 57.2458 305.41 57.4422 304.886 57.4422ZM319.162 60.6632C321.86 60.6632 323.902 61.4357 325.29 62.9807C326.704 64.4996 327.411 66.529 327.411 69.0691V81.4424H324.465V78.2607C323.758 79.4129 322.737 80.3164 321.401 80.971C320.092 81.5995 318.73 81.9137 317.316 81.9137C315.143 81.9137 313.362 81.3245 311.974 80.1461C310.586 78.9677 309.892 77.3965 309.892 75.4325C309.892 74.1232 310.246 72.9579 310.953 71.9366C311.686 70.8891 312.655 70.0904 313.86 69.5405C315.09 68.9644 316.426 68.6763 317.866 68.6763C319.909 68.6763 322.109 69.056 324.465 69.8155V69.0691C324.465 67.4194 324.046 66.0315 323.208 64.9054C322.37 63.7532 320.956 63.1771 318.966 63.1771C318.05 63.1771 317.107 63.3473 316.138 63.6878C315.195 64.002 314.161 64.4472 313.035 65.0233L311.856 62.6272C314.475 61.3179 316.91 60.6632 319.162 60.6632ZM317.827 79.3213C319.293 79.3213 320.668 78.9546 321.951 78.2214C323.261 77.462 324.099 76.4145 324.465 75.079V71.9759C322.475 71.4259 320.433 71.151 318.338 71.151C316.793 71.151 315.47 71.5438 314.37 72.3294C313.297 73.115 312.76 74.1101 312.76 75.3147C312.76 76.5455 313.231 77.5275 314.174 78.2607C315.143 78.9677 316.361 79.3213 317.827 79.3213ZM331.705 53.9856H334.651V81.4424H331.705V53.9856ZM339.221 61.1346H342.167V81.4424H339.221V61.1346ZM340.714 57.4422C340.164 57.4422 339.692 57.2458 339.3 56.853C338.933 56.4602 338.75 56.0019 338.75 55.4782C338.75 54.9545 338.933 54.5093 339.3 54.1427C339.692 53.7499 340.164 53.5535 340.714 53.5535C341.238 53.5535 341.683 53.7499 342.049 54.1427C342.442 54.5093 342.639 54.9545 342.639 55.4782C342.639 56.0019 342.442 56.4602 342.049 56.853C341.683 57.2458 341.238 57.4422 340.714 57.4422ZM345.799 79.1249L357.779 63.9234H346.034V61.1346H361.746V63.4521L349.727 78.6535H361.825V81.4424H345.799V79.1249ZM374.886 79.282C376.091 79.282 377.295 79.0463 378.5 78.5749C379.731 78.1036 380.66 77.5275 381.289 76.8466L383.096 78.7713C382.232 79.7141 381.014 80.4735 379.443 81.0496C377.898 81.6257 376.392 81.9137 374.926 81.9137C373.119 81.9137 371.43 81.4555 369.858 80.5389C368.287 79.6224 367.017 78.3523 366.048 76.7288C365.106 75.079 364.634 73.2459 364.634 71.2295C364.634 69.2655 365.079 67.4717 365.97 65.8482C366.886 64.2246 368.104 62.9545 369.623 62.038C371.168 61.1215 372.844 60.6632 374.651 60.6632C377.688 60.6632 380.045 61.7238 381.721 63.8449C383.423 65.966 384.274 68.8204 384.274 72.408H367.659C367.868 74.4243 368.628 76.0741 369.937 77.3572C371.272 78.6404 372.922 79.282 374.886 79.282ZM374.768 63.295C372.935 63.295 371.364 63.8973 370.055 65.1018C368.745 66.2803 367.96 67.8384 367.698 69.7762H381.367C381.158 67.8384 380.49 66.2803 379.364 65.1018C378.238 63.8973 376.706 63.295 374.768 63.295ZM390.73 65.1018C391.333 63.7401 392.328 62.6665 393.716 61.8809C395.103 61.0691 396.727 60.6632 398.586 60.6632V63.295C397.067 63.295 395.706 63.583 394.501 64.1591C393.323 64.7352 392.393 65.547 391.712 66.5945C391.058 67.6158 390.73 68.7811 390.73 70.0904V81.4424H387.784V61.1346H390.73V65.1018Z" fill="black"/>
</svg>
