<svg width="365" height="109" viewBox="0 0 365 109" fill="none" xmlns="http://www.w3.org/2000/svg">
<rect x="0.58374" y="10.6895" width="87.4095" height="87.6213" rx="43.7048" fill="#10B981"/>
<path fill-rule="evenodd" clip-rule="evenodd" d="M67.2088 49.9265C66.3865 45.7822 64.4632 41.9457 61.6525 38.817C61.2011 38.3144 60.4236 38.3164 59.9465 38.7947L55.9209 42.8301C55.4454 43.3067 55.4495 44.0752 55.8857 44.5881C58.1549 47.2563 59.5246 50.7166 59.5246 54.4976C59.5246 62.9381 52.6989 69.7804 44.2788 69.7804C35.8588 69.7804 29.033 62.9381 29.033 54.4976C29.033 50.7156 30.4035 47.2544 32.6738 44.5859C33.1101 44.073 33.1143 43.3044 32.6388 42.8277L28.6155 38.7947C28.1384 38.3164 27.361 38.3144 26.9095 38.817C24.0988 41.9457 22.1756 45.7822 21.3532 49.9265C20.4512 54.4722 20.9142 59.1839 22.6835 63.4658C24.4529 67.7477 27.4492 71.4076 31.2935 73.9825C35.1378 76.5574 39.6575 77.9318 44.281 77.9318C48.9046 77.9318 53.4242 76.5574 57.2686 73.9825C61.1129 71.4076 64.1092 67.7477 65.8785 63.4658C67.6479 59.1839 68.1108 54.4722 67.2088 49.9265Z" fill="white"/>
<rect x="40.6267" y="31.0679" width="7.31801" height="7.33573" rx="3.659" fill="white"/>
<rect x="40.6267" y="41.2573" width="7.31801" height="16.3016" rx="1.22114" fill="white"/>
<path d="M112.838 63.2179H126.272V68.4421H107.064V41.4567H112.838V63.2179ZM138.598 47.6629C140.353 47.6629 141.911 48.0165 143.272 48.7235C144.634 49.4306 145.682 50.4387 146.415 51.7481C147.174 53.0312 147.554 54.5501 147.554 56.3046V68.4421H142.015V66.3996C141.308 67.1852 140.405 67.8006 139.305 68.2457C138.231 68.6909 137.132 68.9135 136.006 68.9135C134.565 68.9135 133.269 68.6516 132.117 68.1279C130.965 67.578 130.048 66.8186 129.367 65.8496C128.713 64.8546 128.385 63.7154 128.385 62.4323C128.385 61.1229 128.752 59.9576 129.485 58.9363C130.244 57.9151 131.266 57.1164 132.549 56.5403C133.832 55.9641 135.246 55.6761 136.791 55.6761C138.546 55.6761 140.287 56.0296 142.015 56.7367V56.3046C142.015 55.1262 141.623 54.1573 140.837 53.3978C140.051 52.6384 138.873 52.2587 137.302 52.2587C135.678 52.2587 133.924 52.7432 132.038 53.7121L130.113 49.9019C133.046 48.4093 135.875 47.6629 138.598 47.6629ZM137.302 64.9462C138.454 64.9462 139.475 64.6974 140.366 64.1999C141.256 63.6761 141.806 62.956 142.015 62.0395V60.1933C140.68 59.6696 139.213 59.4077 137.616 59.4077C136.569 59.4077 135.678 59.6827 134.945 60.2326C134.212 60.7825 133.845 61.4634 133.845 62.2752C133.845 63.0869 134.172 63.7416 134.827 64.2392C135.482 64.7105 136.307 64.9462 137.302 64.9462ZM157.244 51.9445C157.925 50.609 158.867 49.5615 160.072 48.8021C161.303 48.0427 162.678 47.6629 164.196 47.6629V52.4944C162.075 52.4944 160.386 53.0574 159.129 54.1835C157.872 55.3095 157.244 56.8283 157.244 58.7399V68.4421H151.509V48.1343H157.244V51.9445ZM174.272 47.6629C176.027 47.6629 177.585 48.0165 178.947 48.7235C180.308 49.4306 181.356 50.4387 182.089 51.7481C182.849 53.0312 183.228 54.5501 183.228 56.3046V68.4421H177.69V66.3996C176.983 67.1852 176.079 67.8006 174.979 68.2457C173.906 68.6909 172.806 68.9135 171.68 68.9135C170.24 68.9135 168.943 68.6516 167.791 68.1279C166.639 67.578 165.722 66.8186 165.042 65.8496C164.387 64.8546 164.06 63.7154 164.06 62.4323C164.06 61.1229 164.426 59.9576 165.159 58.9363C165.919 57.9151 166.94 57.1164 168.223 56.5403C169.506 55.9641 170.92 55.6761 172.465 55.6761C174.22 55.6761 175.961 56.0296 177.69 56.7367V56.3046C177.69 55.1262 177.297 54.1573 176.511 53.3978C175.726 52.6384 174.547 52.2587 172.976 52.2587C171.353 52.2587 169.598 52.7432 167.713 53.7121L165.788 49.9019C168.721 48.4093 171.549 47.6629 174.272 47.6629ZM172.976 64.9462C174.128 64.9462 175.15 64.6974 176.04 64.1999C176.93 63.6761 177.48 62.956 177.69 62.0395V60.1933C176.354 59.6696 174.888 59.4077 173.29 59.4077C172.243 59.4077 171.353 59.6827 170.619 60.2326C169.886 60.7825 169.519 61.4634 169.519 62.2752C169.519 63.0869 169.847 63.7416 170.501 64.2392C171.156 64.7105 171.981 64.9462 172.976 64.9462ZM184.843 48.1343H190.853L196.313 61.8431L201.655 48.1343H207.625L198.945 68.4421H193.642L184.843 48.1343ZM219.129 64.4748C220.046 64.4748 220.989 64.2915 221.958 63.9249C222.926 63.5583 223.738 63.0739 224.393 62.4716L227.614 65.7711C226.723 66.7138 225.493 67.4732 223.922 68.0493C222.376 68.6254 220.845 68.9135 219.326 68.9135C217.336 68.9135 215.502 68.4552 213.827 67.5387C212.177 66.6222 210.867 65.3521 209.898 63.7285C208.93 62.1049 208.445 60.2719 208.445 58.2293C208.445 56.2129 208.903 54.406 209.82 52.8086C210.763 51.2113 212.033 49.9543 213.63 49.0378C215.254 48.1212 217.047 47.6629 219.011 47.6629C221.106 47.6629 222.926 48.1474 224.471 49.1163C226.016 50.0852 227.195 51.4862 228.007 53.3193C228.818 55.1524 229.224 57.3128 229.224 59.8005H213.905C214.167 61.2146 214.756 62.3537 215.673 63.2179C216.615 64.0559 217.768 64.4748 219.129 64.4748ZM219.051 52.1016C217.794 52.1016 216.707 52.4944 215.791 53.28C214.874 54.0394 214.259 55.0738 213.944 56.3831H223.725C223.489 55.0738 222.966 54.0394 222.154 53.28C221.342 52.4944 220.308 52.1016 219.051 52.1016ZM232.491 40.9853H238.226V68.4421H232.491V40.9853Z" fill="#10B981"/>
<path d="M263.439 41.4567C265.272 41.4567 266.948 41.8233 268.467 42.5565C269.986 43.2898 271.177 44.3241 272.041 45.6597C272.932 46.969 273.377 48.4486 273.377 50.0983C273.377 51.7481 272.932 53.2407 272.041 54.5763C271.177 55.8856 269.986 56.9069 268.467 57.6401C266.948 58.3733 265.272 58.7399 263.439 58.7399H255.544V68.4421H252.48V41.4567H263.439ZM262.889 55.8332C265.115 55.8332 266.896 55.3226 268.231 54.3013C269.593 53.28 270.274 51.879 270.274 50.0983C270.274 48.3176 269.593 46.9166 268.231 45.8953C266.896 44.8741 265.115 44.3634 262.889 44.3634H255.544V55.8332H262.889ZM285.714 68.9135C283.828 68.9135 282.074 68.4421 280.45 67.4994C278.853 66.5305 277.583 65.2343 276.64 63.6107C275.697 61.9609 275.226 60.1802 275.226 58.2686C275.226 56.357 275.697 54.5893 276.64 52.9658C277.583 51.3422 278.853 50.059 280.45 49.1163C282.074 48.1474 283.828 47.6629 285.714 47.6629C287.599 47.6629 289.341 48.1474 290.938 49.1163C292.535 50.059 293.805 51.3422 294.748 52.9658C295.691 54.5893 296.162 56.357 296.162 58.2686C296.162 60.1802 295.691 61.9609 294.748 63.6107C293.805 65.2343 292.535 66.5305 290.938 67.4994C289.341 68.4421 287.599 68.9135 285.714 68.9135ZM285.714 66.2817C287.049 66.2817 288.28 65.9282 289.406 65.2212C290.532 64.4879 291.422 63.5059 292.077 62.2752C292.758 61.0444 293.098 59.7089 293.098 58.2686C293.098 56.8283 292.758 55.5059 292.077 54.3013C291.422 53.0705 290.532 52.1016 289.406 51.3946C288.28 50.6613 287.049 50.2947 285.714 50.2947C284.378 50.2947 283.134 50.6613 281.982 51.3946C280.856 52.1016 279.953 53.0705 279.272 54.3013C278.617 55.5059 278.29 56.8283 278.29 58.2686C278.29 59.7089 278.617 61.0444 279.272 62.2752C279.953 63.5059 280.856 64.4879 281.982 65.2212C283.134 65.9282 284.378 66.2817 285.714 66.2817ZM297.469 48.1343H300.611L305.678 64.5141L311.217 48.1343H313.77L319.309 64.5141L324.376 48.1343H327.518L320.683 68.4421H317.895L312.513 52.2194L307.053 68.4421H304.264L297.469 48.1343ZM339.144 66.2817C340.349 66.2817 341.553 66.0461 342.758 65.5747C343.988 65.1033 344.918 64.5272 345.547 63.8464L347.353 65.7711C346.489 66.7138 345.272 67.4732 343.7 68.0493C342.155 68.6254 340.65 68.9135 339.183 68.9135C337.376 68.9135 335.687 68.4552 334.116 67.5387C332.545 66.6222 331.275 65.3521 330.306 63.7285C329.363 62.0788 328.892 60.2457 328.892 58.2293C328.892 56.2653 329.337 54.4715 330.227 52.8479C331.144 51.2243 332.362 49.9543 333.88 49.0378C335.425 48.1212 337.101 47.6629 338.908 47.6629C341.946 47.6629 344.303 48.7235 345.979 50.8446C347.681 52.9658 348.532 55.8201 348.532 59.4077H331.916C332.126 61.4241 332.885 63.0739 334.195 64.357C335.53 65.6402 337.18 66.2817 339.144 66.2817ZM339.026 50.2947C337.193 50.2947 335.622 50.897 334.312 52.1016C333.003 53.28 332.218 54.8381 331.956 56.7759H345.625C345.416 54.8381 344.748 53.28 343.622 52.1016C342.496 50.897 340.964 50.2947 339.026 50.2947ZM354.988 52.1016C355.59 50.7399 356.585 49.6662 357.973 48.8806C359.361 48.0688 360.985 47.6629 362.844 47.6629V50.2947C361.325 50.2947 359.963 50.5828 358.759 51.1589C357.58 51.735 356.651 52.5468 355.97 53.5942C355.315 54.6155 354.988 55.7808 354.988 57.0902V68.4421H352.042V48.1343H354.988V52.1016Z" fill="black"/>
</svg>
