<svg width="330" height="100" viewBox="0 0 330 100" fill="none" xmlns="http://www.w3.org/2000/svg">
<path d="M116.972 70.378C114.92 70.378 113.318 69.838 112.166 68.758C111.014 67.642 110.438 66.148 110.438 64.276V41.056C110.438 40.048 110.294 39.094 110.006 38.194C109.718 37.294 109.214 36.556 108.494 35.98C107.774 35.404 106.73 35.116 105.362 35.116C104.138 35.116 103.148 35.404 102.392 35.98C101.636 36.556 101.078 37.348 100.718 38.356C100.358 39.328 100.16 40.462 100.124 41.758V42.46H105.308V47.05H100.124V70H94.184V47.05H90.404V42.46H94.184V40.84C94.184 38.572 94.616 36.646 95.48 35.062C96.344 33.442 97.604 32.2 99.26 31.336C100.916 30.472 102.914 30.04 105.254 30.04C109.034 30.04 111.824 30.958 113.624 32.794C115.46 34.594 116.378 36.934 116.378 39.814V61.738C116.378 63.106 116.576 64.006 116.972 64.438C117.404 64.87 117.944 65.086 118.592 65.086C119.312 65.086 120.014 64.996 120.698 64.816C121.418 64.636 121.958 64.474 122.318 64.33L123.182 69.136C122.786 69.316 122.228 69.496 121.508 69.676C120.788 69.856 120.032 70.018 119.24 70.162C118.448 70.306 117.692 70.378 116.972 70.378ZM139.268 70.54C137.036 70.54 135.038 70.162 133.274 69.406C131.51 68.614 129.98 67.534 128.684 66.166C127.424 64.798 126.452 63.25 125.768 61.522C125.084 59.758 124.742 57.886 124.742 55.906C124.742 53.926 125.084 52.054 125.768 50.29C126.452 48.526 127.424 46.978 128.684 45.646C129.98 44.278 131.51 43.216 133.274 42.46C135.074 41.668 137.072 41.272 139.268 41.272C141.464 41.272 143.444 41.668 145.208 42.46C147.008 43.216 148.538 44.278 149.798 45.646C151.094 46.978 152.084 48.526 152.768 50.29C153.452 52.054 153.794 53.926 153.794 55.906C153.794 57.886 153.452 59.758 152.768 61.522C152.084 63.25 151.094 64.798 149.798 66.166C148.538 67.534 147.008 68.614 145.208 69.406C143.444 70.162 141.464 70.54 139.268 70.54ZM130.844 55.96C130.844 57.76 131.222 59.38 131.978 60.82C132.734 62.26 133.742 63.394 135.002 64.222C136.262 65.05 137.684 65.464 139.268 65.464C140.816 65.464 142.22 65.05 143.48 64.222C144.776 63.358 145.802 62.206 146.558 60.766C147.314 59.29 147.692 57.67 147.692 55.906C147.692 54.106 147.314 52.486 146.558 51.046C145.802 49.606 144.776 48.472 143.48 47.644C142.22 46.78 140.816 46.348 139.268 46.348C137.684 46.348 136.262 46.78 135.002 47.644C133.742 48.508 132.734 49.66 131.978 51.1C131.222 52.504 130.844 54.124 130.844 55.96ZM174.938 46.888C172.634 46.924 170.582 47.446 168.782 48.454C167.018 49.462 165.758 50.884 165.002 52.72V70H159.062V41.758H164.57V48.076C165.542 46.132 166.82 44.584 168.404 43.432C169.988 42.244 171.662 41.596 173.426 41.488C173.786 41.488 174.074 41.488 174.29 41.488C174.542 41.488 174.758 41.506 174.938 41.542V46.888ZM177.155 61.738C177.155 59.938 177.659 58.372 178.667 57.04C179.711 55.672 181.133 54.628 182.933 53.908C184.733 53.152 186.821 52.774 189.197 52.774C190.457 52.774 191.735 52.864 193.031 53.044C194.363 53.224 195.533 53.512 196.541 53.908V52.126C196.541 50.146 195.947 48.598 194.759 47.482C193.571 46.366 191.861 45.808 189.629 45.808C188.045 45.808 186.551 46.096 185.147 46.672C183.743 47.212 182.249 47.986 180.665 48.994L178.667 44.998C180.539 43.738 182.411 42.802 184.283 42.19C186.191 41.578 188.189 41.272 190.277 41.272C194.057 41.272 197.027 42.28 199.187 44.296C201.383 46.276 202.481 49.102 202.481 52.774V63.304C202.481 63.988 202.589 64.474 202.805 64.762C203.057 65.05 203.471 65.212 204.047 65.248V70C203.507 70.108 203.021 70.18 202.589 70.216C202.157 70.252 201.797 70.27 201.509 70.27C200.249 70.27 199.295 69.964 198.647 69.352C197.999 68.74 197.621 68.02 197.513 67.192L197.351 65.572C196.127 67.156 194.561 68.38 192.653 69.244C190.745 70.108 188.819 70.54 186.875 70.54C185.003 70.54 183.329 70.162 181.853 69.406C180.377 68.614 179.225 67.552 178.397 66.22C177.569 64.888 177.155 63.394 177.155 61.738ZM195.137 63.466C195.569 62.998 195.911 62.53 196.163 62.062C196.415 61.594 196.541 61.18 196.541 60.82V57.58C195.533 57.184 194.471 56.896 193.355 56.716C192.239 56.5 191.141 56.392 190.061 56.392C187.901 56.392 186.137 56.824 184.769 57.688C183.437 58.552 182.771 59.74 182.771 61.252C182.771 62.08 182.987 62.872 183.419 63.628C183.887 64.384 184.535 64.996 185.363 65.464C186.227 65.932 187.289 66.166 188.549 66.166C189.845 66.166 191.087 65.914 192.275 65.41C193.463 64.906 194.417 64.258 195.137 63.466Z" fill="white"/>
<g filter="url(#filter0_dii_3740_26963)">
<rect x="5" y="14" width="72" height="72" rx="36" fill="url(#paint0_linear_3740_26963)"/>
<path d="M42.0525 51.7663C41.5268 52.3606 40.4733 52.3606 39.9476 51.7663C39.7245 51.5141 39.486 51.2756 39.2338 51.0525C38.6395 50.5268 38.6395 49.4733 39.2338 48.9476C39.486 48.7245 39.7245 48.486 39.9476 48.2338C40.4733 47.6395 41.5268 47.6395 42.0525 48.2338C42.2756 48.486 42.5141 48.7245 42.7663 48.9476C43.3606 49.4733 43.3606 50.5268 42.7663 51.0525C42.5141 51.2756 42.2756 51.5141 42.0525 51.7663Z" fill="white"/>
<path fill-rule="evenodd" clip-rule="evenodd" d="M59.6409 50.5562C59.4412 50.2129 59.4412 49.7872 59.6409 49.4439C60.7772 47.4915 61.428 45.2218 61.428 42.8001C61.428 35.4945 55.5056 29.5721 48.2001 29.5721C45.7783 29.5721 43.5086 30.2229 41.5562 31.3592C41.2129 31.5589 40.7872 31.5589 40.4439 31.3592C38.4915 30.2229 36.2218 29.5721 33.8001 29.5721C26.4945 29.5721 20.5721 35.4945 20.5721 42.8001C20.5721 45.2218 21.2229 47.4915 22.3592 49.4439C22.5589 49.7872 22.5589 50.2129 22.3592 50.5562C21.2229 52.5086 20.5721 54.7783 20.5721 57.2001C20.5721 64.5056 26.4945 70.428 33.8001 70.428C36.2218 70.428 38.4915 69.7772 40.4439 68.6409C40.7872 68.4412 41.2129 68.4412 41.5562 68.6409C43.5086 69.7772 45.7783 70.428 48.2001 70.428C55.5056 70.428 61.428 64.5056 61.428 57.2001C61.428 54.7783 60.7772 52.5086 59.6409 50.5562ZM42.0525 62.6338C41.5268 62.0395 40.4733 62.0395 39.9476 62.6338C39.2041 63.4743 38.291 64.1612 37.2617 64.6408C36.21 65.131 35.037 65.4047 33.8001 65.4047C29.2687 65.4047 25.5954 61.7314 25.5954 57.2001C25.5954 55.9631 25.8691 54.7901 26.3593 53.7384C26.8389 52.7091 27.5258 51.796 28.3663 51.0525C28.9606 50.5268 28.9606 49.4733 28.3663 48.9476C27.5258 48.2041 26.8389 47.291 26.3593 46.2617C25.8691 45.21 25.5954 44.037 25.5954 42.8001C25.5954 38.2687 29.2687 34.5954 33.8001 34.5954C35.037 34.5954 36.21 34.8691 37.2617 35.3593C38.291 35.8389 39.2041 36.5258 39.9476 37.3663C40.4733 37.9606 41.5268 37.9606 42.0525 37.3663C42.796 36.5258 43.7091 35.8389 44.7384 35.3593C45.7901 34.8691 46.9631 34.5954 48.2001 34.5954C52.7314 34.5954 56.4047 38.2687 56.4047 42.8001C56.4047 44.037 56.131 45.21 55.6408 46.2617C55.1612 47.291 54.4743 48.2041 53.6338 48.9476C53.0395 49.4733 53.0395 50.5268 53.6338 51.0525C54.4743 51.796 55.1612 52.7091 55.6408 53.7384C56.131 54.7901 56.4047 55.9631 56.4047 57.2001C56.4047 61.7314 52.7314 65.4047 48.2001 65.4047C46.9631 65.4047 45.7901 65.131 44.7384 64.6408C43.7091 64.1612 42.796 63.4743 42.0525 62.6338Z" fill="white"/>
<circle cx="41" cy="50" r="5.69302" fill="white"/>
</g>
<path d="M243 53L235 49L227 53M243 53L235 57M243 53V63L235 67M235 57L227 53M235 57V67M227 53V63L235 67" stroke="#FF2D20" stroke-width="1.5" stroke-linejoin="round"/>
<path d="M255.474 55.8637V56.858H251.358V55.8637H255.474ZM252.591 63.5V54.8097C252.591 54.3722 252.694 54.0076 252.899 53.7159C253.105 53.4243 253.371 53.2055 253.7 53.0597C254.028 52.9139 254.374 52.8409 254.739 52.8409C255.027 52.8409 255.262 52.8641 255.445 52.9105C255.627 52.9569 255.763 53 255.852 53.0398L255.514 54.054C255.455 54.0341 255.372 54.0093 255.266 53.9794C255.163 53.9496 255.027 53.9347 254.858 53.9347C254.47 53.9347 254.19 54.0325 254.018 54.228C253.849 54.4236 253.764 54.7103 253.764 55.0881V63.5H252.591Z" fill="#FF2D20"/>
<path d="M259.907 63.6591C259.217 63.6591 258.612 63.4951 258.092 63.1669C257.575 62.8388 257.171 62.3798 256.879 61.7898C256.591 61.1998 256.446 60.5105 256.446 59.7216C256.446 58.9262 256.591 58.2318 256.879 57.6385C257.171 57.0453 257.575 56.5846 258.092 56.2564C258.612 55.9283 259.217 55.7642 259.907 55.7642C260.596 55.7642 261.199 55.9283 261.716 56.2564C262.237 56.5846 262.641 57.0453 262.929 57.6385C263.221 58.2318 263.367 58.9262 263.367 59.7216C263.367 60.5105 263.221 61.1998 262.929 61.7898C262.641 62.3798 262.237 62.8388 261.716 63.1669C261.199 63.4951 260.596 63.6591 259.907 63.6591ZM259.907 62.6051C260.43 62.6051 260.861 62.4709 261.199 62.2024C261.537 61.934 261.787 61.581 261.95 61.1435C262.112 60.706 262.193 60.232 262.193 59.7216C262.193 59.2112 262.112 58.7356 261.95 58.2948C261.787 57.854 261.537 57.4977 261.199 57.2259C260.861 56.9541 260.43 56.8182 259.907 56.8182C259.383 56.8182 258.952 56.9541 258.614 57.2259C258.276 57.4977 258.026 57.854 257.863 58.2948C257.701 58.7356 257.62 59.2112 257.62 59.7216C257.62 60.232 257.701 60.706 257.863 61.1435C258.026 61.581 258.276 61.934 258.614 62.2024C258.952 62.4709 259.383 62.6051 259.907 62.6051Z" fill="#FF2D20"/>
<path d="M265.158 63.5V55.8637H266.291V57.0171H266.371C266.51 56.6392 266.762 56.3327 267.127 56.0973C267.491 55.862 267.902 55.7444 268.36 55.7444C268.446 55.7444 268.553 55.746 268.683 55.7493C268.812 55.7526 268.91 55.7576 268.976 55.7642V56.9574C268.936 56.9475 268.845 56.9326 268.703 56.9127C268.563 56.8895 268.416 56.8779 268.26 56.8779C267.889 56.8779 267.557 56.9558 267.266 57.1115C266.977 57.264 266.749 57.4761 266.58 57.7479C266.414 58.0164 266.331 58.3229 266.331 58.6676V63.5H265.158Z" fill="#FF2D20"/>
<path d="M275.925 52H274V63.549H279.54V61.8497H275.925V52Z" fill="#FF2D20"/>
<path d="M286.365 57.1531C286.119 56.7681 285.771 56.4657 285.319 56.2457C284.867 56.0257 284.412 55.9156 283.955 55.9156C283.363 55.9156 282.822 56.0229 282.331 56.2374C281.84 56.4518 281.419 56.7463 281.068 57.1201C280.716 57.4941 280.443 57.9259 280.248 58.4151C280.052 58.9047 279.955 59.4191 279.955 59.9579C279.955 60.508 280.052 61.0249 280.248 61.5087C280.443 61.9929 280.716 62.4219 281.068 62.7956C281.419 63.1697 281.84 63.4638 282.331 63.6783C282.822 63.8927 283.363 64 283.955 64C284.412 64 284.867 63.8899 285.319 63.6701C285.771 63.4502 286.119 63.1478 286.365 62.7627V63.8021H288.189V56.1137H286.365V57.1531ZM286.198 60.8982C286.086 61.1953 285.93 61.4537 285.729 61.6737C285.528 61.8938 285.285 62.0697 285.001 62.2017C284.716 62.3337 284.401 62.3996 284.055 62.3996C283.709 62.3996 283.397 62.3337 283.118 62.2017C282.839 62.0696 282.599 61.8938 282.398 61.6737C282.197 61.4537 282.044 61.1953 281.938 60.8982C281.832 60.6013 281.779 60.2878 281.779 59.9579C281.779 59.6279 281.832 59.3143 281.938 59.0174C282.044 58.7205 282.197 58.4621 282.398 58.2421C282.599 58.0222 282.839 57.846 283.118 57.7141C283.397 57.582 283.709 57.5161 284.055 57.5161C284.401 57.5161 284.716 57.582 285.001 57.7141C285.285 57.8461 285.528 58.0222 285.729 58.2421C285.93 58.4621 286.086 58.7205 286.198 59.0174C286.309 59.3143 286.365 59.6279 286.365 59.9579C286.365 60.2878 286.309 60.6013 286.198 60.8982Z" fill="#FF2D20"/>
<path d="M301.163 56.8999C300.918 56.5149 300.569 56.2126 300.117 55.9925C299.665 55.7725 299.211 55.6625 298.753 55.6625C298.161 55.6625 297.621 55.7698 297.13 55.9842C296.639 56.1986 296.217 56.4931 295.866 56.8669C295.514 57.2409 295.241 57.6727 295.046 58.1619C294.85 58.6515 294.753 59.1659 294.753 59.7047C294.753 60.2548 294.85 60.7717 295.046 61.2555C295.241 61.7397 295.514 62.1687 295.866 62.5425C296.217 62.9165 296.638 63.2107 297.13 63.4251C297.62 63.6395 298.161 63.7468 298.753 63.7468C299.211 63.7468 299.665 63.6368 300.117 63.4169C300.569 63.1971 300.918 62.8946 301.163 62.5095V63.549H302.987V55.8605H301.163V56.8999ZM300.996 60.6451C300.884 60.9421 300.728 61.2006 300.527 61.4205C300.326 61.6406 300.084 61.8166 299.799 61.9485C299.514 62.0805 299.199 62.1464 298.853 62.1464C298.507 62.1464 298.195 62.0805 297.916 61.9485C297.637 61.8164 297.397 61.6406 297.196 61.4205C296.996 61.2006 296.842 60.9421 296.736 60.6451C296.63 60.3481 296.577 60.0346 296.577 59.7047C296.577 59.3747 296.63 59.0612 296.736 58.7642C296.842 58.4673 296.996 58.209 297.196 57.9889C297.397 57.769 297.637 57.5928 297.916 57.4609C298.195 57.3289 298.507 57.263 298.853 57.263C299.199 57.263 299.514 57.3289 299.799 57.4609C300.084 57.593 300.326 57.769 300.527 57.9889C300.728 58.209 300.884 58.4673 300.996 58.7642C301.107 59.0612 301.163 59.3747 301.163 59.7047C301.163 60.0346 301.107 60.3481 300.996 60.6451Z" fill="#FF2D20"/>
<path d="M323 52H321.176V63.549H323V52Z" fill="#FF2D20"/>
<path d="M289.599 63.5488H291.423V57.6299H294.553V55.8605H289.599V63.5488Z" fill="#FF2D20"/>
<path d="M310.301 55.8605L308.008 61.748L305.715 55.8605H303.868L306.862 63.5488H309.155L312.149 55.8605H310.301Z" fill="#FF2D20"/>
<path d="M316.127 55.6625C313.894 55.6625 312.125 57.4722 312.125 59.7045C312.125 62.1721 313.837 63.7465 316.361 63.7465C317.774 63.7465 318.676 63.2139 319.778 62.054L318.546 61.114C318.545 61.1149 317.616 62.318 316.228 62.318C314.614 62.318 313.935 61.0359 313.935 60.3725H319.987C320.305 57.8326 318.611 55.6625 316.127 55.6625ZM313.94 59.0363C313.954 58.8883 314.164 57.0908 316.113 57.0908C318.062 57.0908 318.298 58.8881 318.312 59.0363H313.94Z" fill="#FF2D20"/>
<defs>
<filter id="filter0_dii_3740_26963" x="4" y="12" width="76" height="77" filterUnits="userSpaceOnUse" color-interpolation-filters="sRGB">
<feFlood flood-opacity="0" result="BackgroundImageFix"/>
<feColorMatrix in="SourceAlpha" type="matrix" values="0 0 0 0 0 0 0 0 0 0 0 0 0 0 0 0 0 0 127 0" result="hardAlpha"/>
<feOffset dx="1" dy="1"/>
<feGaussianBlur stdDeviation="1"/>
<feColorMatrix type="matrix" values="0 0 0 0 0.0235294 0 0 0 0 0.305882 0 0 0 0 0.231373 0 0 0 0.2 0"/>
<feBlend mode="normal" in2="BackgroundImageFix" result="effect1_dropShadow_3740_26963"/>
<feBlend mode="normal" in="SourceGraphic" in2="effect1_dropShadow_3740_26963" result="shape"/>
<feColorMatrix in="SourceAlpha" type="matrix" values="0 0 0 0 0 0 0 0 0 0 0 0 0 0 0 0 0 0 127 0" result="hardAlpha"/>
<feOffset dx="1" dy="2"/>
<feGaussianBlur stdDeviation="1"/>
<feComposite in2="hardAlpha" operator="arithmetic" k2="-1" k3="1"/>
<feColorMatrix type="matrix" values="0 0 0 0 0.459201 0 0 0 0 0.958333 0 0 0 0 0.760331 0 0 0 1 0"/>
<feBlend mode="normal" in2="shape" result="effect2_innerShadow_3740_26963"/>
<feColorMatrix in="SourceAlpha" type="matrix" values="0 0 0 0 0 0 0 0 0 0 0 0 0 0 0 0 0 0 127 0" result="hardAlpha"/>
<feOffset dx="-1" dy="-2"/>
<feGaussianBlur stdDeviation="1"/>
<feComposite in2="hardAlpha" operator="arithmetic" k2="-1" k3="1"/>
<feColorMatrix type="matrix" values="0 0 0 0 0.0313498 0 0 0 0 0.537482 0 0 0 0 0.40392 0 0 0 1 0"/>
<feBlend mode="normal" in2="effect2_innerShadow_3740_26963" result="effect3_innerShadow_3740_26963"/>
</filter>
<linearGradient id="paint0_linear_3740_26963" x1="71.5" y1="70.5" x2="-0.999999" y2="6.5" gradientUnits="userSpaceOnUse">
<stop stop-color="#10B981"/>
<stop offset="1" stop-color="#6EE7B7"/>
</linearGradient>
</defs>
</svg>
