<svg width="1963" height="430" viewBox="0 0 1963 430" fill="none" xmlns="http://www.w3.org/2000/svg">
<rect width="430" height="430" rx="215" fill="#10B981"/>
<path fill-rule="evenodd" clip-rule="evenodd" d="M327.79 192.565C323.744 172.222 314.28 153.39 300.448 138.034C298.23 135.572 294.418 135.582 292.075 137.925L272.276 157.724C269.933 160.068 269.953 163.852 272.103 166.374C283.263 179.467 290 196.447 290 215C290 256.421 256.421 290 215 290C173.579 290 140 256.421 140 215C140 196.447 146.737 179.467 157.897 166.374C160.047 163.852 160.067 160.068 157.724 157.724L137.925 137.925C135.582 135.582 131.77 135.572 129.553 138.034C115.72 153.39 106.256 172.222 102.21 192.565C97.7724 214.873 100.05 237.995 108.754 259.009C117.458 280.022 132.198 297.983 151.109 310.619C170.021 323.255 192.255 330 215 330C237.745 330 259.979 323.255 278.891 310.619C297.802 297.983 312.542 280.022 321.246 259.009C329.95 237.995 332.228 214.873 327.79 192.565Z" fill="white"/>
<rect x="197" y="100" width="36" height="36" rx="18" fill="white"/>
<rect x="197" y="150" width="36" height="80" rx="6" fill="white"/>
<path d="M552.074 257.831H618.08V283.5H523.703V150.909H552.074V257.831ZM678.643 181.403C687.263 181.403 694.919 183.14 701.61 186.614C708.3 190.088 713.447 195.042 717.05 201.475C720.781 207.78 722.647 215.242 722.647 223.863V283.5H695.434V273.464C691.96 277.324 687.521 280.348 682.117 282.535C676.841 284.722 671.437 285.816 665.905 285.816C658.828 285.816 652.459 284.529 646.798 281.956C641.136 279.254 636.633 275.523 633.288 270.762C630.071 265.873 628.463 260.276 628.463 253.971C628.463 247.538 630.264 241.812 633.867 236.794C637.598 231.776 642.616 227.852 648.921 225.021C655.225 222.19 662.173 220.775 669.765 220.775C678.385 220.775 686.942 222.512 695.434 225.986V223.863C695.434 218.073 693.504 213.312 689.644 209.581C685.784 205.85 679.994 203.984 672.274 203.984C664.296 203.984 655.676 206.364 646.412 211.125L636.955 192.404C651.365 185.07 665.261 181.403 678.643 181.403ZM672.274 266.323C677.935 266.323 682.953 265.101 687.328 262.656C691.702 260.083 694.404 256.544 695.434 252.041V242.97C688.872 240.397 681.666 239.11 673.818 239.11C668.671 239.11 664.296 240.461 660.694 243.163C657.091 245.865 655.29 249.21 655.29 253.199C655.29 257.188 656.898 260.404 660.115 262.849C663.331 265.165 667.384 266.323 672.274 266.323ZM770.257 202.44C773.603 195.878 778.235 190.731 784.153 187C790.201 183.269 796.956 181.403 804.418 181.403V205.142C793.996 205.142 785.697 207.908 779.521 213.441C773.345 218.974 770.257 226.436 770.257 235.829V283.5H742.079V183.719H770.257V202.44ZM853.926 181.403C862.547 181.403 870.202 183.14 876.893 186.614C883.584 190.088 888.73 195.042 892.333 201.475C896.064 207.78 897.93 215.242 897.93 223.863V283.5H870.717V273.464C867.243 277.324 862.804 280.348 857.4 282.535C852.125 284.722 846.721 285.816 841.188 285.816C834.111 285.816 827.742 284.529 822.081 281.956C816.42 279.254 811.916 275.523 808.571 270.762C805.354 265.873 803.746 260.276 803.746 253.971C803.746 247.538 805.547 241.812 809.15 236.794C812.881 231.776 817.899 227.852 824.204 225.021C830.509 222.19 837.457 220.775 845.048 220.775C853.669 220.775 862.225 222.512 870.717 225.986V223.863C870.717 218.073 868.787 213.312 864.927 209.581C861.067 205.85 855.277 203.984 847.557 203.984C839.58 203.984 830.959 206.364 821.695 211.125L812.238 192.404C826.649 185.07 840.545 181.403 853.926 181.403ZM847.557 266.323C853.218 266.323 858.236 265.101 862.611 262.656C866.986 260.083 869.688 256.544 870.717 252.041V242.97C864.155 240.397 856.95 239.11 849.101 239.11C843.954 239.11 839.58 240.461 835.977 243.163C832.374 245.865 830.573 249.21 830.573 253.199C830.573 257.188 832.181 260.404 835.398 262.849C838.615 265.165 842.668 266.323 847.557 266.323ZM905.864 183.719H935.393L962.22 251.076L988.468 183.719H1017.8L975.151 283.5H949.096L905.864 183.719ZM1074.33 264.007C1078.83 264.007 1083.46 263.106 1088.22 261.305C1092.98 259.504 1096.97 257.123 1100.19 254.164L1116.02 270.376C1111.64 275.008 1105.59 278.739 1097.87 281.57C1090.28 284.401 1082.76 285.816 1075.29 285.816C1065.51 285.816 1056.51 283.564 1048.27 279.061C1040.17 274.558 1033.73 268.317 1028.97 260.34C1024.21 252.363 1021.83 243.356 1021.83 233.32C1021.83 223.413 1024.08 214.535 1028.59 206.686C1033.22 198.837 1039.46 192.661 1047.31 188.158C1055.28 183.655 1064.1 181.403 1073.75 181.403C1084.04 181.403 1092.98 183.783 1100.58 188.544C1108.17 193.305 1113.96 200.188 1117.95 209.195C1121.93 218.202 1123.93 228.817 1123.93 241.04H1048.66C1049.95 247.988 1052.84 253.585 1057.34 257.831C1061.98 261.948 1067.64 264.007 1074.33 264.007ZM1073.94 203.212C1067.77 203.212 1062.43 205.142 1057.92 209.002C1053.42 212.733 1050.4 217.816 1048.85 224.249H1096.91C1095.75 217.816 1093.18 212.733 1089.19 209.002C1085.2 205.142 1080.12 203.212 1073.94 203.212ZM1139.98 148.593H1168.16V283.5H1139.98V148.593Z" fill="#10B981"/>
<path d="M1236.05 150.909H1251.11V283.5H1236.05V150.909ZM1324.52 181.403C1331.85 181.403 1338.35 183.011 1344.01 186.228C1349.67 189.445 1354.05 194.012 1357.14 199.931C1360.35 205.721 1361.96 212.412 1361.96 220.003V283.5H1347.49V221.933C1347.49 213.698 1345.17 207.072 1340.54 202.054C1335.91 196.907 1329.92 194.334 1322.59 194.334C1317.06 194.334 1311.91 195.492 1307.15 197.808C1302.39 200.124 1298.59 203.276 1295.76 207.265C1293.06 211.125 1291.71 215.371 1291.71 220.003V283.5H1277.24V183.719H1291.71V199.545C1294.67 194.141 1299.11 189.766 1305.03 186.421C1310.95 183.076 1317.44 181.403 1324.52 181.403ZM1382.59 183.719H1397.07V283.5H1382.59V183.719ZM1389.93 165.577C1387.23 165.577 1384.91 164.612 1382.98 162.682C1381.18 160.752 1380.28 158.5 1380.28 155.927C1380.28 153.354 1381.18 151.166 1382.98 149.365C1384.91 147.435 1387.23 146.47 1389.93 146.47C1392.5 146.47 1394.69 147.435 1396.49 149.365C1398.42 151.166 1399.38 153.354 1399.38 155.927C1399.38 158.5 1398.42 160.752 1396.49 162.682C1394.69 164.612 1392.5 165.577 1389.93 165.577ZM1472.43 279.447C1467.02 283.693 1460.85 285.816 1453.9 285.816C1446.82 285.816 1440.97 283.436 1436.34 278.675C1431.83 273.914 1429.58 267.803 1429.58 260.34V196.65H1413.95V183.719H1429.58V156.313H1444.06V183.719H1468.57V196.65H1444.06V260.34C1444.06 263.943 1445.08 266.966 1447.14 269.411C1449.33 271.727 1451.9 272.885 1454.86 272.885C1457.05 272.885 1459.04 272.499 1460.85 271.727C1462.65 270.955 1464.13 269.99 1465.29 268.832L1472.43 279.447ZM1489.08 183.719H1503.56V283.5H1489.08V183.719ZM1496.42 165.577C1493.72 165.577 1491.4 164.612 1489.47 162.682C1487.67 160.752 1486.77 158.5 1486.77 155.927C1486.77 153.354 1487.67 151.166 1489.47 149.365C1491.4 147.435 1493.72 146.47 1496.42 146.47C1498.99 146.47 1501.18 147.435 1502.98 149.365C1504.91 151.166 1505.87 153.354 1505.87 155.927C1505.87 158.5 1504.91 160.752 1502.98 162.682C1501.18 164.612 1498.99 165.577 1496.42 165.577ZM1566.56 181.403C1579.82 181.403 1589.85 185.199 1596.67 192.79C1603.62 200.253 1607.09 210.224 1607.09 222.705V283.5H1592.62V267.867C1589.14 273.528 1584.13 277.967 1577.56 281.184C1571.13 284.272 1564.44 285.816 1557.49 285.816C1546.81 285.816 1538.06 282.921 1531.24 277.131C1524.43 271.341 1521.02 263.621 1521.02 253.971C1521.02 247.538 1522.75 241.812 1526.23 236.794C1529.83 231.647 1534.59 227.723 1540.51 225.021C1546.56 222.19 1553.12 220.775 1560.19 220.775C1570.23 220.775 1581.04 222.641 1592.62 226.372V222.705C1592.62 214.599 1590.56 207.78 1586.44 202.247C1582.33 196.586 1575.38 193.755 1565.6 193.755C1561.1 193.755 1556.46 194.591 1551.7 196.264C1547.07 197.808 1541.99 199.995 1536.46 202.826L1530.67 191.053C1543.53 184.62 1555.5 181.403 1566.56 181.403ZM1560 273.078C1567.21 273.078 1573.96 271.277 1580.27 267.674C1586.7 263.943 1590.82 258.796 1592.62 252.234V236.987C1582.84 234.285 1572.8 232.934 1562.51 232.934C1554.92 232.934 1548.42 234.864 1543.02 238.724C1537.74 242.584 1535.1 247.473 1535.1 253.392C1535.1 259.439 1537.42 264.264 1542.05 267.867C1546.81 271.341 1552.8 273.078 1560 273.078ZM1628.19 148.593H1642.66V283.5H1628.19V148.593ZM1665.12 183.719H1679.6V283.5H1665.12V183.719ZM1672.45 165.577C1669.75 165.577 1667.44 164.612 1665.51 162.682C1663.7 160.752 1662.8 158.5 1662.8 155.927C1662.8 153.354 1663.7 151.166 1665.51 149.365C1667.44 147.435 1669.75 146.47 1672.45 146.47C1675.03 146.47 1677.21 147.435 1679.02 149.365C1680.95 151.166 1681.91 153.354 1681.91 155.927C1681.91 158.5 1680.95 160.752 1679.02 162.682C1677.21 164.612 1675.03 165.577 1672.45 165.577ZM1697.44 272.113L1756.3 197.422H1698.6V183.719H1775.8V195.106L1716.74 269.797H1776.18V283.5H1697.44V272.113ZM1840.36 272.885C1846.28 272.885 1852.2 271.727 1858.11 269.411C1864.16 267.095 1868.73 264.264 1871.82 260.919L1880.7 270.376C1876.45 275.008 1870.47 278.739 1862.75 281.57C1855.15 284.401 1847.76 285.816 1840.55 285.816C1831.67 285.816 1823.37 283.564 1815.65 279.061C1807.93 274.558 1801.69 268.317 1796.93 260.34C1792.3 252.234 1789.99 243.227 1789.99 233.32C1789.99 223.67 1792.17 214.856 1796.55 206.879C1801.05 198.902 1807.03 192.661 1814.5 188.158C1822.09 183.655 1830.32 181.403 1839.2 181.403C1854.13 181.403 1865.71 186.614 1873.94 197.036C1882.3 207.458 1886.49 221.483 1886.49 239.11H1804.85C1805.88 249.017 1809.61 257.123 1816.04 263.428C1822.6 269.733 1830.71 272.885 1840.36 272.885ZM1839.78 194.334C1830.77 194.334 1823.05 197.293 1816.62 203.212C1810.19 209.002 1806.33 216.658 1805.04 226.179H1872.2C1871.17 216.658 1867.89 209.002 1862.36 203.212C1856.83 197.293 1849.3 194.334 1839.78 194.334ZM1918.21 203.212C1921.17 196.521 1926.06 191.246 1932.87 187.386C1939.69 183.397 1947.67 181.403 1956.81 181.403V194.334C1949.34 194.334 1942.65 195.749 1936.73 198.58C1930.94 201.411 1926.38 205.399 1923.03 210.546C1919.81 215.564 1918.21 221.29 1918.21 227.723V283.5H1903.73V183.719H1918.21V203.212Z" fill="black"/>
</svg>
