<svg width="400" height="148" viewBox="0 0 400 148" fill="none" xmlns="http://www.w3.org/2000/svg">
<rect y="30.0557" width="87.4095" height="87.6213" rx="43.7048" fill="#10B981"/>
<path fill-rule="evenodd" clip-rule="evenodd" d="M66.6251 69.2932C65.8027 65.1489 63.8795 61.3124 61.0688 58.1837C60.6173 57.6811 59.8399 57.6831 59.3628 58.1614L55.3371 62.1968C54.8617 62.6734 54.8658 63.4419 55.3019 63.9548C57.5712 66.623 58.9409 70.0833 58.9409 73.8643C58.9409 82.3048 52.1151 89.1471 43.6951 89.1471C35.275 89.1471 28.4492 82.3048 28.4492 73.8643C28.4492 70.0823 29.8197 66.6211 32.0901 63.9526C32.5264 63.4397 32.5306 62.6711 32.0551 62.1944L28.0318 58.1614C27.5547 57.6831 26.7772 57.6811 26.3258 58.1837C23.5151 61.3124 21.5919 65.1489 20.7695 69.2932C19.8675 73.8389 20.3304 78.5506 22.0998 82.8325C23.8691 87.1144 26.8654 90.7743 30.7097 93.3492C34.5541 95.9241 39.0738 97.2985 43.6973 97.2985C48.3208 97.2985 52.8405 95.9241 56.6848 93.3492C60.5292 90.7743 63.5254 87.1144 65.2948 82.8325C67.0641 78.5506 67.5271 73.8389 66.6251 69.2932Z" fill="white"/>
<rect x="40.043" y="50.4336" width="7.31801" height="7.33573" rx="3.659" fill="white"/>
<rect x="40.043" y="60.623" width="7.31801" height="16.3016" rx="1.22114" fill="white"/>
<path d="M112.254 82.5853H125.688V87.8096H106.48V60.8241H112.254V82.5853ZM138.014 67.0304C139.769 67.0304 141.327 67.3839 142.689 68.0909C144.05 68.798 145.098 69.8062 145.831 71.1155C146.59 72.3987 146.97 73.9175 146.97 75.672V87.8096H141.432V85.767C140.725 86.5526 139.821 87.168 138.721 87.6132C137.648 88.0583 136.548 88.2809 135.422 88.2809C133.982 88.2809 132.685 88.0191 131.533 87.4953C130.381 86.9454 129.464 86.186 128.783 85.2171C128.129 84.222 127.801 83.0829 127.801 81.7997C127.801 80.4904 128.168 79.3251 128.901 78.3038C129.661 77.2825 130.682 76.4838 131.965 75.9077C133.248 75.3316 134.662 75.0435 136.207 75.0435C137.962 75.0435 139.703 75.397 141.432 76.1041V75.672C141.432 74.4936 141.039 73.5247 140.253 72.7653C139.468 72.0059 138.289 71.6262 136.718 71.6262C135.094 71.6262 133.34 72.1106 131.454 73.0795L129.53 69.2693C132.463 67.7767 135.291 67.0304 138.014 67.0304ZM136.718 84.3136C137.87 84.3136 138.892 84.0649 139.782 83.5673C140.672 83.0436 141.222 82.3234 141.432 81.4069V79.5607C140.096 79.037 138.63 78.7751 137.032 78.7751C135.985 78.7751 135.094 79.0501 134.361 79.6C133.628 80.1499 133.261 80.8308 133.261 81.6426C133.261 82.4544 133.589 83.109 134.243 83.6066C134.898 84.078 135.723 84.3136 136.718 84.3136ZM156.66 71.3119C157.341 69.9764 158.284 68.9289 159.488 68.1695C160.719 67.4101 162.094 67.0304 163.613 67.0304V71.8618C161.492 71.8618 159.802 72.4249 158.545 73.5509C157.289 74.6769 156.66 76.1957 156.66 78.1074V87.8096H150.925V67.5017H156.66V71.3119ZM173.689 67.0304C175.443 67.0304 177.001 67.3839 178.363 68.0909C179.725 68.798 180.772 69.8062 181.505 71.1155C182.265 72.3987 182.644 73.9175 182.644 75.672V87.8096H177.106V85.767C176.399 86.5526 175.495 87.168 174.396 87.6132C173.322 88.0583 172.222 88.2809 171.096 88.2809C169.656 88.2809 168.36 88.0191 167.207 87.4953C166.055 86.9454 165.139 86.186 164.458 85.2171C163.803 84.222 163.476 83.0829 163.476 81.7997C163.476 80.4904 163.842 79.3251 164.576 78.3038C165.335 77.2825 166.356 76.4838 167.639 75.9077C168.923 75.3316 170.337 75.0435 171.882 75.0435C173.636 75.0435 175.378 75.397 177.106 76.1041V75.672C177.106 74.4936 176.713 73.5247 175.928 72.7653C175.142 72.0059 173.964 71.6262 172.392 71.6262C170.769 71.6262 169.014 72.1106 167.129 73.0795L165.204 69.2693C168.137 67.7767 170.965 67.0304 173.689 67.0304ZM172.392 84.3136C173.545 84.3136 174.566 84.0649 175.456 83.5673C176.347 83.0436 176.896 82.3234 177.106 81.4069V79.5607C175.77 79.037 174.304 78.7751 172.707 78.7751C171.659 78.7751 170.769 79.0501 170.036 79.6C169.302 80.1499 168.936 80.8308 168.936 81.6426C168.936 82.4544 169.263 83.109 169.918 83.6066C170.572 84.078 171.397 84.3136 172.392 84.3136ZM184.259 67.5017H190.269L195.729 81.2105L201.071 67.5017H207.042L198.361 87.8096H193.058L184.259 67.5017ZM218.546 83.8423C219.462 83.8423 220.405 83.659 221.374 83.2924C222.343 82.9257 223.154 82.4413 223.809 81.839L227.03 85.1385C226.14 86.0812 224.909 86.8407 223.338 87.4168C221.793 87.9929 220.261 88.2809 218.742 88.2809C216.752 88.2809 214.919 87.8227 213.243 86.9061C211.593 85.9896 210.284 84.7195 209.315 83.096C208.346 81.4724 207.861 79.6393 207.861 77.5967C207.861 75.5804 208.32 73.7735 209.236 72.1761C210.179 70.5787 211.449 69.3217 213.046 68.4052C214.67 67.4886 216.464 67.0304 218.428 67.0304C220.523 67.0304 222.343 67.5148 223.888 68.4837C225.433 69.4527 226.611 70.8536 227.423 72.6867C228.235 74.5198 228.641 76.6802 228.641 79.1679H213.321C213.583 80.582 214.172 81.7211 215.089 82.5853C216.032 83.4233 217.184 83.8423 218.546 83.8423ZM218.467 71.469C217.21 71.469 216.123 71.8618 215.207 72.6474C214.29 73.4069 213.675 74.4412 213.361 75.7506H223.141C222.906 74.4412 222.382 73.4069 221.57 72.6474C220.758 71.8618 219.724 71.469 218.467 71.469ZM231.908 60.3528H237.642V87.8096H231.908V60.3528Z" fill="#10B981"/>
<path d="M251.896 60.8241H254.96V87.8096H251.896V60.8241ZM269.901 67.0304C271.394 67.0304 272.716 67.3577 273.868 68.0124C275.02 68.6671 275.911 69.5967 276.539 70.8013C277.194 71.9797 277.521 73.3414 277.521 74.8864V87.8096H274.575V75.2792C274.575 73.6033 274.104 72.2546 273.161 71.2334C272.218 70.1859 271.001 69.6621 269.508 69.6621C268.382 69.6621 267.335 69.8978 266.366 70.3692C265.397 70.8406 264.624 71.4821 264.048 72.2939C263.498 73.0795 263.223 73.9437 263.223 74.8864V87.8096H260.277V67.5017H263.223V70.7227C263.826 69.6229 264.729 68.7325 265.934 68.0517C267.138 67.3708 268.461 67.0304 269.901 67.0304ZM281.72 67.5017H284.666V87.8096H281.72V67.5017ZM283.213 63.8094C282.663 63.8094 282.192 63.613 281.799 63.2202C281.432 62.8274 281.249 62.3691 281.249 61.8454C281.249 61.3217 281.432 60.8765 281.799 60.5099C282.192 60.1171 282.663 59.9207 283.213 59.9207C283.737 59.9207 284.182 60.1171 284.548 60.5099C284.941 60.8765 285.138 61.3217 285.138 61.8454C285.138 62.3691 284.941 62.8274 284.548 63.2202C284.182 63.613 283.737 63.8094 283.213 63.8094ZM300.003 86.9847C298.903 87.8489 297.646 88.2809 296.232 88.2809C294.792 88.2809 293.601 87.7965 292.658 86.8276C291.741 85.8587 291.283 84.6148 291.283 83.096V70.1335H288.101V67.5017H291.283V61.924H294.229V67.5017H299.218V70.1335H294.229V83.096C294.229 83.8292 294.439 84.4446 294.858 84.9421C295.303 85.4135 295.827 85.6492 296.429 85.6492C296.874 85.6492 297.28 85.5706 297.646 85.4135C298.013 85.2564 298.314 85.06 298.55 84.8243L300.003 86.9847ZM303.393 67.5017H306.339V87.8096H303.393V67.5017ZM304.886 63.8094C304.336 63.8094 303.865 63.613 303.472 63.2202C303.105 62.8274 302.922 62.3691 302.922 61.8454C302.922 61.3217 303.105 60.8765 303.472 60.5099C303.865 60.1171 304.336 59.9207 304.886 59.9207C305.41 59.9207 305.855 60.1171 306.222 60.5099C306.614 60.8765 306.811 61.3217 306.811 61.8454C306.811 62.3691 306.614 62.8274 306.222 63.2202C305.855 63.613 305.41 63.8094 304.886 63.8094ZM319.162 67.0304C321.86 67.0304 323.902 67.8029 325.29 69.3479C326.704 70.8667 327.411 72.8962 327.411 75.4363V87.8096H324.465V84.6279C323.758 85.7801 322.737 86.6835 321.401 87.3382C320.092 87.9667 318.73 88.2809 317.316 88.2809C315.143 88.2809 313.362 87.6917 311.974 86.5133C310.586 85.3349 309.892 83.7637 309.892 81.7997C309.892 80.4904 310.246 79.3251 310.953 78.3038C311.686 77.2563 312.655 76.4576 313.86 75.9077C315.09 75.3316 316.426 75.0435 317.866 75.0435C319.909 75.0435 322.109 75.4232 324.465 76.1827V75.4363C324.465 73.7866 324.046 72.3987 323.208 71.2726C322.37 70.1204 320.956 69.5443 318.966 69.5443C318.05 69.5443 317.107 69.7145 316.138 70.0549C315.195 70.3692 314.161 70.8144 313.035 71.3905L311.856 68.9944C314.475 67.685 316.91 67.0304 319.162 67.0304ZM317.827 85.6884C319.293 85.6884 320.668 85.3218 321.951 84.5886C323.261 83.8292 324.099 82.7817 324.465 81.4462V78.3431C322.475 77.7931 320.433 77.5182 318.338 77.5182C316.793 77.5182 315.47 77.911 314.37 78.6966C313.297 79.4822 312.76 80.4773 312.76 81.6819C312.76 82.9126 313.231 83.8947 314.174 84.6279C315.143 85.3349 316.361 85.6884 317.827 85.6884ZM331.705 60.3528H334.651V87.8096H331.705V60.3528ZM339.221 67.5017H342.167V87.8096H339.221V67.5017ZM340.714 63.8094C340.164 63.8094 339.692 63.613 339.3 63.2202C338.933 62.8274 338.75 62.3691 338.75 61.8454C338.75 61.3217 338.933 60.8765 339.3 60.5099C339.692 60.1171 340.164 59.9207 340.714 59.9207C341.238 59.9207 341.683 60.1171 342.049 60.5099C342.442 60.8765 342.639 61.3217 342.639 61.8454C342.639 62.3691 342.442 62.8274 342.049 63.2202C341.683 63.613 341.238 63.8094 340.714 63.8094ZM345.799 85.492L357.779 70.2906H346.034V67.5017H361.746V69.8193L349.727 85.0207H361.825V87.8096H345.799V85.492ZM374.886 85.6492C376.091 85.6492 377.295 85.4135 378.5 84.9421C379.731 84.4708 380.66 83.8947 381.289 83.2138L383.096 85.1385C382.232 86.0812 381.014 86.8407 379.443 87.4168C377.898 87.9929 376.392 88.2809 374.926 88.2809C373.119 88.2809 371.43 87.8227 369.858 86.9061C368.287 85.9896 367.017 84.7195 366.048 83.096C365.106 81.4462 364.634 79.6131 364.634 77.5967C364.634 75.6327 365.079 73.8389 365.97 72.2154C366.886 70.5918 368.104 69.3217 369.623 68.4052C371.168 67.4886 372.844 67.0304 374.651 67.0304C377.688 67.0304 380.045 68.0909 381.721 70.2121C383.423 72.3332 384.274 75.1876 384.274 78.7751H367.659C367.868 80.7915 368.628 82.4413 369.937 83.7244C371.272 85.0076 372.922 85.6492 374.886 85.6492ZM374.768 69.6621C372.935 69.6621 371.364 70.2644 370.055 71.469C368.745 72.6474 367.96 74.2056 367.698 76.1434H381.367C381.158 74.2056 380.49 72.6474 379.364 71.469C378.238 70.2644 376.706 69.6621 374.768 69.6621ZM390.73 71.469C391.333 70.1073 392.328 69.0337 393.716 68.2481C395.103 67.4363 396.727 67.0304 398.586 67.0304V69.6621C397.067 69.6621 395.706 69.9502 394.501 70.5263C393.323 71.1024 392.393 71.9142 391.712 72.9617C391.058 73.983 390.73 75.1483 390.73 76.4576V87.8096H387.784V67.5017H390.73V71.469Z" fill="black"/>
</svg>
