<svg width="395" height="109" viewBox="0 0 395 109" fill="none" xmlns="http://www.w3.org/2000/svg">
<rect y="10.6895" width="87.4095" height="87.6213" rx="43.7048" fill="#10B981"/>
<path fill-rule="evenodd" clip-rule="evenodd" d="M66.6251 49.9265C65.8027 45.7822 63.8795 41.9457 61.0688 38.817C60.6173 38.3144 59.8399 38.3164 59.3628 38.7947L55.3371 42.8301C54.8617 43.3067 54.8658 44.0752 55.3019 44.5881C57.5712 47.2563 58.9409 50.7166 58.9409 54.4976C58.9409 62.9381 52.1151 69.7804 43.6951 69.7804C35.275 69.7804 28.4492 62.9381 28.4492 54.4976C28.4492 50.7156 29.8197 47.2544 32.0901 44.5859C32.5264 44.073 32.5306 43.3044 32.0551 42.8277L28.0318 38.7947C27.5547 38.3164 26.7772 38.3144 26.3258 38.817C23.5151 41.9457 21.5919 45.7822 20.7695 49.9265C19.8675 54.4722 20.3304 59.1839 22.0998 63.4658C23.8691 67.7477 26.8654 71.4076 30.7097 73.9825C34.5541 76.5574 39.0738 77.9318 43.6973 77.9318C48.3208 77.9318 52.8405 76.5574 56.6848 73.9825C60.5292 71.4076 63.5254 67.7477 65.2948 63.4658C67.0641 59.1839 67.5271 54.4722 66.6251 49.9265Z" fill="white"/>
<rect x="40.043" y="31.0679" width="7.31801" height="7.33573" rx="3.659" fill="white"/>
<rect x="40.043" y="41.2573" width="7.31801" height="16.3016" rx="1.22114" fill="white"/>
<path d="M112.254 63.2179H125.688V68.4421H106.48V41.4567H112.254V63.2179ZM138.014 47.6629C139.769 47.6629 141.327 48.0165 142.689 48.7235C144.05 49.4306 145.098 50.4387 145.831 51.7481C146.59 53.0312 146.97 54.5501 146.97 56.3046V68.4421H141.432V66.3996C140.725 67.1852 139.821 67.8006 138.721 68.2457C137.648 68.6909 136.548 68.9135 135.422 68.9135C133.982 68.9135 132.685 68.6516 131.533 68.1279C130.381 67.578 129.464 66.8186 128.783 65.8496C128.129 64.8546 127.801 63.7154 127.801 62.4323C127.801 61.1229 128.168 59.9576 128.901 58.9363C129.661 57.9151 130.682 57.1164 131.965 56.5403C133.248 55.9641 134.662 55.6761 136.207 55.6761C137.962 55.6761 139.703 56.0296 141.432 56.7367V56.3046C141.432 55.1262 141.039 54.1573 140.253 53.3978C139.468 52.6384 138.289 52.2587 136.718 52.2587C135.094 52.2587 133.34 52.7432 131.454 53.7121L129.53 49.9019C132.463 48.4093 135.291 47.6629 138.014 47.6629ZM136.718 64.9462C137.87 64.9462 138.892 64.6974 139.782 64.1999C140.672 63.6761 141.222 62.956 141.432 62.0395V60.1933C140.096 59.6696 138.63 59.4077 137.032 59.4077C135.985 59.4077 135.094 59.6827 134.361 60.2326C133.628 60.7825 133.261 61.4634 133.261 62.2752C133.261 63.0869 133.589 63.7416 134.243 64.2392C134.898 64.7105 135.723 64.9462 136.718 64.9462ZM156.66 51.9445C157.341 50.609 158.284 49.5615 159.488 48.8021C160.719 48.0427 162.094 47.6629 163.613 47.6629V52.4944C161.492 52.4944 159.802 53.0574 158.545 54.1835C157.289 55.3095 156.66 56.8283 156.66 58.7399V68.4421H150.925V48.1343H156.66V51.9445ZM173.689 47.6629C175.443 47.6629 177.001 48.0165 178.363 48.7235C179.725 49.4306 180.772 50.4387 181.505 51.7481C182.265 53.0312 182.644 54.5501 182.644 56.3046V68.4421H177.106V66.3996C176.399 67.1852 175.495 67.8006 174.396 68.2457C173.322 68.6909 172.222 68.9135 171.096 68.9135C169.656 68.9135 168.36 68.6516 167.207 68.1279C166.055 67.578 165.139 66.8186 164.458 65.8496C163.803 64.8546 163.476 63.7154 163.476 62.4323C163.476 61.1229 163.842 59.9576 164.576 58.9363C165.335 57.9151 166.356 57.1164 167.639 56.5403C168.923 55.9641 170.337 55.6761 171.882 55.6761C173.636 55.6761 175.378 56.0296 177.106 56.7367V56.3046C177.106 55.1262 176.713 54.1573 175.928 53.3978C175.142 52.6384 173.964 52.2587 172.392 52.2587C170.769 52.2587 169.014 52.7432 167.129 53.7121L165.204 49.9019C168.137 48.4093 170.965 47.6629 173.689 47.6629ZM172.392 64.9462C173.545 64.9462 174.566 64.6974 175.456 64.1999C176.347 63.6761 176.896 62.956 177.106 62.0395V60.1933C175.77 59.6696 174.304 59.4077 172.707 59.4077C171.659 59.4077 170.769 59.6827 170.036 60.2326C169.302 60.7825 168.936 61.4634 168.936 62.2752C168.936 63.0869 169.263 63.7416 169.918 64.2392C170.572 64.7105 171.397 64.9462 172.392 64.9462ZM184.259 48.1343H190.269L195.729 61.8431L201.071 48.1343H207.042L198.361 68.4421H193.058L184.259 48.1343ZM218.546 64.4748C219.462 64.4748 220.405 64.2915 221.374 63.9249C222.343 63.5583 223.154 63.0739 223.809 62.4716L227.03 65.7711C226.14 66.7138 224.909 67.4732 223.338 68.0493C221.793 68.6254 220.261 68.9135 218.742 68.9135C216.752 68.9135 214.919 68.4552 213.243 67.5387C211.593 66.6222 210.284 65.3521 209.315 63.7285C208.346 62.1049 207.861 60.2719 207.861 58.2293C207.861 56.2129 208.32 54.406 209.236 52.8086C210.179 51.2113 211.449 49.9543 213.046 49.0378C214.67 48.1212 216.464 47.6629 218.428 47.6629C220.523 47.6629 222.343 48.1474 223.888 49.1163C225.433 50.0852 226.611 51.4862 227.423 53.3193C228.235 55.1524 228.641 57.3128 228.641 59.8005H213.321C213.583 61.2146 214.172 62.3537 215.089 63.2179C216.032 64.0559 217.184 64.4748 218.546 64.4748ZM218.467 52.1016C217.21 52.1016 216.123 52.4944 215.207 53.28C214.29 54.0394 213.675 55.0738 213.361 56.3831H223.141C222.906 55.0738 222.382 54.0394 221.57 53.28C220.758 52.4944 219.724 52.1016 218.467 52.1016ZM231.908 40.9853H237.642V68.4421H231.908V40.9853Z" fill="#10B981"/>
<path d="M271.261 44.3634H254.999V53.2407H269.651V56.1475H254.999V68.4421H251.896V41.4567H271.261V44.3634ZM285.053 68.9135C283.168 68.9135 281.413 68.4421 279.79 67.4994C278.192 66.5305 276.922 65.2343 275.98 63.6107C275.037 61.9609 274.565 60.1802 274.565 58.2686C274.565 56.357 275.037 54.5893 275.98 52.9658C276.922 51.3422 278.192 50.059 279.79 49.1163C281.413 48.1474 283.168 47.6629 285.053 47.6629C286.939 47.6629 288.68 48.1474 290.278 49.1163C291.875 50.059 293.145 51.3422 294.088 52.9658C295.03 54.5893 295.502 56.357 295.502 58.2686C295.502 60.1802 295.03 61.9609 294.088 63.6107C293.145 65.2343 291.875 66.5305 290.278 67.4994C288.68 68.4421 286.939 68.9135 285.053 68.9135ZM285.053 66.2817C286.389 66.2817 287.62 65.9282 288.746 65.2212C289.872 64.4879 290.762 63.5059 291.417 62.2752C292.098 61.0444 292.438 59.7089 292.438 58.2686C292.438 56.8283 292.098 55.5059 291.417 54.3013C290.762 53.0705 289.872 52.1016 288.746 51.3946C287.62 50.6613 286.389 50.2947 285.053 50.2947C283.718 50.2947 282.474 50.6613 281.322 51.3946C280.196 52.1016 279.292 53.0705 278.611 54.3013C277.957 55.5059 277.629 56.8283 277.629 58.2686C277.629 59.7089 277.957 61.0444 278.611 62.2752C279.292 63.5059 280.196 64.4879 281.322 65.2212C282.474 65.9282 283.718 66.2817 285.053 66.2817ZM302.043 52.1016C302.646 50.7399 303.641 49.6662 305.029 48.8806C306.417 48.0688 308.04 47.6629 309.9 47.6629V50.2947C308.381 50.2947 307.019 50.5828 305.814 51.1589C304.636 51.735 303.706 52.5468 303.025 53.5942C302.371 54.6155 302.043 55.7808 302.043 57.0902V68.4421H299.097V48.1343H302.043V52.1016ZM335.286 47.6629C336.674 47.6629 337.918 48.0034 339.018 48.6842C340.118 49.3389 340.969 50.2685 341.571 51.4731C342.2 52.6515 342.514 54.0001 342.514 55.519V68.4421H339.568V55.9118C339.568 54.262 339.123 52.9134 338.232 51.8659C337.368 50.8185 336.255 50.2947 334.894 50.2947C333.27 50.2947 331.948 50.7923 330.926 51.7874C329.905 52.7563 329.394 54.0001 329.394 55.519V68.4421H326.448V55.9118C326.448 54.262 326.003 52.9134 325.113 51.8659C324.249 50.8185 323.136 50.2947 321.774 50.2947C320.15 50.2947 318.828 50.7923 317.807 51.7874C316.785 52.7563 316.275 54.0001 316.275 55.519V68.4421H313.329V48.1343H316.275V51.1196C316.799 50.0459 317.571 49.208 318.592 48.6057C319.64 47.9772 320.831 47.6629 322.167 47.6629C323.476 47.6629 324.655 47.9641 325.702 48.5664C326.75 49.1425 327.588 49.9543 328.216 51.0018C329.002 49.9543 329.997 49.1425 331.201 48.5664C332.432 47.9641 333.794 47.6629 335.286 47.6629ZM363.671 48.1343V68.4421H360.725V65.2212C360.122 66.321 359.219 67.2114 358.014 67.8922C356.81 68.5731 355.487 68.9135 354.047 68.9135C352.554 68.9135 351.232 68.5862 350.08 67.9315C348.927 67.2768 348.024 66.3603 347.369 65.1819C346.741 63.9773 346.427 62.6025 346.427 61.0575V48.1343H349.373V60.6647C349.373 62.3406 349.844 63.7023 350.787 64.7498C351.729 65.7711 352.947 66.2817 354.44 66.2817C355.566 66.2817 356.613 66.0461 357.582 65.5747C358.551 65.1033 359.311 64.4748 359.86 63.6892C360.437 62.8775 360.725 62.0002 360.725 61.0575V48.1343H363.671ZM368.223 40.9853H371.169V68.4421H368.223V40.9853ZM384.067 47.6629C386.764 47.6629 388.807 48.4355 390.195 49.9805C391.609 51.4993 392.316 53.5288 392.316 56.0689V68.4421H389.37V65.2604C388.663 66.4127 387.642 67.3161 386.306 67.9708C384.997 68.5993 383.635 68.9135 382.221 68.9135C380.047 68.9135 378.267 68.3243 376.879 67.1459C375.491 65.9675 374.797 64.3963 374.797 62.4323C374.797 61.1229 375.151 59.9576 375.858 58.9363C376.591 57.8889 377.56 57.0902 378.764 56.5403C379.995 55.9641 381.331 55.6761 382.771 55.6761C384.813 55.6761 387.013 56.0558 389.37 56.8152V56.0689C389.37 54.4191 388.951 53.0312 388.113 51.9052C387.275 50.753 385.861 50.1769 383.871 50.1769C382.954 50.1769 382.011 50.3471 381.043 50.6875C380.1 51.0018 379.065 51.4469 377.939 52.023L376.761 49.627C379.38 48.3176 381.815 47.6629 384.067 47.6629ZM382.732 66.321C384.198 66.321 385.573 65.9544 386.856 65.2212C388.165 64.4618 389.003 63.4143 389.37 62.0788V58.9756C387.38 58.4257 385.337 58.1507 383.242 58.1507C381.697 58.1507 380.375 58.5435 379.275 59.3291C378.201 60.1148 377.664 61.1098 377.664 62.3144C377.664 63.5452 378.136 64.5272 379.079 65.2604C380.047 65.9675 381.265 66.321 382.732 66.321Z" fill="black"/>
</svg>
