<svg width="350" height="100" viewBox="0 0 350 100" fill="none" xmlns="http://www.w3.org/2000/svg">
<path d="M126.972 70.378C124.92 70.378 123.318 69.838 122.166 68.758C121.014 67.642 120.438 66.148 120.438 64.276V41.056C120.438 40.048 120.294 39.094 120.006 38.194C119.718 37.294 119.214 36.556 118.494 35.98C117.774 35.404 116.73 35.116 115.362 35.116C114.138 35.116 113.148 35.404 112.392 35.98C111.636 36.556 111.078 37.348 110.718 38.356C110.358 39.328 110.16 40.462 110.124 41.758V42.46H115.308V47.05H110.124V70H104.184V47.05H100.404V42.46H104.184V40.84C104.184 38.572 104.616 36.646 105.48 35.062C106.344 33.442 107.604 32.2 109.26 31.336C110.916 30.472 112.914 30.04 115.254 30.04C119.034 30.04 121.824 30.958 123.624 32.794C125.46 34.594 126.378 36.934 126.378 39.814V61.738C126.378 63.106 126.576 64.006 126.972 64.438C127.404 64.87 127.944 65.086 128.592 65.086C129.312 65.086 130.014 64.996 130.698 64.816C131.418 64.636 131.958 64.474 132.318 64.33L133.182 69.136C132.786 69.316 132.228 69.496 131.508 69.676C130.788 69.856 130.032 70.018 129.24 70.162C128.448 70.306 127.692 70.378 126.972 70.378ZM149.268 70.54C147.036 70.54 145.038 70.162 143.274 69.406C141.51 68.614 139.98 67.534 138.684 66.166C137.424 64.798 136.452 63.25 135.768 61.522C135.084 59.758 134.742 57.886 134.742 55.906C134.742 53.926 135.084 52.054 135.768 50.29C136.452 48.526 137.424 46.978 138.684 45.646C139.98 44.278 141.51 43.216 143.274 42.46C145.074 41.668 147.072 41.272 149.268 41.272C151.464 41.272 153.444 41.668 155.208 42.46C157.008 43.216 158.538 44.278 159.798 45.646C161.094 46.978 162.084 48.526 162.768 50.29C163.452 52.054 163.794 53.926 163.794 55.906C163.794 57.886 163.452 59.758 162.768 61.522C162.084 63.25 161.094 64.798 159.798 66.166C158.538 67.534 157.008 68.614 155.208 69.406C153.444 70.162 151.464 70.54 149.268 70.54ZM140.844 55.96C140.844 57.76 141.222 59.38 141.978 60.82C142.734 62.26 143.742 63.394 145.002 64.222C146.262 65.05 147.684 65.464 149.268 65.464C150.816 65.464 152.22 65.05 153.48 64.222C154.776 63.358 155.802 62.206 156.558 60.766C157.314 59.29 157.692 57.67 157.692 55.906C157.692 54.106 157.314 52.486 156.558 51.046C155.802 49.606 154.776 48.472 153.48 47.644C152.22 46.78 150.816 46.348 149.268 46.348C147.684 46.348 146.262 46.78 145.002 47.644C143.742 48.508 142.734 49.66 141.978 51.1C141.222 52.504 140.844 54.124 140.844 55.96ZM184.938 46.888C182.634 46.924 180.582 47.446 178.782 48.454C177.018 49.462 175.758 50.884 175.002 52.72V70H169.062V41.758H174.57V48.076C175.542 46.132 176.82 44.584 178.404 43.432C179.988 42.244 181.662 41.596 183.426 41.488C183.786 41.488 184.074 41.488 184.29 41.488C184.542 41.488 184.758 41.506 184.938 41.542V46.888ZM187.155 61.738C187.155 59.938 187.659 58.372 188.667 57.04C189.711 55.672 191.133 54.628 192.933 53.908C194.733 53.152 196.821 52.774 199.197 52.774C200.457 52.774 201.735 52.864 203.031 53.044C204.363 53.224 205.533 53.512 206.541 53.908V52.126C206.541 50.146 205.947 48.598 204.759 47.482C203.571 46.366 201.861 45.808 199.629 45.808C198.045 45.808 196.551 46.096 195.147 46.672C193.743 47.212 192.249 47.986 190.665 48.994L188.667 44.998C190.539 43.738 192.411 42.802 194.283 42.19C196.191 41.578 198.189 41.272 200.277 41.272C204.057 41.272 207.027 42.28 209.187 44.296C211.383 46.276 212.481 49.102 212.481 52.774V63.304C212.481 63.988 212.589 64.474 212.805 64.762C213.057 65.05 213.471 65.212 214.047 65.248V70C213.507 70.108 213.021 70.18 212.589 70.216C212.157 70.252 211.797 70.27 211.509 70.27C210.249 70.27 209.295 69.964 208.647 69.352C207.999 68.74 207.621 68.02 207.513 67.192L207.351 65.572C206.127 67.156 204.561 68.38 202.653 69.244C200.745 70.108 198.819 70.54 196.875 70.54C195.003 70.54 193.329 70.162 191.853 69.406C190.377 68.614 189.225 67.552 188.397 66.22C187.569 64.888 187.155 63.394 187.155 61.738ZM205.137 63.466C205.569 62.998 205.911 62.53 206.163 62.062C206.415 61.594 206.541 61.18 206.541 60.82V57.58C205.533 57.184 204.471 56.896 203.355 56.716C202.239 56.5 201.141 56.392 200.061 56.392C197.901 56.392 196.137 56.824 194.769 57.688C193.437 58.552 192.771 59.74 192.771 61.252C192.771 62.08 192.987 62.872 193.419 63.628C193.887 64.384 194.535 64.996 195.363 65.464C196.227 65.932 197.289 66.166 198.549 66.166C199.845 66.166 201.087 65.914 202.275 65.41C203.463 64.906 204.417 64.258 205.137 63.466Z" fill="black"/>
<g filter="url(#filter0_ddii_3740_26942)">
<rect x="15" y="14" width="72" height="72" rx="36" fill="url(#paint0_linear_3740_26942)"/>
<path d="M52.0525 51.7663C51.5268 52.3606 50.4732 52.3606 49.9476 51.7663C49.7244 51.5141 49.486 51.2756 49.2337 51.0525C48.6395 50.5268 48.6395 49.4733 49.2337 48.9476C49.486 48.7245 49.7244 48.486 49.9476 48.2338C50.4732 47.6395 51.5268 47.6395 52.0525 48.2338C52.2756 48.486 52.514 48.7245 52.7663 48.9476C53.3606 49.4733 53.3606 50.5268 52.7663 51.0525C52.514 51.2756 52.2756 51.5141 52.0525 51.7663Z" fill="white"/>
<path fill-rule="evenodd" clip-rule="evenodd" d="M69.6409 50.5562C69.4411 50.2129 69.4411 49.7872 69.6409 49.4439C70.7771 47.4915 71.4279 45.2218 71.4279 42.8001C71.4279 35.4945 65.5056 29.5721 58.2 29.5721C55.7783 29.5721 53.5085 30.2229 51.5561 31.3592C51.2129 31.5589 50.7871 31.5589 50.4439 31.3592C48.4915 30.2229 46.2218 29.5721 43.8 29.5721C36.4944 29.5721 30.5721 35.4945 30.5721 42.8001C30.5721 45.2218 31.2229 47.4915 32.3591 49.4439C32.5589 49.7872 32.5589 50.2129 32.3591 50.5562C31.2229 52.5086 30.5721 54.7783 30.5721 57.2001C30.5721 64.5056 36.4944 70.428 43.8 70.428C46.2218 70.428 48.4915 69.7772 50.4439 68.6409C50.7871 68.4412 51.2129 68.4412 51.5561 68.6409C53.5085 69.7772 55.7783 70.428 58.2 70.428C65.5056 70.428 71.4279 64.5056 71.4279 57.2001C71.4279 54.7783 70.7771 52.5086 69.6409 50.5562ZM52.0525 62.6338C51.5268 62.0395 50.4732 62.0395 49.9476 62.6338C49.2041 63.4743 48.2909 64.1612 47.2617 64.6408C46.2099 65.131 45.0369 65.4047 43.8 65.4047C39.2687 65.4047 35.5954 61.7314 35.5954 57.2001C35.5954 55.9631 35.8691 54.7901 36.3592 53.7384C36.8389 52.7091 37.5258 51.796 38.3663 51.0525C38.9606 50.5268 38.9606 49.4733 38.3663 48.9476C37.5258 48.2041 36.8389 47.291 36.3592 46.2617C35.8691 45.21 35.5954 44.037 35.5954 42.8001C35.5954 38.2687 39.2687 34.5954 43.8 34.5954C45.0369 34.5954 46.2099 34.8691 47.2617 35.3593C48.2909 35.8389 49.2041 36.5258 49.9476 37.3663C50.4732 37.9606 51.5268 37.9606 52.0525 37.3663C52.7959 36.5258 53.7091 35.8389 54.7383 35.3593C55.7901 34.8691 56.9631 34.5954 58.2 34.5954C62.7313 34.5954 66.4047 38.2687 66.4047 42.8001C66.4047 44.037 66.1309 45.21 65.6408 46.2617C65.1611 47.291 64.4742 48.2041 63.6338 48.9476C63.0395 49.4733 63.0395 50.5268 63.6338 51.0525C64.4742 51.796 65.1611 52.7091 65.6408 53.7384C66.1309 54.7901 66.4047 55.9631 66.4047 57.2001C66.4047 61.7314 62.7313 65.4047 58.2 65.4047C56.9631 65.4047 55.7901 65.131 54.7383 64.6408C53.7091 64.1612 52.7959 63.4743 52.0525 62.6338Z" fill="white"/>
<circle cx="51" cy="50" r="5.69302" fill="white"/>
</g>
<path d="M253 53L245 49L237 53M253 53L245 57M253 53V63L245 67M245 57L237 53M245 57V67M237 53V63L245 67" stroke="#FF2D20" stroke-width="1.5" stroke-linejoin="round"/>
<path d="M265.474 55.8637V56.858H261.358V55.8637H265.474ZM262.591 63.5V54.8097C262.591 54.3722 262.694 54.0076 262.899 53.7159C263.105 53.4243 263.371 53.2055 263.7 53.0597C264.028 52.9139 264.374 52.8409 264.739 52.8409C265.027 52.8409 265.262 52.8641 265.445 52.9105C265.627 52.9569 265.763 53 265.852 53.0398L265.514 54.054C265.455 54.0341 265.372 54.0093 265.266 53.9794C265.163 53.9496 265.027 53.9347 264.858 53.9347C264.47 53.9347 264.19 54.0325 264.018 54.228C263.849 54.4236 263.764 54.7103 263.764 55.0881V63.5H262.591Z" fill="#FF2D20"/>
<path d="M269.907 63.6591C269.217 63.6591 268.612 63.4951 268.092 63.1669C267.575 62.8388 267.171 62.3798 266.879 61.7898C266.591 61.1998 266.446 60.5105 266.446 59.7216C266.446 58.9262 266.591 58.2318 266.879 57.6385C267.171 57.0453 267.575 56.5846 268.092 56.2564C268.612 55.9283 269.217 55.7642 269.907 55.7642C270.596 55.7642 271.199 55.9283 271.716 56.2564C272.237 56.5846 272.641 57.0453 272.929 57.6385C273.221 58.2318 273.367 58.9262 273.367 59.7216C273.367 60.5105 273.221 61.1998 272.929 61.7898C272.641 62.3798 272.237 62.8388 271.716 63.1669C271.199 63.4951 270.596 63.6591 269.907 63.6591ZM269.907 62.6051C270.43 62.6051 270.861 62.4709 271.199 62.2024C271.537 61.934 271.788 61.581 271.95 61.1435C272.112 60.706 272.194 60.232 272.194 59.7216C272.194 59.2112 272.112 58.7356 271.95 58.2948C271.788 57.854 271.537 57.4977 271.199 57.2259C270.861 56.9541 270.43 56.8182 269.907 56.8182C269.383 56.8182 268.952 56.9541 268.614 57.2259C268.276 57.4977 268.026 57.854 267.863 58.2948C267.701 58.7356 267.62 59.2112 267.62 59.7216C267.62 60.232 267.701 60.706 267.863 61.1435C268.026 61.581 268.276 61.934 268.614 62.2024C268.952 62.4709 269.383 62.6051 269.907 62.6051Z" fill="#FF2D20"/>
<path d="M275.158 63.5V55.8637H276.291V57.0171H276.371C276.51 56.6392 276.762 56.3327 277.127 56.0973C277.491 55.862 277.902 55.7444 278.36 55.7444C278.446 55.7444 278.553 55.746 278.683 55.7493C278.812 55.7526 278.91 55.7576 278.976 55.7642V56.9574C278.936 56.9475 278.845 56.9326 278.703 56.9127C278.563 56.8895 278.416 56.8779 278.26 56.8779C277.889 56.8779 277.557 56.9558 277.266 57.1115C276.977 57.264 276.749 57.4761 276.58 57.7479C276.414 58.0164 276.331 58.3229 276.331 58.6676V63.5H275.158Z" fill="#FF2D20"/>
<path d="M285.925 52H284V63.549H289.54V61.8497H285.925V52Z" fill="#FF2D20"/>
<path d="M296.365 57.1531C296.119 56.7681 295.771 56.4657 295.319 56.2457C294.867 56.0257 294.412 55.9156 293.955 55.9156C293.363 55.9156 292.822 56.0229 292.331 56.2374C291.84 56.4518 291.419 56.7463 291.068 57.1201C290.716 57.4941 290.443 57.9259 290.248 58.4151C290.052 58.9047 289.955 59.4191 289.955 59.9579C289.955 60.508 290.052 61.0249 290.248 61.5087C290.443 61.9929 290.716 62.4219 291.068 62.7956C291.419 63.1697 291.84 63.4638 292.331 63.6783C292.822 63.8927 293.363 64 293.955 64C294.412 64 294.867 63.8899 295.319 63.6701C295.771 63.4502 296.119 63.1478 296.365 62.7627V63.8021H298.189V56.1137H296.365V57.1531ZM296.198 60.8982C296.086 61.1953 295.93 61.4537 295.729 61.6737C295.528 61.8938 295.285 62.0697 295.001 62.2017C294.716 62.3337 294.401 62.3996 294.055 62.3996C293.709 62.3996 293.397 62.3337 293.118 62.2017C292.839 62.0696 292.599 61.8938 292.398 61.6737C292.197 61.4537 292.044 61.1953 291.938 60.8982C291.832 60.6013 291.779 60.2878 291.779 59.9579C291.779 59.6279 291.832 59.3143 291.938 59.0174C292.044 58.7205 292.197 58.4621 292.398 58.2421C292.599 58.0222 292.839 57.846 293.118 57.7141C293.397 57.582 293.709 57.5161 294.055 57.5161C294.401 57.5161 294.716 57.582 295.001 57.7141C295.285 57.8461 295.528 58.0222 295.729 58.2421C295.93 58.4621 296.086 58.7205 296.198 59.0174C296.309 59.3143 296.365 59.6279 296.365 59.9579C296.365 60.2878 296.309 60.6013 296.198 60.8982Z" fill="#FF2D20"/>
<path d="M311.163 56.8999C310.918 56.5149 310.569 56.2126 310.117 55.9925C309.665 55.7725 309.211 55.6625 308.753 55.6625C308.161 55.6625 307.621 55.7698 307.13 55.9842C306.639 56.1986 306.217 56.4931 305.866 56.8669C305.514 57.2409 305.241 57.6727 305.046 58.1619C304.85 58.6515 304.753 59.1659 304.753 59.7047C304.753 60.2548 304.85 60.7717 305.046 61.2555C305.241 61.7397 305.514 62.1687 305.866 62.5425C306.217 62.9165 306.638 63.2107 307.13 63.4251C307.62 63.6395 308.161 63.7468 308.753 63.7468C309.211 63.7468 309.665 63.6368 310.117 63.4169C310.569 63.1971 310.918 62.8946 311.163 62.5095V63.549H312.987V55.8605H311.163V56.8999ZM310.996 60.6451C310.884 60.9421 310.728 61.2006 310.527 61.4205C310.326 61.6406 310.084 61.8166 309.799 61.9485C309.514 62.0805 309.199 62.1464 308.853 62.1464C308.507 62.1464 308.195 62.0805 307.916 61.9485C307.637 61.8164 307.397 61.6406 307.196 61.4205C306.996 61.2006 306.842 60.9421 306.736 60.6451C306.63 60.3481 306.577 60.0346 306.577 59.7047C306.577 59.3747 306.63 59.0612 306.736 58.7642C306.842 58.4673 306.996 58.209 307.196 57.9889C307.397 57.769 307.637 57.5928 307.916 57.4609C308.195 57.3289 308.507 57.263 308.853 57.263C309.199 57.263 309.514 57.3289 309.799 57.4609C310.084 57.593 310.326 57.769 310.527 57.9889C310.728 58.209 310.884 58.4673 310.996 58.7642C311.107 59.0612 311.163 59.3747 311.163 59.7047C311.163 60.0346 311.107 60.3481 310.996 60.6451Z" fill="#FF2D20"/>
<path d="M333 52H331.176V63.549H333V52Z" fill="#FF2D20"/>
<path d="M299.599 63.5488H301.423V57.6299H304.553V55.8605H299.599V63.5488Z" fill="#FF2D20"/>
<path d="M320.301 55.8605L318.008 61.748L315.715 55.8605H313.868L316.862 63.5488H319.155L322.149 55.8605H320.301Z" fill="#FF2D20"/>
<path d="M326.127 55.6625C323.894 55.6625 322.125 57.4722 322.125 59.7045C322.125 62.1721 323.837 63.7465 326.361 63.7465C327.774 63.7465 328.676 63.2139 329.778 62.054L328.546 61.114C328.545 61.1149 327.616 62.318 326.228 62.318C324.615 62.318 323.935 61.0359 323.935 60.3725H329.987C330.305 57.8326 328.611 55.6625 326.127 55.6625ZM323.94 59.0363C323.954 58.8883 324.164 57.0908 326.113 57.0908C328.062 57.0908 328.298 58.8881 328.312 59.0363H323.94Z" fill="#FF2D20"/>
<defs>
<filter id="filter0_ddii_3740_26942" x="13" y="12" width="78" height="78" filterUnits="userSpaceOnUse" color-interpolation-filters="sRGB">
<feFlood flood-opacity="0" result="BackgroundImageFix"/>
<feColorMatrix in="SourceAlpha" type="matrix" values="0 0 0 0 0 0 0 0 0 0 0 0 0 0 0 0 0 0 127 0" result="hardAlpha"/>
<feOffset dx="1" dy="1"/>
<feGaussianBlur stdDeviation="1"/>
<feColorMatrix type="matrix" values="0 0 0 0 0.101961 0 0 0 0 0.74902 0 0 0 0 0.529412 0 0 0 0.1 0"/>
<feBlend mode="normal" in2="BackgroundImageFix" result="effect1_dropShadow_3740_26942"/>
<feColorMatrix in="SourceAlpha" type="matrix" values="0 0 0 0 0 0 0 0 0 0 0 0 0 0 0 0 0 0 127 0" result="hardAlpha"/>
<feOffset dx="1" dy="1"/>
<feGaussianBlur stdDeviation="1.5"/>
<feColorMatrix type="matrix" values="0 0 0 0 0.0941176 0 0 0 0 0.741176 0 0 0 0 0.52549 0 0 0 0.2 0"/>
<feBlend mode="normal" in2="effect1_dropShadow_3740_26942" result="effect2_dropShadow_3740_26942"/>
<feBlend mode="normal" in="SourceGraphic" in2="effect2_dropShadow_3740_26942" result="shape"/>
<feColorMatrix in="SourceAlpha" type="matrix" values="0 0 0 0 0 0 0 0 0 0 0 0 0 0 0 0 0 0 127 0" result="hardAlpha"/>
<feOffset dx="1" dy="2"/>
<feGaussianBlur stdDeviation="1"/>
<feComposite in2="hardAlpha" operator="arithmetic" k2="-1" k3="1"/>
<feColorMatrix type="matrix" values="0 0 0 0 0.459201 0 0 0 0 0.958333 0 0 0 0 0.760331 0 0 0 1 0"/>
<feBlend mode="normal" in2="shape" result="effect3_innerShadow_3740_26942"/>
<feColorMatrix in="SourceAlpha" type="matrix" values="0 0 0 0 0 0 0 0 0 0 0 0 0 0 0 0 0 0 127 0" result="hardAlpha"/>
<feOffset dx="-1" dy="-2"/>
<feGaussianBlur stdDeviation="1"/>
<feComposite in2="hardAlpha" operator="arithmetic" k2="-1" k3="1"/>
<feColorMatrix type="matrix" values="0 0 0 0 0.05125 0 0 0 0 0.683333 0 0 0 0 0.4701 0 0 0 1 0"/>
<feBlend mode="normal" in2="effect3_innerShadow_3740_26942" result="effect4_innerShadow_3740_26942"/>
</filter>
<linearGradient id="paint0_linear_3740_26942" x1="81.5" y1="70.5" x2="9" y2="6.5" gradientUnits="userSpaceOnUse">
<stop stop-color="#10B981"/>
<stop offset="1" stop-color="#6EE7B7"/>
</linearGradient>
</defs>
</svg>
