<svg width="112" height="29" viewBox="0 0 112 29" fill="none" xmlns="http://www.w3.org/2000/svg">
<path d="M0.41207 27.9421V0.0532432H11.9604C13.165 0.0532432 14.2649 0.302017 15.26 0.799566C16.2812 1.29711 17.1585 1.97797 17.8917 2.84213C18.625 3.68011 19.2011 4.62283 19.6201 5.6703C20.039 6.69159 20.2485 7.73906 20.2485 8.81271C20.2485 10.3315 19.9081 11.7718 19.2273 13.1335C18.5726 14.4691 17.643 15.5558 16.4384 16.3938C15.2338 17.2318 13.8197 17.6507 12.1961 17.6507H3.16168V27.9421H0.41207ZM3.16168 15.2154H12.0783C13.1781 15.2154 14.1339 14.9142 14.9457 14.3119C15.7575 13.7096 16.386 12.924 16.8312 11.9551C17.2763 10.9862 17.4989 9.93874 17.4989 8.81271C17.4989 7.6605 17.2371 6.59993 16.7133 5.63102C16.1896 4.66211 15.4956 3.9027 14.6315 3.35277C13.7935 2.77667 12.8639 2.48861 11.8426 2.48861H3.16168V15.2154ZM32.6337 28.3349C31.1673 28.3349 29.8056 28.06 28.5486 27.5101C27.3178 26.9339 26.2442 26.1614 25.3276 25.1925C24.4373 24.1974 23.7433 23.0714 23.2458 21.8144C22.7482 20.5313 22.4995 19.1827 22.4995 17.7686C22.4995 16.3021 22.7482 14.9404 23.2458 13.6835C23.7433 12.4003 24.4504 11.2743 25.3669 10.3054C26.2835 9.31026 27.3571 8.53775 28.5879 7.98783C29.8449 7.41172 31.2066 7.12367 32.673 7.12367C34.1395 7.12367 35.4881 7.41172 36.7189 7.98783C37.9497 8.53775 39.0233 9.31026 39.9399 10.3054C40.8564 11.2743 41.5634 12.4003 42.061 13.6835C42.5585 14.9404 42.8073 16.3021 42.8073 17.7686C42.8073 19.1827 42.5585 20.5313 42.061 21.8144C41.5634 23.0714 40.8564 24.1974 39.9399 25.1925C39.0495 26.1614 37.9758 26.9339 36.7189 27.5101C35.4881 28.06 34.1264 28.3349 32.6337 28.3349ZM25.2098 17.8079C25.2098 19.3267 25.5371 20.7146 26.1918 21.9716C26.8727 23.2023 27.7761 24.1843 28.9021 24.9176C30.0282 25.6246 31.272 25.9781 32.6337 25.9781C33.9955 25.9781 35.2393 25.6115 36.3654 24.8783C37.4914 24.1451 38.3948 23.15 39.0757 21.893C39.7565 20.6098 40.097 19.2219 40.097 17.7293C40.097 16.2105 39.7565 14.8226 39.0757 13.5656C38.3948 12.3086 37.4914 11.3135 36.3654 10.5803C35.2393 9.84709 33.9955 9.48048 32.6337 9.48048C31.272 9.48048 30.0282 9.86018 28.9021 10.6196C27.8023 11.379 26.9119 12.3872 26.2311 13.6442C25.5502 14.8749 25.2098 16.2628 25.2098 17.8079ZM72.3518 7.47719H74.9836L66.1848 27.9421H63.8673L59.5858 17.7686L55.3435 27.9421H53.026L44.2272 7.47719H46.8197L54.2829 25.1925L58.0538 15.9617L54.5972 7.51647H56.9933L59.5858 14.1548L62.2175 7.51647H64.5743L61.157 15.9617L64.9278 25.1925L72.3518 7.47719ZM86.685 28.3349C85.2186 28.3349 83.8569 28.06 82.5999 27.5101C81.343 26.9339 80.2562 26.1614 79.3397 25.1925C78.4231 24.1974 77.703 23.0583 77.1793 21.7752C76.6817 20.492 76.4329 19.1172 76.4329 17.6507C76.4329 15.7391 76.865 13.9846 77.7292 12.3872C78.6195 10.7898 79.8372 9.51976 81.3822 8.57703C82.9272 7.60812 84.6818 7.12367 86.6458 7.12367C88.6621 7.12367 90.4167 7.60812 91.9093 8.57703C93.4281 9.54594 94.6196 10.8291 95.4838 12.4265C96.348 13.9977 96.78 15.726 96.78 17.6115C96.78 17.821 96.78 18.0305 96.78 18.2399C96.78 18.4233 96.767 18.5673 96.7408 18.672H79.2218C79.3528 20.1385 79.7587 21.4478 80.4395 22.6C81.1466 23.7261 82.05 24.6295 83.1498 25.3104C84.2759 25.965 85.4936 26.2924 86.8029 26.2924C88.1384 26.2924 89.3954 25.9519 90.5738 25.2711C91.7784 24.5902 92.6163 23.6999 93.0877 22.6L95.4052 23.2285C94.9863 24.1974 94.3447 25.0747 93.4805 25.8603C92.6163 26.6459 91.5951 27.2613 90.4167 27.7065C89.2644 28.1254 88.0206 28.3349 86.685 28.3349ZM79.1433 16.7473H94.2661C94.1614 15.2547 93.7555 13.9453 93.0484 12.8193C92.3676 11.6933 91.4641 10.816 90.3381 10.1875C89.2383 9.53285 88.0206 9.20551 86.685 9.20551C85.3495 9.20551 84.1318 9.53285 83.032 10.1875C81.9322 10.816 81.0287 11.7063 80.3217 12.8586C79.6408 13.9846 79.248 15.2808 79.1433 16.7473ZM111.114 9.834C109.333 9.88637 107.762 10.3839 106.4 11.3266C105.065 12.2694 104.122 13.5656 103.572 15.2154V27.9421H100.901V7.47719H103.415V12.3872C104.122 10.9469 105.052 9.78162 106.204 8.89127C107.382 8.00092 108.626 7.50338 109.936 7.39863C110.197 7.37244 110.42 7.35935 110.603 7.35935C110.813 7.35935 110.983 7.37244 111.114 7.39863V9.834Z" fill="white"/>
</svg>
