<svg width="395" height="135" viewBox="0 0 395 135" fill="none" xmlns="http://www.w3.org/2000/svg">
<rect y="23.6895" width="87.4095" height="87.6213" rx="43.7048" fill="#10B981"/>
<path fill-rule="evenodd" clip-rule="evenodd" d="M66.6251 62.926C65.8027 58.7817 63.8795 54.9452 61.0688 51.8165C60.6173 51.3139 59.8399 51.316 59.3628 51.7942L55.3371 55.8296C54.8617 56.3062 54.8658 57.0748 55.3019 57.5876C57.5712 60.2558 58.9409 63.7161 58.9409 67.4971C58.9409 75.9376 52.1151 82.7799 43.6951 82.7799C35.275 82.7799 28.4492 75.9376 28.4492 67.4971C28.4492 63.7151 29.8197 60.2539 32.0901 57.5854C32.5264 57.0726 32.5306 56.3039 32.0551 55.8272L28.0318 51.7942C27.5547 51.316 26.7772 51.3139 26.3258 51.8165C23.5151 54.9452 21.5919 58.7817 20.7695 62.926C19.8675 67.4717 20.3304 72.1834 22.0998 76.4653C23.8691 80.7472 26.8654 84.4071 30.7097 86.982C34.5541 89.5569 39.0738 90.9313 43.6973 90.9313C48.3208 90.9313 52.8405 89.5569 56.6848 86.982C60.5292 84.4071 63.5254 80.7473 65.2948 76.4653C67.0641 72.1834 67.5271 67.4717 66.6251 62.926Z" fill="white"/>
<rect x="40.043" y="44.0684" width="7.31801" height="7.33573" rx="3.659" fill="white"/>
<rect x="40.043" y="54.2578" width="7.31801" height="16.3016" rx="1.22114" fill="white"/>
<path d="M112.254 76.2181H125.688V81.4424H106.48V54.4569H112.254V76.2181ZM138.014 60.6632C139.769 60.6632 141.327 61.0167 142.689 61.7238C144.05 62.4308 145.098 63.439 145.831 64.7483C146.59 66.0315 146.97 67.5503 146.97 69.3048V81.4424H141.432V79.3998C140.725 80.1854 139.821 80.8008 138.721 81.246C137.648 81.6912 136.548 81.9137 135.422 81.9137C133.982 81.9137 132.685 81.6519 131.533 81.1281C130.381 80.5782 129.464 79.8188 128.783 78.8499C128.129 77.8548 127.801 76.7157 127.801 75.4325C127.801 74.1232 128.168 72.9579 128.901 71.9366C129.661 70.9153 130.682 70.1166 131.965 69.5405C133.248 68.9644 134.662 68.6763 136.207 68.6763C137.962 68.6763 139.703 69.0299 141.432 69.7369V69.3048C141.432 68.1264 141.039 67.1575 140.253 66.3981C139.468 65.6387 138.289 65.259 136.718 65.259C135.094 65.259 133.34 65.7434 131.454 66.7123L129.53 62.9022C132.463 61.4095 135.291 60.6632 138.014 60.6632ZM136.718 77.9465C137.87 77.9465 138.892 77.6977 139.782 77.2001C140.672 76.6764 141.222 75.9563 141.432 75.0397V73.1936C140.096 72.6698 138.63 72.408 137.032 72.408C135.985 72.408 135.094 72.6829 134.361 73.2328C133.628 73.7828 133.261 74.4636 133.261 75.2754C133.261 76.0872 133.589 76.7419 134.243 77.2394C134.898 77.7108 135.723 77.9465 136.718 77.9465ZM156.66 64.9447C157.341 63.6092 158.284 62.5617 159.488 61.8023C160.719 61.0429 162.094 60.6632 163.613 60.6632V65.4946C161.492 65.4946 159.802 66.0577 158.545 67.1837C157.289 68.3097 156.66 69.8286 156.66 71.7402V81.4424H150.925V61.1346H156.66V64.9447ZM173.689 60.6632C175.443 60.6632 177.001 61.0167 178.363 61.7238C179.725 62.4308 180.772 63.439 181.505 64.7483C182.265 66.0315 182.644 67.5503 182.644 69.3048V81.4424H177.106V79.3998C176.399 80.1854 175.495 80.8008 174.396 81.246C173.322 81.6912 172.222 81.9137 171.096 81.9137C169.656 81.9137 168.36 81.6519 167.207 81.1281C166.055 80.5782 165.139 79.8188 164.458 78.8499C163.803 77.8548 163.476 76.7157 163.476 75.4325C163.476 74.1232 163.842 72.9579 164.576 71.9366C165.335 70.9153 166.356 70.1166 167.639 69.5405C168.923 68.9644 170.337 68.6763 171.882 68.6763C173.636 68.6763 175.378 69.0299 177.106 69.7369V69.3048C177.106 68.1264 176.713 67.1575 175.928 66.3981C175.142 65.6387 173.964 65.259 172.392 65.259C170.769 65.259 169.014 65.7434 167.129 66.7123L165.204 62.9022C168.137 61.4095 170.965 60.6632 173.689 60.6632ZM172.392 77.9465C173.545 77.9465 174.566 77.6977 175.456 77.2001C176.347 76.6764 176.896 75.9563 177.106 75.0397V73.1936C175.77 72.6698 174.304 72.408 172.707 72.408C171.659 72.408 170.769 72.6829 170.036 73.2328C169.302 73.7828 168.936 74.4636 168.936 75.2754C168.936 76.0872 169.263 76.7419 169.918 77.2394C170.572 77.7108 171.397 77.9465 172.392 77.9465ZM184.259 61.1346H190.269L195.729 74.8433L201.071 61.1346H207.042L198.361 81.4424H193.058L184.259 61.1346ZM218.546 77.4751C219.462 77.4751 220.405 77.2918 221.374 76.9252C222.343 76.5586 223.154 76.0741 223.809 75.4718L227.03 78.7713C226.14 79.7141 224.909 80.4735 223.338 81.0496C221.793 81.6257 220.261 81.9137 218.742 81.9137C216.752 81.9137 214.919 81.4555 213.243 80.5389C211.593 79.6224 210.284 78.3523 209.315 76.7288C208.346 75.1052 207.861 73.2721 207.861 71.2295C207.861 69.2132 208.32 67.4063 209.236 65.8089C210.179 64.2115 211.449 62.9545 213.046 62.038C214.67 61.1215 216.464 60.6632 218.428 60.6632C220.523 60.6632 222.343 61.1476 223.888 62.1166C225.433 63.0855 226.611 64.4865 227.423 66.3195C228.235 68.1526 228.641 70.313 228.641 72.8008H213.321C213.583 74.2148 214.172 75.354 215.089 76.2181C216.032 77.0561 217.184 77.4751 218.546 77.4751ZM218.467 65.1018C217.21 65.1018 216.123 65.4946 215.207 66.2803C214.29 67.0397 213.675 68.074 213.361 69.3834H223.141C222.906 68.074 222.382 67.0397 221.57 66.2803C220.758 65.4946 219.724 65.1018 218.467 65.1018ZM231.908 53.9856H237.642V81.4424H231.908V53.9856Z" fill="#10B981"/>
<path d="M271.261 57.3637H254.999V66.241H269.651V69.1477H254.999V81.4424H251.896V54.4569H271.261V57.3637ZM285.053 81.9137C283.167 81.9137 281.413 81.4424 279.789 80.4997C278.192 79.5307 276.922 78.2345 275.979 76.6109C275.036 74.9612 274.565 73.1805 274.565 71.2688C274.565 69.3572 275.036 67.5896 275.979 65.966C276.922 64.3424 278.192 63.0593 279.789 62.1166C281.413 61.1476 283.167 60.6632 285.053 60.6632C286.938 60.6632 288.68 61.1476 290.277 62.1166C291.875 63.0593 293.145 64.3424 294.087 65.966C295.03 67.5896 295.501 69.3572 295.501 71.2688C295.501 73.1805 295.03 74.9612 294.087 76.6109C293.145 78.2345 291.875 79.5307 290.277 80.4997C288.68 81.4424 286.938 81.9137 285.053 81.9137ZM285.053 79.282C286.388 79.282 287.619 78.9285 288.745 78.2214C289.871 77.4882 290.762 76.5062 291.416 75.2754C292.097 74.0446 292.438 72.7091 292.438 71.2688C292.438 69.8286 292.097 68.5061 291.416 67.3015C290.762 66.0708 289.871 65.1018 288.745 64.3948C287.619 63.6616 286.388 63.295 285.053 63.295C283.717 63.295 282.474 63.6616 281.321 64.3948C280.195 65.1018 279.292 66.0708 278.611 67.3015C277.956 68.5061 277.629 69.8286 277.629 71.2688C277.629 72.7091 277.956 74.0446 278.611 75.2754C279.292 76.5062 280.195 77.4882 281.321 78.2214C282.474 78.9285 283.717 79.282 285.053 79.282ZM302.043 65.1018C302.645 63.7401 303.641 62.6665 305.028 61.8809C306.416 61.0691 308.04 60.6632 309.899 60.6632V63.295C308.38 63.295 307.019 63.583 305.814 64.1591C304.636 64.7352 303.706 65.547 303.025 66.5945C302.37 67.6158 302.043 68.7811 302.043 70.0904V81.4424H299.097V61.1346H302.043V65.1018ZM335.286 60.6632C336.674 60.6632 337.918 61.0036 339.018 61.6845C340.118 62.3391 340.969 63.2688 341.571 64.4734C342.199 65.6518 342.514 67.0004 342.514 68.5192V81.4424H339.568V68.912C339.568 67.2623 339.122 65.9136 338.232 64.8662C337.368 63.8187 336.255 63.295 334.893 63.295C333.27 63.295 331.947 63.7925 330.926 64.7876C329.905 65.7565 329.394 67.0004 329.394 68.5192V81.4424H326.448V68.912C326.448 67.2623 326.003 65.9136 325.113 64.8662C324.248 63.8187 323.135 63.295 321.774 63.295C320.15 63.295 318.828 63.7925 317.806 64.7876C316.785 65.7565 316.274 67.0004 316.274 68.5192V81.4424H313.328V61.1346H316.274V64.1198C316.798 63.0462 317.571 62.2082 318.592 61.6059C319.639 60.9774 320.831 60.6632 322.167 60.6632C323.476 60.6632 324.654 60.9643 325.702 61.5666C326.749 62.1427 327.587 62.9545 328.216 64.002C329.001 62.9545 329.996 62.1427 331.201 61.5666C332.432 60.9643 333.793 60.6632 335.286 60.6632ZM363.67 61.1346V81.4424H360.724V78.2214C360.122 79.3213 359.219 80.2116 358.014 80.8925C356.809 81.5733 355.487 81.9137 354.047 81.9137C352.554 81.9137 351.232 81.5864 350.079 80.9317C348.927 80.2771 348.024 79.3605 347.369 78.1821C346.741 76.9775 346.426 75.6027 346.426 74.0577V61.1346H349.372V73.6649C349.372 75.3409 349.844 76.7026 350.786 77.7501C351.729 78.7713 352.947 79.282 354.439 79.282C355.565 79.282 356.613 79.0463 357.582 78.5749C358.551 78.1036 359.31 77.4751 359.86 76.6895C360.436 75.8777 360.724 75.0004 360.724 74.0577V61.1346H363.67ZM368.223 53.9856H371.169V81.4424H368.223V53.9856ZM384.067 60.6632C386.764 60.6632 388.807 61.4357 390.194 62.9807C391.609 64.4996 392.316 66.529 392.316 69.0691V81.4424H389.37V78.2607C388.663 79.4129 387.641 80.3164 386.306 80.971C384.996 81.5995 383.635 81.9137 382.221 81.9137C380.047 81.9137 378.266 81.3245 376.879 80.1461C375.491 78.9677 374.797 77.3965 374.797 75.4325C374.797 74.1232 375.15 72.9579 375.857 71.9366C376.59 70.8891 377.559 70.0904 378.764 69.5405C379.995 68.9644 381.33 68.6763 382.771 68.6763C384.813 68.6763 387.013 69.056 389.37 69.8155V69.0691C389.37 67.4194 388.951 66.0315 388.113 64.9054C387.275 63.7532 385.861 63.1771 383.87 63.1771C382.954 63.1771 382.011 63.3473 381.042 63.6878C380.099 64.002 379.065 64.4472 377.939 65.0233L376.761 62.6272C379.379 61.3179 381.815 60.6632 384.067 60.6632ZM382.731 79.3213C384.198 79.3213 385.573 78.9546 386.856 78.2214C388.165 77.462 389.003 76.4145 389.37 75.079V71.9759C387.379 71.4259 385.337 71.151 383.242 71.151C381.697 71.151 380.374 71.5438 379.275 72.3294C378.201 73.115 377.664 74.1101 377.664 75.3147C377.664 76.5455 378.135 77.5275 379.078 78.2607C380.047 78.9677 381.265 79.3213 382.731 79.3213Z" fill="white"/>
</svg>
