<svg width="367" height="109" viewBox="0 0 367 109" fill="none" xmlns="http://www.w3.org/2000/svg">
<rect x="0.0837402" y="10.6895" width="87.4095" height="87.6213" rx="43.7048" fill="#10B981"/>
<path fill-rule="evenodd" clip-rule="evenodd" d="M66.7088 49.9265C65.8865 45.7822 63.9632 41.9457 61.1525 38.817C60.7011 38.3144 59.9236 38.3164 59.4465 38.7947L55.4209 42.8301C54.9454 43.3067 54.9495 44.0752 55.3857 44.5881C57.6549 47.2563 59.0246 50.7166 59.0246 54.4976C59.0246 62.9381 52.1989 69.7804 43.7788 69.7804C35.3588 69.7804 28.533 62.9381 28.533 54.4976C28.533 50.7156 29.9035 47.2544 32.1738 44.5859C32.6101 44.073 32.6143 43.3044 32.1388 42.8277L28.1155 38.7947C27.6384 38.3164 26.861 38.3144 26.4095 38.817C23.5988 41.9457 21.6756 45.7822 20.8532 49.9265C19.9512 54.4722 20.4142 59.1839 22.1835 63.4658C23.9529 67.7477 26.9492 71.4076 30.7935 73.9825C34.6378 76.5574 39.1575 77.9318 43.781 77.9318C48.4046 77.9318 52.9242 76.5574 56.7686 73.9825C60.6129 71.4076 63.6092 67.7477 65.3785 63.4658C67.1479 59.1839 67.6108 54.4722 66.7088 49.9265Z" fill="white"/>
<rect x="40.1267" y="31.0679" width="7.31801" height="7.33573" rx="3.659" fill="white"/>
<rect x="40.1267" y="41.2573" width="7.31801" height="16.3016" rx="1.22114" fill="white"/>
<path d="M106.682 70.9421V43.0532H112.103V66.1892H126.322V70.9421H106.682ZM127.696 64.8537C127.696 63.5182 128.063 62.3529 128.796 61.3578C129.555 60.3365 130.603 59.5509 131.938 59.001C133.274 58.4511 134.806 58.1761 136.534 58.1761C137.398 58.1761 138.276 58.2416 139.166 58.3725C140.056 58.5034 140.829 58.7129 141.483 59.001V57.9011C141.483 56.5918 141.091 55.5836 140.305 54.8766C139.546 54.1695 138.407 53.816 136.888 53.816C135.762 53.816 134.688 54.0124 133.667 54.4052C132.645 54.798 131.572 55.3741 130.446 56.1335L128.757 52.6769C130.118 51.7865 131.506 51.1188 132.92 50.6736C134.361 50.2284 135.866 50.0058 137.438 50.0058C140.371 50.0058 142.649 50.7391 144.272 52.2055C145.922 53.672 146.747 55.7669 146.747 58.4903V65.0501C146.747 65.6 146.839 65.9928 147.022 66.2285C147.231 66.4642 147.559 66.6082 148.004 66.6606V70.9421C147.533 71.0207 147.101 71.0862 146.708 71.1385C146.341 71.1909 146.027 71.2171 145.765 71.2171C144.718 71.2171 143.919 70.9814 143.369 70.5101C142.845 70.0387 142.518 69.4626 142.387 68.7817L142.269 67.7212C141.379 68.8734 140.266 69.7637 138.93 70.3922C137.595 71.0207 136.233 71.3349 134.845 71.3349C133.483 71.3349 132.253 71.06 131.153 70.5101C130.079 69.9339 129.228 69.1614 128.6 68.1925C127.997 67.1974 127.696 66.0845 127.696 64.8537ZM140.501 65.9143C140.79 65.6 141.025 65.2858 141.208 64.9716C141.392 64.6573 141.483 64.3693 141.483 64.1074V62.0255C140.855 61.7637 140.174 61.5673 139.441 61.4363C138.708 61.2792 138.014 61.2007 137.359 61.2007C135.997 61.2007 134.871 61.5018 133.981 62.1041C133.117 62.6802 132.685 63.4527 132.685 64.4216C132.685 64.9454 132.829 65.4429 133.117 65.9143C133.405 66.3856 133.824 66.7654 134.374 67.0534C134.924 67.3415 135.578 67.4855 136.338 67.4855C137.123 67.4855 137.896 67.3415 138.655 67.0534C139.415 66.7392 140.03 66.3595 140.501 65.9143ZM163.921 54.9158C162.324 54.9158 160.896 55.2301 159.639 55.8586C158.383 56.4609 157.479 57.3381 156.929 58.4903V70.9421H151.666V50.3593H156.497V54.7587C157.23 53.3446 158.16 52.2317 159.286 51.4199C160.412 50.6081 161.603 50.1629 162.86 50.0844C163.149 50.0844 163.371 50.0844 163.528 50.0844C163.685 50.0844 163.816 50.0975 163.921 50.1237V54.9158ZM165.327 64.8537C165.327 63.5182 165.693 62.3529 166.427 61.3578C167.186 60.3365 168.234 59.5509 169.569 59.001C170.905 58.4511 172.437 58.1761 174.165 58.1761C175.029 58.1761 175.906 58.2416 176.797 58.3725C177.687 58.5034 178.459 58.7129 179.114 59.001V57.9011C179.114 56.5918 178.721 55.5836 177.936 54.8766C177.176 54.1695 176.037 53.816 174.518 53.816C173.392 53.816 172.319 54.0124 171.297 54.4052C170.276 54.798 169.202 55.3741 168.076 56.1335L166.387 52.6769C167.749 51.7865 169.137 51.1188 170.551 50.6736C171.991 50.2284 173.497 50.0058 175.068 50.0058C178.001 50.0058 180.279 50.7391 181.903 52.2055C183.553 53.672 184.378 55.7669 184.378 58.4903V65.0501C184.378 65.6 184.469 65.9928 184.653 66.2285C184.862 66.4642 185.189 66.6082 185.635 66.6606V70.9421C185.163 71.0207 184.731 71.0862 184.338 71.1385C183.972 71.1909 183.658 71.2171 183.396 71.2171C182.348 71.2171 181.55 70.9814 181 70.5101C180.476 70.0387 180.149 69.4626 180.018 68.7817L179.9 67.7212C179.009 68.8734 177.896 69.7637 176.561 70.3922C175.225 71.0207 173.864 71.3349 172.476 71.3349C171.114 71.3349 169.883 71.06 168.783 70.5101C167.71 69.9339 166.859 69.1614 166.23 68.1925C165.628 67.1974 165.327 66.0845 165.327 64.8537ZM178.132 65.9143C178.42 65.6 178.656 65.2858 178.839 64.9716C179.022 64.6573 179.114 64.3693 179.114 64.1074V62.0255C178.486 61.7637 177.805 61.5673 177.072 61.4363C176.338 61.2792 175.644 61.2007 174.99 61.2007C173.628 61.2007 172.502 61.5018 171.612 62.1041C170.747 62.6802 170.315 63.4527 170.315 64.4216C170.315 64.9454 170.459 65.4429 170.747 65.9143C171.036 66.3856 171.455 66.7654 172.004 67.0534C172.554 67.3415 173.209 67.4855 173.968 67.4855C174.754 67.4855 175.527 67.3415 176.286 67.0534C177.045 66.7392 177.661 66.3595 178.132 65.9143ZM194.106 70.9421L186.525 50.3593H191.985L197.17 66.15L202.394 50.3593H207.383L199.841 70.9421H194.106ZM219.018 71.3349C217.369 71.3349 215.876 71.06 214.541 70.5101C213.205 69.9339 212.066 69.1614 211.123 68.1925C210.18 67.1974 209.447 66.0714 208.923 64.8144C208.426 63.5313 208.177 62.1827 208.177 60.7686C208.177 58.8046 208.609 57.0108 209.473 55.3872C210.364 53.7636 211.621 52.4674 213.244 51.4985C214.894 50.5034 216.832 50.0058 219.058 50.0058C221.31 50.0058 223.235 50.5034 224.832 51.4985C226.429 52.4674 227.647 53.7636 228.485 55.3872C229.349 56.9846 229.781 58.7129 229.781 60.5722C229.781 60.8864 229.768 61.2138 229.742 61.5542C229.716 61.8684 229.69 62.1303 229.663 62.3398H213.755C213.86 63.3873 214.161 64.3038 214.658 65.0894C215.182 65.875 215.837 66.4773 216.622 66.8963C217.434 67.2891 218.298 67.4855 219.215 67.4855C220.262 67.4855 221.244 67.2367 222.161 66.7392C223.104 66.2154 223.745 65.5346 224.086 64.6966L228.603 65.9536C228.105 67.001 227.385 67.9307 226.442 68.7425C225.526 69.5542 224.439 70.1958 223.182 70.6672C221.925 71.1124 220.537 71.3349 219.018 71.3349ZM213.637 59.001H224.4C224.295 57.9535 223.994 57.0501 223.496 56.2906C223.025 55.505 222.397 54.9028 221.611 54.4838C220.825 54.0386 219.948 53.816 218.979 53.816C218.036 53.816 217.172 54.0386 216.387 54.4838C215.627 54.9028 214.999 55.505 214.501 56.2906C214.03 57.0501 213.742 57.9535 213.637 59.001ZM232.948 42.2676H238.212V64.3431C238.212 65.2858 238.369 65.9274 238.683 66.2678C238.998 66.582 239.43 66.7392 239.98 66.7392C240.399 66.7392 240.831 66.6868 241.276 66.582C241.721 66.4773 242.114 66.3464 242.454 66.1892L243.161 70.1958C242.454 70.5362 241.629 70.7981 240.687 70.9814C239.744 71.1647 238.893 71.2564 238.133 71.2564C236.484 71.2564 235.201 70.8243 234.284 69.9601C233.394 69.0698 232.948 67.8128 232.948 66.1892V42.2676Z" fill="#10B981"/>
<path d="M255.412 70.9421V43.0532H266.96C268.165 43.0532 269.265 43.302 270.26 43.7996C271.281 44.2971 272.159 44.978 272.892 45.8421C273.625 46.6801 274.201 47.6228 274.62 48.6703C275.039 49.6916 275.249 50.7391 275.249 51.8127C275.249 53.3315 274.908 54.7718 274.227 56.1335C273.573 57.4691 272.643 58.5558 271.438 59.3938C270.234 60.2318 268.82 60.6507 267.196 60.6507H258.162V70.9421H255.412ZM258.162 58.2154H267.078C268.178 58.2154 269.134 57.9142 269.946 57.3119C270.758 56.7096 271.386 55.924 271.831 54.9551C272.276 53.9862 272.499 52.9387 272.499 51.8127C272.499 50.6605 272.237 49.5999 271.713 48.631C271.19 47.6621 270.496 46.9027 269.631 46.3528C268.794 45.7767 267.864 45.4886 266.843 45.4886H258.162V58.2154ZM287.634 71.3349C286.167 71.3349 284.806 71.06 283.549 70.5101C282.318 69.9339 281.244 69.1614 280.328 68.1925C279.437 67.1974 278.743 66.0714 278.246 64.8144C277.748 63.5313 277.499 62.1827 277.499 60.7686C277.499 59.3021 277.748 57.9404 278.246 56.6835C278.743 55.4003 279.45 54.2743 280.367 53.3054C281.283 52.3103 282.357 51.5378 283.588 50.9878C284.845 50.4117 286.207 50.1237 287.673 50.1237C289.139 50.1237 290.488 50.4117 291.719 50.9878C292.95 51.5378 294.023 52.3103 294.94 53.3054C295.856 54.2743 296.563 55.4003 297.061 56.6835C297.559 57.9404 297.807 59.3021 297.807 60.7686C297.807 62.1827 297.559 63.5313 297.061 64.8144C296.563 66.0714 295.856 67.1974 294.94 68.1925C294.05 69.1614 292.976 69.9339 291.719 70.5101C290.488 71.06 289.126 71.3349 287.634 71.3349ZM280.21 60.8079C280.21 62.3267 280.537 63.7146 281.192 64.9716C281.873 66.2023 282.776 67.1843 283.902 67.9176C285.028 68.6246 286.272 68.9781 287.634 68.9781C288.995 68.9781 290.239 68.6115 291.365 67.8783C292.491 67.1451 293.395 66.15 294.076 64.893C294.757 63.6098 295.097 62.2219 295.097 60.7293C295.097 59.2105 294.757 57.8226 294.076 56.5656C293.395 55.3086 292.491 54.3135 291.365 53.5803C290.239 52.8471 288.995 52.4805 287.634 52.4805C286.272 52.4805 285.028 52.8602 283.902 53.6196C282.802 54.379 281.912 55.3872 281.231 56.6442C280.55 57.8749 280.21 59.2628 280.21 60.8079ZM327.352 50.4772H329.984L321.185 70.9421H318.867L314.586 60.7686L310.343 70.9421H308.026L299.227 50.4772H301.82L309.283 68.1925L313.054 58.9617L309.597 50.5165H311.993L314.586 57.1548L317.218 50.5165H319.574L316.157 58.9617L319.928 68.1925L327.352 50.4772ZM341.685 71.3349C340.219 71.3349 338.857 71.06 337.6 70.5101C336.343 69.9339 335.256 69.1614 334.34 68.1925C333.423 67.1974 332.703 66.0583 332.179 64.7752C331.682 63.492 331.433 62.1172 331.433 60.6507C331.433 58.7391 331.865 56.9846 332.729 55.3872C333.62 53.7898 334.837 52.5198 336.382 51.577C337.927 50.6081 339.682 50.1237 341.646 50.1237C343.662 50.1237 345.417 50.6081 346.909 51.577C348.428 52.5459 349.62 53.8291 350.484 55.4265C351.348 56.9977 351.78 58.726 351.78 60.6115C351.78 60.821 351.78 61.0305 351.78 61.2399C351.78 61.4233 351.767 61.5673 351.741 61.672H334.222C334.353 63.1385 334.759 64.4478 335.44 65.6C336.147 66.7261 337.05 67.6295 338.15 68.3104C339.276 68.965 340.494 69.2924 341.803 69.2924C343.138 69.2924 344.395 68.9519 345.574 68.2711C346.778 67.5902 347.616 66.6999 348.088 65.6L350.405 66.2285C349.986 67.1974 349.345 68.0747 348.481 68.8603C347.616 69.6459 346.595 70.2613 345.417 70.7065C344.264 71.1254 343.021 71.3349 341.685 71.3349ZM334.143 59.7473H349.266C349.161 58.2547 348.755 56.9453 348.048 55.8193C347.368 54.6933 346.464 53.816 345.338 53.1875C344.238 52.5328 343.021 52.2055 341.685 52.2055C340.35 52.2055 339.132 52.5328 338.032 53.1875C336.932 53.816 336.029 54.7063 335.322 55.8586C334.641 56.9846 334.248 58.2808 334.143 59.7473ZM366.114 52.834C364.333 52.8864 362.762 53.3839 361.4 54.3266C360.065 55.2694 359.122 56.5656 358.572 58.2154V70.9421H355.901V50.4772H358.415V55.3872C359.122 53.9469 360.052 52.7816 361.204 51.8913C362.382 51.0009 363.626 50.5034 364.936 50.3986C365.197 50.3724 365.42 50.3593 365.603 50.3593C365.813 50.3593 365.983 50.3724 366.114 50.3986V52.834Z" fill="black"/>
</svg>
