<svg width="292" height="45" viewBox="0 0 292 45" fill="none" xmlns="http://www.w3.org/2000/svg">
<path d="M9.25448 31.2179H22.6883V36.4421H3.4803V9.45669H9.25448V31.2179ZM35.0143 15.6629C36.7688 15.6629 38.3269 16.0165 39.6886 16.7235C41.0503 17.4306 42.0978 18.4387 42.831 19.7481C43.5904 21.0312 43.9701 22.5501 43.9701 24.3046V36.4421H38.4316V34.3996C37.7246 35.1852 36.8211 35.8006 35.7213 36.2457C34.6476 36.6909 33.5478 36.9135 32.4218 36.9135C30.9815 36.9135 29.6853 36.6516 28.533 36.1279C27.3808 35.578 26.4643 34.8186 25.7834 33.8496C25.1288 32.8546 24.8014 31.7154 24.8014 30.4323C24.8014 29.1229 25.168 27.9576 25.9013 26.9363C26.6607 25.9151 27.682 25.1164 28.9651 24.5403C30.2483 23.9641 31.6624 23.6761 33.2074 23.6761C34.9619 23.6761 36.7033 24.0296 38.4316 24.7367V24.3046C38.4316 23.1262 38.0388 22.1573 37.2532 21.3978C36.4676 20.6384 35.2892 20.2587 33.718 20.2587C32.0944 20.2587 30.3399 20.7432 28.4545 21.7121L26.5298 17.9019C29.4627 16.4093 32.2908 15.6629 35.0143 15.6629ZM33.718 32.9462C34.8702 32.9462 35.8915 32.6974 36.7819 32.1999C37.6722 31.6761 38.2221 30.956 38.4316 30.0395V28.1933C37.0961 27.6696 35.6297 27.4077 34.0323 27.4077C32.9848 27.4077 32.0944 27.6827 31.3612 28.2326C30.628 28.7825 30.2614 29.4634 30.2614 30.2752C30.2614 31.0869 30.5887 31.7416 31.2434 32.2392C31.898 32.7105 32.7229 32.9462 33.718 32.9462ZM53.6601 19.9445C54.3409 18.609 55.2836 17.5615 56.4882 16.8021C57.719 16.0427 59.0938 15.6629 60.6126 15.6629V20.4944C58.4915 20.4944 56.8025 21.0574 55.5455 22.1835C54.2885 23.3095 53.6601 24.8283 53.6601 26.7399V36.4421H47.9252V16.1343H53.6601V19.9445ZM70.6886 15.6629C72.4431 15.6629 74.0012 16.0165 75.3629 16.7235C76.7246 17.4306 77.7721 18.4387 78.5053 19.7481C79.2648 21.0312 79.6445 22.5501 79.6445 24.3046V36.4421H74.106V34.3996C73.3989 35.1852 72.4955 35.8006 71.3956 36.2457C70.322 36.6909 69.2221 36.9135 68.0961 36.9135C66.6558 36.9135 65.3596 36.6516 64.2074 36.1279C63.0552 35.578 62.1386 34.8186 61.4578 33.8496C60.8031 32.8546 60.4758 31.7154 60.4758 30.4323C60.4758 29.1229 60.8424 27.9576 61.5756 26.9363C62.335 25.9151 63.3563 25.1164 64.6395 24.5403C65.9226 23.9641 67.3367 23.6761 68.8817 23.6761C70.6362 23.6761 72.3776 24.0296 74.106 24.7367V24.3046C74.106 23.1262 73.7132 22.1573 72.9276 21.3978C72.142 20.6384 70.9636 20.2587 69.3924 20.2587C67.7688 20.2587 66.0143 20.7432 64.1288 21.7121L62.2041 17.9019C65.137 16.4093 67.9652 15.6629 70.6886 15.6629ZM69.3924 32.9462C70.5446 32.9462 71.5659 32.6974 72.4562 32.1999C73.3466 31.6761 73.8965 30.956 74.106 30.0395V28.1933C72.7704 27.6696 71.304 27.4077 69.7066 27.4077C68.6591 27.4077 67.7688 27.6827 67.0355 28.2326C66.3023 28.7825 65.9357 29.4634 65.9357 30.2752C65.9357 31.0869 66.263 31.7416 66.9177 32.2392C67.5724 32.7105 68.3973 32.9462 69.3924 32.9462ZM81.2593 16.1343H87.2691L92.7291 29.8431L98.0712 16.1343H104.042L95.3608 36.4421H90.058L81.2593 16.1343ZM115.546 32.4748C116.462 32.4748 117.405 32.2915 118.374 31.9249C119.343 31.5583 120.154 31.0739 120.809 30.4716L124.03 33.7711C123.14 34.7138 121.909 35.4732 120.338 36.0493C118.793 36.6254 117.261 36.9135 115.742 36.9135C113.752 36.9135 111.919 36.4552 110.243 35.5387C108.593 34.6222 107.284 33.3521 106.315 31.7285C105.346 30.1049 104.861 28.2719 104.861 26.2293C104.861 24.2129 105.32 22.406 106.236 20.8086C107.179 19.2113 108.449 17.9543 110.046 17.0378C111.67 16.1212 113.464 15.6629 115.428 15.6629C117.523 15.6629 119.343 16.1474 120.888 17.1163C122.433 18.0852 123.611 19.4862 124.423 21.3193C125.235 23.1524 125.641 25.3128 125.641 27.8005H110.321C110.583 29.2146 111.172 30.3537 112.089 31.2179C113.032 32.0559 114.184 32.4748 115.546 32.4748ZM115.467 20.1016C114.21 20.1016 113.123 20.4944 112.207 21.28C111.29 22.0394 110.675 23.0738 110.361 24.3831H120.141C119.906 23.0738 119.382 22.0394 118.57 21.28C117.758 20.4944 116.724 20.1016 115.467 20.1016ZM128.908 8.98532H134.642V36.4421H128.908V8.98532Z" fill="#10B981"/>
<path d="M168.261 12.3634H151.999V21.2407H166.651V24.1475H151.999V36.4421H148.896V9.45669H168.261V12.3634ZM182.053 36.9135C180.168 36.9135 178.413 36.4421 176.79 35.4994C175.192 34.5305 173.922 33.2343 172.98 31.6107C172.037 29.9609 171.565 28.1802 171.565 26.2686C171.565 24.357 172.037 22.5893 172.98 20.9658C173.922 19.3422 175.192 18.059 176.79 17.1163C178.413 16.1474 180.168 15.6629 182.053 15.6629C183.939 15.6629 185.68 16.1474 187.278 17.1163C188.875 18.059 190.145 19.3422 191.088 20.9658C192.03 22.5893 192.502 24.357 192.502 26.2686C192.502 28.1802 192.03 29.9609 191.088 31.6107C190.145 33.2343 188.875 34.5305 187.278 35.4994C185.68 36.4421 183.939 36.9135 182.053 36.9135ZM182.053 34.2817C183.389 34.2817 184.62 33.9282 185.746 33.2212C186.872 32.4879 187.762 31.5059 188.417 30.2752C189.098 29.0444 189.438 27.7089 189.438 26.2686C189.438 24.8283 189.098 23.5059 188.417 22.3013C187.762 21.0705 186.872 20.1016 185.746 19.3946C184.62 18.6613 183.389 18.2947 182.053 18.2947C180.718 18.2947 179.474 18.6613 178.322 19.3946C177.196 20.1016 176.292 21.0705 175.611 22.3013C174.957 23.5059 174.629 24.8283 174.629 26.2686C174.629 27.7089 174.957 29.0444 175.611 30.2752C176.292 31.5059 177.196 32.4879 178.322 33.2212C179.474 33.9282 180.718 34.2817 182.053 34.2817ZM199.043 20.1016C199.646 18.7399 200.641 17.6662 202.029 16.8806C203.417 16.0688 205.04 15.6629 206.9 15.6629V18.2947C205.381 18.2947 204.019 18.5828 202.814 19.1589C201.636 19.735 200.706 20.5468 200.025 21.5942C199.371 22.6155 199.043 23.7808 199.043 25.0902V36.4421H196.097V16.1343H199.043V20.1016ZM232.286 15.6629C233.674 15.6629 234.918 16.0034 236.018 16.6842C237.118 17.3389 237.969 18.2685 238.571 19.4731C239.2 20.6515 239.514 22.0001 239.514 23.519V36.4421H236.568V23.9118C236.568 22.262 236.123 20.9134 235.232 19.8659C234.368 18.8185 233.255 18.2947 231.894 18.2947C230.27 18.2947 228.948 18.7923 227.926 19.7874C226.905 20.7563 226.394 22.0001 226.394 23.519V36.4421H223.448V23.9118C223.448 22.262 223.003 20.9134 222.113 19.8659C221.249 18.8185 220.136 18.2947 218.774 18.2947C217.15 18.2947 215.828 18.7923 214.807 19.7874C213.785 20.7563 213.275 22.0001 213.275 23.519V36.4421H210.329V16.1343H213.275V19.1196C213.799 18.0459 214.571 17.208 215.592 16.6057C216.64 15.9772 217.831 15.6629 219.167 15.6629C220.476 15.6629 221.655 15.9641 222.702 16.5664C223.75 17.1425 224.588 17.9543 225.216 19.0018C226.002 17.9543 226.997 17.1425 228.201 16.5664C229.432 15.9641 230.794 15.6629 232.286 15.6629ZM260.671 16.1343V36.4421H257.725V33.2212C257.122 34.321 256.219 35.2114 255.014 35.8922C253.81 36.5731 252.487 36.9135 251.047 36.9135C249.554 36.9135 248.232 36.5862 247.08 35.9315C245.927 35.2768 245.024 34.3603 244.369 33.1819C243.741 31.9773 243.427 30.6025 243.427 29.0575V16.1343H246.373V28.6647C246.373 30.3406 246.844 31.7023 247.787 32.7498C248.729 33.7711 249.947 34.2817 251.44 34.2817C252.566 34.2817 253.613 34.0461 254.582 33.5747C255.551 33.1033 256.311 32.4748 256.86 31.6892C257.437 30.8775 257.725 30.0002 257.725 29.0575V16.1343H260.671ZM265.223 8.98532H268.169V36.4421H265.223V8.98532ZM281.067 15.6629C283.764 15.6629 285.807 16.4355 287.195 17.9805C288.609 19.4993 289.316 21.5288 289.316 24.0689V36.4421H286.37V33.2604C285.663 34.4127 284.642 35.3161 283.306 35.9708C281.997 36.5993 280.635 36.9135 279.221 36.9135C277.047 36.9135 275.267 36.3243 273.879 35.1459C272.491 33.9675 271.797 32.3963 271.797 30.4323C271.797 29.1229 272.151 27.9576 272.858 26.9363C273.591 25.8889 274.56 25.0902 275.764 24.5403C276.995 23.9641 278.331 23.6761 279.771 23.6761C281.813 23.6761 284.013 24.0558 286.37 24.8152V24.0689C286.37 22.4191 285.951 21.0312 285.113 19.9052C284.275 18.753 282.861 18.1769 280.871 18.1769C279.954 18.1769 279.011 18.3471 278.043 18.6875C277.1 19.0018 276.065 19.4469 274.939 20.023L273.761 17.627C276.38 16.3176 278.815 15.6629 281.067 15.6629ZM279.732 34.321C281.198 34.321 282.573 33.9544 283.856 33.2212C285.165 32.4618 286.003 31.4143 286.37 30.0788V26.9756C284.38 26.4257 282.337 26.1507 280.242 26.1507C278.697 26.1507 277.375 26.5435 276.275 27.3291C275.201 28.1148 274.664 29.1098 274.664 30.3144C274.664 31.5452 275.136 32.5272 276.079 33.2604C277.047 33.9675 278.265 34.321 279.732 34.321Z" fill="white"/>
</svg>
